<?xml version="1.0" encoding="UTF-8" standalone="no"?>
<svg
   xmlns:dc="http://purl.org/dc/elements/1.1/"
   xmlns:cc="http://creativecommons.org/ns#"
   xmlns:rdf="http://www.w3.org/1999/02/22-rdf-syntax-ns#"
   xmlns="http://www.w3.org/2000/svg"
   xmlns:sodipodi="http://sodipodi.sourceforge.net/DTD/sodipodi-0.dtd"
   xmlns:inkscape="http://www.inkscape.org/namespaces/inkscape"
   width="724" height="472"
   version="1.1"
   inkscape:version="0.47 r22583"
   sodipodi:docname="carbon_cycle.eps">
  <metadata>
    <rdf:RDF>
      <cc:Work rdf:about="">
        <dc:format>image/svg+xml</dc:format>
        <dc:type
           rdf:resource="http://purl.org/dc/dcmitype/StillImage" />
        <dc:title>Carbon cycle</dc:title>
      </cc:Work>
    </rdf:RDF>
  </metadata>
  <g
     inkscape:label="Layer 1"
     inkscape:groupmode="layer"
     id="layer1">
    <path
       sodipodi:type="arc"
       style="fill:#00ff00;fill-opacity:1;stroke:#000000;stroke-width:2.9000001;stroke-linecap:round;stroke-miterlimit:4;stroke-opacity:1;stroke-dasharray:none;stroke-dashoffset:0.4"
       id="path3030"
       sodipodi:cx="95"
       sodipodi:cy="76.647896"
       sodipodi:rx="47.857143"
       sodipodi:ry="42.857143"
       d="m 142.7824,74.253617 a 47.857143,42.857143 0 1 1 -0.0485,-0.679264"
       sodipodi:start="6.2272897"
       sodipodi:end="12.494593"
       sodipodi:open="true"
       transform="matrix(1.8033668,0,0,1.3804409,-65.605553,-16.302855)" />
    <path
       sodipodi:type="arc"
       style="fill:#ffff00;fill-opacity:1;stroke:#000000;stroke-width:2.9000001;stroke-linecap:round;stroke-miterlimit:4;stroke-opacity:1;stroke-dasharray:none;stroke-dashoffset:0.4"
       id="path3804"
       sodipodi:cx="350"
       sodipodi:cy="93.790756"
       sodipodi:rx="80"
       sodipodi:ry="45.714287"
       d="m 429.87506,91.236859 a 80,45.714287 0 1 1 -0.0811,-0.724548"
       sodipodi:start="6.2272897"
       sodipodi:end="12.494593"
       sodipodi:open="true"
       transform="matrix(1.2446241,0,0,1.3499695,-107.047,-44.966768)" />
    <path
       sodipodi:type="arc"
       style="fill:#00ffff;fill-opacity:1;stroke:#000000;stroke-width:2.9000001;stroke-linecap:round;stroke-miterlimit:4;stroke-opacity:1;stroke-dasharray:none;stroke-dashoffset:0.4"
       id="path3806"
       sodipodi:cx="562.14288"
       sodipodi:cy="101.6479"
       sodipodi:rx="90.714287"
       sodipodi:ry="53.57143"
       d="m 652.7155,98.655055 a 90.714287,53.57143 0 1 1 -0.0919,-0.84908"
       sodipodi:start="6.2272897"
       sodipodi:end="12.494593"
       sodipodi:open="true"
       transform="matrix(1.1694963,0,0,1.3003469,-105.28113,20.184649)" />
    <path
       sodipodi:type="arc"
       style="fill:#ff8080;fill-opacity:1;stroke:#000000;stroke-width:2.9000001;stroke-linecap:round;stroke-miterlimit:4;stroke-opacity:1;stroke-dasharray:none;stroke-dashoffset:0.4"
       id="path3810"
       sodipodi:cx="215"
       sodipodi:cy="218.07646"
       sodipodi:rx="50.714287"
       sodipodi:ry="34.285713"
       d="m 265.63508,216.16104 a 50.714287,34.285713 0 1 1 -0.0514,-0.54341"
       sodipodi:start="6.2272897"
       sodipodi:end="12.494593"
       sodipodi:open="true"
       transform="matrix(1.0399646,0,0,1.1216127,162.1219,0.62200641)" />
    <path
       sodipodi:type="arc"
       style="fill:#ff0000;fill-opacity:1;stroke:#000000;stroke-width:2.9000001;stroke-linecap:round;stroke-miterlimit:4;stroke-opacity:1;stroke-dasharray:none;stroke-dashoffset:0.4"
       id="path3812"
       sodipodi:cx="277.85715"
       sodipodi:cy="382.36218"
       sodipodi:rx="105"
       sodipodi:ry="47.142857"
       d="m 382.69316,379.72848 a 105,47.142857 0 1 1 -0.10638,-0.74719"
       sodipodi:start="6.2272897"
       sodipodi:end="12.494593"
       sodipodi:open="true"
       transform="matrix(0.85654547,0,0,1.2713804,47.717012,-119.47989)" />
    <g
       id="g3822"
       transform="translate(25.714286,8.5714286)">
      <path
         transform="matrix(1.4443453,0,0,1.6694263,-272.32531,-175.30186)"
         sodipodi:open="true"
         sodipodi:end="12.494593"
         sodipodi:start="6.2272897"
         d="m 652.71437,312.18658 c 2.82096,29.93435 -35.76224,55.55874 -86.17799,57.23368 -50.41574,1.67495 -93.57262,-21.23383 -96.39358,-51.16818 -2.82095,-29.93435 35.76225,-55.55874 86.17799,-57.23368 49.85049,-1.65617 92.72028,20.73908 96.30095,50.30778"
         sodipodi:ry="54.285713"
         sodipodi:rx="91.428574"
         sodipodi:cy="315.21933"
         sodipodi:cx="561.42859"
         id="path3808"
         style="fill:#0000ff;fill-opacity:1;stroke:#000000;stroke-width:2.9000001;stroke-linecap:round;stroke-miterlimit:4;stroke-opacity:1;stroke-dasharray:none;stroke-dashoffset:0.4"
         sodipodi:type="arc" />
      <text
         id="text3814"
         y="325.21936"
         x="538.57147"
         style="font-size:28px;font-style:normal;font-weight:normal;text-align:center;text-anchor:middle;fill:#fbfbfc;fill-opacity:1;stroke:none;font-family:Bitstream Vera Sans;-inkscape-font-specification:Andale Mono"
         xml:space="preserve"><tspan
           y="325.21936"
           x="538.57147"
           id="tspan3816"
           sodipodi:role="line">Deep Sea</tspan><tspan
           id="tspan3818"
           y="360.21936"
           x="538.57147"
           sodipodi:role="line" /><tspan
           id="tspan3820"
           y="395.21936"
           x="538.57147"
           sodipodi:role="line">39000 Gt</tspan></text>
    </g>
    <text
       xml:space="preserve"
       style="font-size:28px;font-style:normal;font-weight:normal;text-align:center;text-anchor:middle;fill:#000000;fill-opacity:1;stroke:none;font-family:Bitstream Vera Sans;-inkscape-font-specification:Andale Mono"
       x="108.57143"
       y="83.790749"
       id="text3829"><tspan
         sodipodi:role="line"
         id="tspan3831"
         x="108.57143"
         y="83.790749">Vegetation</tspan><tspan
         sodipodi:role="line"
         x="108.57143"
         y="118.79075"
         id="tspan3833">575 Gt</tspan></text>
    <text
       xml:space="preserve"
       style="font-size:28px;font-style:normal;font-weight:normal;text-align:center;text-anchor:middle;fill:#000000;fill-opacity:1;stroke:none;font-family:Bitstream Vera Sans;-inkscape-font-specification:Andale Mono"
       x="322.85715"
       y="75.219322"
       id="text3835"><tspan
         sodipodi:role="line"
         id="tspan3837"
         x="322.85715"
         y="75.219322">Atmosphere</tspan><tspan
         sodipodi:role="line"
         x="322.85715"
         y="110.21932"
         id="tspan3839">750 Gt</tspan></text>
    <text
       xml:space="preserve"
       style="font-size:28px;font-style:normal;font-weight:normal;text-align:center;text-anchor:middle;fill:#000000;fill-opacity:1;stroke:none;font-family:Bitstream Vera Sans;-inkscape-font-specification:Andale Mono"
       x="555.71436"
       y="143.79076"
       id="text3841"><tspan
         sodipodi:role="line"
         id="tspan3843"
         x="555.71436"
         y="143.79076">Surface Sea</tspan><tspan
         sodipodi:role="line"
         x="555.71436"
         y="178.79076"
         id="tspan3845">1020 Gt</tspan></text>
    <text
       xml:space="preserve"
       style="font-size:28px;font-style:normal;font-weight:normal;text-align:center;text-anchor:middle;fill:#000000;fill-opacity:1;stroke:none;font-family:Bitstream Vera Sans;-inkscape-font-specification:Andale Mono"
       x="287.14285"
       y="346.64789"
       id="text3847"><tspan
         sodipodi:role="line"
         id="tspan3849"
         x="291.59988"
         y="346.64789">Dissolved </tspan><tspan
         sodipodi:role="line"
         x="287.14285"
         y="381.64789"
         id="tspan3851">Organic C</tspan><tspan
         sodipodi:role="line"
         x="287.14285"
         y="416.64789"
         id="tspan3853">700 Gt</tspan></text>
    <text
       xml:space="preserve"
       style="font-size:28px;font-style:normal;font-weight:normal;fill:#000000;fill-opacity:1;stroke:none;font-family:Bitstream Vera Sans;-inkscape-font-specification:Andale Mono"
       x="355.71429"
       y="238.07646"
       id="text3855"><tspan
         sodipodi:role="line"
         id="tspan3857"
         x="355.71429"
         y="238.07646">M.O.</tspan><tspan
         sodipodi:role="line"
         x="355.71429"
         y="273.07648"
         id="tspan3859">3 Gt</tspan></text>
    <path
       style="fill:#ffff00;fill-opacity:1;stroke:#000000;stroke-width:1.11962163px;stroke-linecap:butt;stroke-linejoin:miter;stroke-opacity:1"
       d="m 434.52115,58.98933 c 24.97596,13.373473 44.4236,23.526709 44.4236,23.526709 l 5.44171,-14.078822 15.06533,40.377413 -40.92355,9.95009 6.42585,-12.26311 -45.11499,-23.462635 14.68204,-24.04965 z"
       id="path3882"
       sodipodi:nodetypes="cccccccc" />
    <text
       xml:space="preserve"
       style="font-size:18px;font-style:normal;font-weight:normal;fill:#000000;fill-opacity:1;stroke:none;font-family:Bitstream Vera Sans;-inkscape-font-specification:Andale Mono"
       x="416.71243"
       y="-125.66538"
       id="text3884"
       transform="matrix(0.8903265,0.45532266,-0.45532266,0.8903265,0,0)"
       inkscape:transform-center-x="0.064126959"
       inkscape:transform-center-y="0.69539774"><tspan
         sodipodi:role="line"
         id="tspan3886"
         x="416.71243"
         y="-125.66538">90 Gt/y</tspan></text>
    <path
       style="fill:#00ff00;fill-opacity:1;stroke:#000000;stroke-width:1.18833971px;stroke-linecap:butt;stroke-linejoin:miter;stroke-opacity:1"
       d="m 162.47307,34.487151 c 31.48795,1.02191 55.87014,1.58083 55.87014,1.58083 l -2.02526,-15.249402 35.88919,30.035786 -34.93186,27.337144 -0.1106,-14.035692 -56.51467,-1.21371 1.82304,-28.454956 z"
       id="path3882-9"
       sodipodi:nodetypes="cccccccc" />
    <text
       xml:space="preserve"
       style="font-size:18px;font-style:normal;font-weight:normal;fill:#000000;fill-opacity:1;stroke:none;font-family:Bitstream Vera Sans;-inkscape-font-specification:Andale Mono"
       x="173.41298"
       y="55.933613"
       id="text3884-9"><tspan
         sodipodi:role="line"
         id="tspan3886-9"
         x="173.41298"
         y="55.933613">60 Gt/y</tspan></text>
    <path
       style="fill:#ffff00;fill-opacity:1;stroke:#000000;stroke-width:1.14182127px;stroke-linecap:butt;stroke-linejoin:miter;stroke-opacity:1"
       d="m 244.83435,98.760679 c -29.04739,1.022739 -51.5398,1.582111 -51.5398,1.582111 l 1.86829,-15.261766 -33.10753,30.060136 32.22439,27.35931 0.10204,-14.04707 52.13438,-1.2147 -1.68176,-28.478021 z"
       id="path3882-2"
       sodipodi:nodetypes="cccccccc" />
    <text
       xml:space="preserve"
       style="font-size:18px;font-style:normal;font-weight:normal;fill:#000000;fill-opacity:1;stroke:none;font-family:Bitstream Vera Sans;-inkscape-font-specification:Andale Mono"
       x="175.12727"
       y="120.21934"
       id="text3884-98"><tspan
         sodipodi:role="line"
         id="tspan3886-92"
         x="175.12727"
         y="120.21934">60 Gt/y</tspan></text>
    <path
       style="fill:#ff8080;stroke:#000000;stroke-width:1.12266123000000007px;stroke-linecap:butt;stroke-linejoin:miter;stroke-opacity:1;fill-opacity:1"
       d="m 431.11877,261.3342 c 19.32692,20.38427 34.45531,36.0024 34.45531,36.0024 l 9.39974,-12.16477 1.79156,43.87128 -41.39703,-2.26204 9.76775,-10.10212 -35.12293,-36.14228 21.10559,-19.20247 z"
       id="path3882-4"
       sodipodi:nodetypes="cccccccc" />
    <text
       xml:space="preserve"
       style="font-size:18px;font-style:normal;font-weight:normal;fill:#000000;fill-opacity:1;stroke:none;font-family:Bitstream Vera Sans;-inkscape-font-specification:Andale Mono"
       x="493.39151"
       y="-93.783058"
       id="text3884-90"
       transform="matrix(0.71400941,0.7001361,-0.7001361,0.71400941,0,0)"><tspan
         sodipodi:role="line"
         id="tspan3886-2"
         x="493.39151"
         y="-93.783058">4 Gt/y</tspan></text>
    <path
       style="fill:#00ffff;fill-opacity:1;stroke:#000000;stroke-width:1.16630173px;stroke-linecap:butt;stroke-linejoin:miter;stroke-opacity:1"
       d="m 471.93526,133.92028 c -25.42856,-14.778 -44.98475,-26.42041 -44.98475,-26.42041 l 10.3916,-12.071736 -45.63213,7.917566 11.79124,40.81222 8.18132,-11.98268 45.28151,27.0557 14.97122,-25.31066 z"
       id="path3882-4-3"
       sodipodi:nodetypes="cccccccc" />
    <text
       xml:space="preserve"
       style="font-size:18px;font-style:normal;font-weight:normal;fill:#000000;fill-opacity:1;stroke:none;font-family:Bitstream Vera Sans;-inkscape-font-specification:Andale Mono"
       x="393.13385"
       y="-123.30393"
       id="text3884-90-9"
       transform="matrix(0.83807151,0.54556039,-0.54556039,0.83807151,0,0)"><tspan
         sodipodi:role="line"
         id="tspan3886-2-4"
         x="393.13385"
         y="-123.30393">90 Gt/y</tspan></text>
    <path
       style="fill:#00ffff;fill-opacity:1;stroke:#000000;stroke-width:1.09547544px;stroke-linecap:butt;stroke-linejoin:miter;stroke-opacity:1"
       d="m 445.4648,153.58573 c -20.98032,18.3813 -37.36783,32.44237 -37.36783,32.44237 l -7.91057,-12.43507 -6.30543,42.34725 40.63834,0.7084 -8.48399,-10.46394 38.03394,-32.53105 -18.60446,-20.06797 z"
       id="path3882-4-6"
       sodipodi:nodetypes="cccccccc" />
    <text
       xml:space="preserve"
       style="font-size:18px;font-style:normal;font-weight:normal;fill:#000000;fill-opacity:1;stroke:none;font-family:Bitstream Vera Sans;-inkscape-font-specification:Andale Mono"
       x="176.63493"
       y="422.11502"
       id="text3884-90-92"
       transform="matrix(0.77351844,-0.6337738,0.6337738,0.77351844,0,0)"><tspan
         sodipodi:role="line"
         id="tspan3886-2-8"
         x="176.63493"
         y="422.11502">50 Gt/y</tspan></text>
    <path
       style="fill:#ff8080;stroke:#000000;stroke-width:1.12266123000000007px;stroke-linecap:butt;stroke-linejoin:miter;stroke-opacity:1;fill-opacity:1"
       d="m 427.65839,234.3201 c 20.09975,-19.62265 35.49522,-34.97758 35.49522,-34.97758 l -12.3008,-9.22102 43.84043,-2.43226 -1.65705,41.42565 -10.24374,-9.61912 -35.62533,35.64716 -19.50874,-20.82282 z"
       id="path3882-4-34"
       sodipodi:nodetypes="cccccccc" />
    <text
       xml:space="preserve"
       style="font-size:18px;font-style:normal;font-weight:normal;fill:#000000;fill-opacity:1;stroke:none;font-family:Bitstream Vera Sans;-inkscape-font-specification:Andale Mono"
       x="122.12576"
       y="492.75162"
       id="text3884-90-7"
       transform="matrix(0.68963086,-0.72416108,0.72416108,0.68963086,0,0)"><tspan
         sodipodi:role="line"
         id="tspan3886-2-2"
         x="122.12576"
         y="492.75162"> 40 Gt/y</tspan></text>
    <path
       style="fill:#ff8080;fill-opacity:1;stroke:#000000;stroke-width:1.12266123px;stroke-linecap:butt;stroke-linejoin:miter;stroke-opacity:1"
       d="m 344.38393,256.36005 c -23.18127,15.86435 -41.25563,27.952 -41.25563,27.952 l -6.63151,-13.86939 -10.97693,42.5136 40.94707,6.49367 -7.42502,-11.93024 41.93773,-27.94837 -16.5957,-23.21127 z"
       id="path3882-4-1"
       sodipodi:nodetypes="cccccccc" />
    <text
       xml:space="preserve"
       style="font-size:18px;font-style:normal;font-weight:normal;fill:#000000;fill-opacity:1;stroke:none;font-family:Bitstream Vera Sans;-inkscape-font-specification:Andale Mono"
       x="86.414131"
       y="421.78467"
       id="text3884-90-98"
       transform="matrix(0.84527183,-0.53433653,0.53433653,0.84527183,0,0)"><tspan
         sodipodi:role="line"
         id="tspan3886-2-87"
         x="86.414131"
         y="421.78467"> 6 Gt/y</tspan></text>
    <path
       style="fill:#ff0000;stroke:#000000;stroke-width:1.12266123000000007px;stroke-linecap:butt;stroke-linejoin:miter;stroke-opacity:1;fill-opacity:1"
       d="m 366.52813,381.68298 c 28.07137,-1.02308 49.80801,-1.58264 49.80801,-1.58264 l -1.8055,15.26686 31.99506,-30.07017 -31.1416,-27.36844 -0.0986,14.05176 -50.38263,1.2151 1.62525,28.48753 z"
       id="path3882-4-5"
       sodipodi:nodetypes="cccccccc" />
    <text
       xml:space="preserve"
       style="font-size:18px;font-style:normal;font-weight:normal;fill:#000000;fill-opacity:1;stroke:none;font-family:Bitstream Vera Sans;-inkscape-font-specification:Andale Mono"
       x="369.12726"
       y="373.07648"
       id="text3884-90-71"><tspan
         sodipodi:role="line"
         id="tspan3886-2-7"
         x="369.12726"
         y="373.07648">6 Gt/y</tspan></text>
    <path
       style="fill:#00ffff;stroke:#000000;stroke-width:1.12266123000000007px;stroke-linecap:butt;stroke-linejoin:miter;stroke-opacity:1;fill-opacity:1"
       d="m 512.22722,209.75951 c -0.0784,28.0899 -0.3715,49.83175 -0.3715,49.83175 l -15.18433,-2.40271 28.79255,33.14948 28.56843,-30.04457 -14.03709,-0.64948 0.76128,-50.39152 -28.52934,0.50704 z"
       id="path3882-4-14"
       sodipodi:nodetypes="cccccccc" />
    <text
       xml:space="preserve"
       style="font-size:18px;font-style:normal;font-weight:normal;fill:#000000;fill-opacity:1;stroke:none;font-family:Bitstream Vera Sans;-inkscape-font-specification:Andale Mono"
       x="-265.28748"
       y="541.52148"
       id="text3884-90-2"
       transform="matrix(0.03920899,-0.99923103,0.99923103,0.03920899,0,0)"><tspan
         sodipodi:role="line"
         id="tspan3886-2-85"
         x="-265.28748"
         y="541.52148"> 92 Gt/y</tspan></text>
    <path
       style="fill:#0000ff;stroke:#000000;stroke-width:1.21537626000000021px;stroke-linecap:butt;stroke-linejoin:miter;stroke-opacity:1;fill-opacity:1"
       d="m 596.43939,291.21937 c -1.02143,-32.95257 -1.58008,-58.46887 -1.58008,-58.46887 l 15.24221,2.11944 -30.02163,-37.55853 -27.32426,36.55667 14.02908,0.11575 1.21313,59.14341 28.44155,-1.90786 z"
       id="path3882-4-10"
       sodipodi:nodetypes="cccccccc" />
    <text
       xml:space="preserve"
       style="font-size:18px;font-style:normal;font-weight:normal;fill:#ffffff;fill-opacity:1;stroke:none;font-family:Bitstream Vera Sans;-inkscape-font-specification:Andale Mono"
       x="205.30757"
       y="-574.42377"
       id="text3884-90-99"
       transform="matrix(0,1,-1,0,0,0)"><tspan
         sodipodi:role="line"
         id="tspan3886-2-9"
         x="205.30757"
         y="-574.42377"> 102 Gt/y</tspan></text>
  </g>
</svg>
