<?xml version="1.0" encoding="UTF-8" standalone="no"?>
<svg
   xmlns:dc="http://purl.org/dc/elements/1.1/"
   xmlns:cc="http://creativecommons.org/ns#"
   xmlns:rdf="http://www.w3.org/1999/02/22-rdf-syntax-ns#"
   xmlns:svg="http://www.w3.org/2000/svg"
   xmlns="http://www.w3.org/2000/svg"
   version="1.1"
   id="svg2"
   x="0px"
   y="0px"
   viewBox="0 0 400 450"
   xml:space="preserve"
   width="400"
   height="450"><metadata
   id="metadata646"><rdf:RDF><cc:Work
       rdf:about=""><dc:format>image/svg+xml</dc:format><dc:type
         rdf:resource="http://purl.org/dc/dcmitype/StillImage" /><dc:title></dc:title></cc:Work></rdf:RDF></metadata><defs
   id="defs644"><marker
     style="overflow:visible"
     id="marker1133"
     refX="0"
     refY="0"
     orient="auto"><path
       transform="matrix(-0.4,0,0,-0.4,-4,0)"
       style="fill:#000000;fill-opacity:1;fill-rule:evenodd;stroke:#000000;stroke-width:1.00000003pt;stroke-opacity:1"
       d="M 0,0 5,-5 -12.5,0 5,5 Z"
       id="path1131" /></marker><marker
     orient="auto"
     refY="0"
     refX="0"
     id="marker2140"
     style="overflow:visible"><path
       id="path2138"
       d="M 0,0 5,-5 -12.5,0 5,5 Z"
       style="fill:#000000;fill-opacity:1;fill-rule:evenodd;stroke:#000000;stroke-width:1.00000003pt;stroke-opacity:1"
       transform="matrix(-0.4,0,0,-0.4,-4,0)" /></marker><marker
     style="overflow:visible"
     id="marker2019"
     refX="0"
     refY="0"
     orient="auto"><path
       transform="matrix(-0.4,0,0,-0.4,-4,0)"
       style="fill:#000000;fill-opacity:1;fill-rule:evenodd;stroke:#000000;stroke-width:1.00000003pt;stroke-opacity:1"
       d="M 0,0 5,-5 -12.5,0 5,5 Z"
       id="path2017" /></marker><marker
     orient="auto"
     refY="0"
     refX="0"
     id="Arrow1Mend"
     style="overflow:visible"><path
       id="path1678"
       d="M 0,0 5,-5 -12.5,0 5,5 Z"
       style="fill:#000000;fill-opacity:1;fill-rule:evenodd;stroke:#000000;stroke-width:1.00000003pt;stroke-opacity:1"
       transform="matrix(-0.4,0,0,-0.4,-4,0)" /></marker><marker
     orient="auto"
     refY="0"
     refX="0"
     id="marker2140-4"
     style="overflow:visible"><path
       id="path2138-7"
       d="M 0,0 5,-5 -12.5,0 5,5 Z"
       style="fill:#000000;fill-opacity:1;fill-rule:evenodd;stroke:#000000;stroke-width:1.00000003pt;stroke-opacity:1"
       transform="matrix(-0.4,0,0,-0.4,-4,0)" /></marker><marker
     orient="auto"
     refY="0"
     refX="0"
     id="marker2140-4-5"
     style="overflow:visible"><path
       id="path2138-7-5"
       d="M 0,0 5,-5 -12.5,0 5,5 Z"
       style="fill:#000000;fill-opacity:1;fill-rule:evenodd;stroke:#000000;stroke-width:1.00000003pt;stroke-opacity:1"
       transform="matrix(-0.4,0,0,-0.4,-4,0)" /></marker><marker
     style="overflow:visible"
     id="marker1133-3"
     refX="0"
     refY="0"
     orient="auto"><path
       transform="matrix(-0.4,0,0,-0.4,-4,0)"
       style="fill:#000000;fill-opacity:1;fill-rule:evenodd;stroke:#000000;stroke-width:1.00000003pt;stroke-opacity:1"
       d="M 0,0 5,-5 -12.5,0 5,5 Z"
       id="path1131-5" /></marker><marker
     style="overflow:visible"
     id="marker1133-3-4"
     refX="0"
     refY="0"
     orient="auto"><path
       transform="matrix(-0.4,0,0,-0.4,-4,0)"
       style="fill:#000000;fill-opacity:1;fill-rule:evenodd;stroke:#000000;stroke-width:1.00000003pt;stroke-opacity:1"
       d="M 0,0 5,-5 -12.5,0 5,5 Z"
       id="path1131-5-2" /></marker><marker
     style="overflow:visible"
     id="marker1133-1"
     refX="0"
     refY="0"
     orient="auto"><path
       transform="matrix(-0.4,0,0,-0.4,-4,0)"
       style="fill:#000000;fill-opacity:1;fill-rule:evenodd;stroke:#000000;stroke-width:1.00000003pt;stroke-opacity:1"
       d="M 0,0 5,-5 -12.5,0 5,5 Z"
       id="path1131-9" /></marker><marker
     style="overflow:visible"
     id="marker1133-3-1"
     refX="0"
     refY="0"
     orient="auto"><path
       transform="matrix(-0.4,0,0,-0.4,-4,0)"
       style="fill:#000000;fill-opacity:1;fill-rule:evenodd;stroke:#000000;stroke-width:1.00000003pt;stroke-opacity:1"
       d="M 0,0 5,-5 -12.5,0 5,5 Z"
       id="path1131-5-26" /></marker><marker
     style="overflow:visible"
     id="marker1133-9"
     refX="0"
     refY="0"
     orient="auto"><path
       transform="matrix(-0.4,0,0,-0.4,-4,0)"
       style="fill:#000000;fill-opacity:1;fill-rule:evenodd;stroke:#000000;stroke-width:1.00000003pt;stroke-opacity:1"
       d="M 0,0 5,-5 -12.5,0 5,5 Z"
       id="path1131-2" /></marker><marker
     orient="auto"
     refY="0"
     refX="0"
     id="marker2140-4-1"
     style="overflow:visible"><path
       id="path2138-7-7"
       d="M 0,0 5,-5 -12.5,0 5,5 Z"
       style="fill:#000000;fill-opacity:1;fill-rule:evenodd;stroke:#000000;stroke-width:1.00000003pt;stroke-opacity:1"
       transform="matrix(-0.4,0,0,-0.4,-4,0)" /></marker><marker
     orient="auto"
     refY="0"
     refX="0"
     id="marker2140-4-1-7"
     style="overflow:visible"><path
       id="path2138-7-7-8"
       d="M 0,0 5,-5 -12.5,0 5,5 Z"
       style="fill:#000000;fill-opacity:1;fill-rule:evenodd;stroke:#000000;stroke-width:1.00000003pt;stroke-opacity:1"
       transform="matrix(-0.4,0,0,-0.4,-4,0)" /></marker><marker
     orient="auto"
     refY="0"
     refX="0"
     id="marker2140-4-5-7"
     style="overflow:visible"><path
       id="path2138-7-5-7"
       d="M 0,0 5,-5 -12.5,0 5,5 Z"
       style="fill:#000000;fill-opacity:1;fill-rule:evenodd;stroke:#000000;stroke-width:1.00000003pt;stroke-opacity:1"
       transform="matrix(-0.4,0,0,-0.4,-4,0)" /></marker><marker
     orient="auto"
     refY="0"
     refX="0"
     id="marker1133a"
     style="overflow:visible"><path
       id="path1271"
       d="M 0,0 5,-5 -12.5,0 5,5 Z"
       style="fill:#ffffff;fill-opacity:1;fill-rule:evenodd;stroke:#000000;stroke-width:1.00000003pt;stroke-opacity:1"
       transform="matrix(-0.4,0,0,-0.4,-4,0)" /></marker><marker
     style="overflow:visible"
     id="marker1133aY"
     refX="0"
     refY="0"
     orient="auto"><path
       transform="matrix(-0.4,0,0,-0.4,-4,0)"
       style="fill:#413a4b;fill-opacity:1;fill-rule:evenodd;stroke:#413a4b;stroke-width:1.00000003pt;stroke-opacity:1"
       d="M 0,0 5,-5 -12.5,0 5,5 Z"
       id="path1520" /></marker><marker
     orient="auto"
     refY="0"
     refX="0"
     id="marker1133aYY"
     style="overflow:visible"><path
       id="path1779"
       d="M 0,0 5,-5 -12.5,0 5,5 Z"
       style="fill:#1f1c24;fill-opacity:1;fill-rule:evenodd;stroke:#1f1c24;stroke-width:1.00000003pt;stroke-opacity:1"
       transform="matrix(-0.4,0,0,-0.4,-4,0)" /></marker><marker
     style="overflow:visible"
     id="marker1133-0"
     refX="0"
     refY="0"
     orient="auto"><path
       transform="matrix(-0.4,0,0,-0.4,-4,0)"
       style="fill:#000000;fill-opacity:1;fill-rule:evenodd;stroke:#000000;stroke-width:1.00000003pt;stroke-opacity:1"
       d="M 0,0 5,-5 -12.5,0 5,5 Z"
       id="path1131-1" /></marker><marker
     orient="auto"
     refY="0"
     refX="0"
     id="Arrow1Mend-8"
     style="overflow:visible"><path
       id="path1678-9"
       d="M 0,0 5,-5 -12.5,0 5,5 Z"
       style="fill:#000000;fill-opacity:1;fill-rule:evenodd;stroke:#000000;stroke-width:1.00000003pt;stroke-opacity:1"
       transform="matrix(-0.4,0,0,-0.4,-4,0)" /></marker><marker
     style="overflow:visible"
     id="marker1133-2"
     refX="0"
     refY="0"
     orient="auto"><path
       transform="matrix(-0.4,0,0,-0.4,-4,0)"
       style="fill:#000000;fill-opacity:1;fill-rule:evenodd;stroke:#000000;stroke-width:1.00000003pt;stroke-opacity:1"
       d="M 0,0 5,-5 -12.5,0 5,5 Z"
       id="path1131-8" /></marker></defs><style
   type="text/css"
   id="style2">
	.st0{fill:#C9EDED;stroke:#000000;}
	.st1{fill:#6EBEC1;stroke:#000000;stroke-width:1.2487;}
	.st2{fill:#98ECEC;stroke:#000000;}
	.st3{fill-rule:evenodd;clip-rule:evenodd;fill:#C9EDED;stroke:#000000;}
	.st4{font-family:'ArialMT';}
	.st5{font-size:15px;}
	.st6{font-size:16px;}
	.st7{font-size:14px;}
	.st8{fill:#666666;}
	.st9{font-size:18px;}
	.st10{font-size:30px;}
	.st11{font-family:'Arial-BoldMT';}
	.st12{font-size:20px;}
	.st13{fill-rule:evenodd;clip-rule:evenodd;stroke:#000000;}
	.st14{fill:none;stroke:#000000;stroke-width:5;}
	.st15{fill:none;stroke:#000000;stroke-width:4;}
	.st16{fill:none;stroke:#000000;}
	.st17{fill:none;stroke:#000000;stroke-width:3;}
	.st18{fill:none;stroke:#000000;stroke-width:2;}
	.st19{fill:none;stroke:#000000;stroke-width:1.5;}
</style><path
   id="path2213"
   class="st1"
   d="m 401.68702,155.71195 c 0,4.06645 -3.36325,7.43178 -7.42715,7.43178 -4.06394,0 -7.42715,-3.36533 -7.42715,-7.43178 0,-4.06643 3.36321,-7.43178 7.42715,-7.43178 4.20404,-0.14022 7.42715,3.22511 7.42715,7.43178 z m -11.35095,6.30999 v 13.88202 m 7.84758,-13.88202 v 15.84512"
   style="fill:#6ebec1;stroke:#000000;stroke-width:1.59595525" /><path
   id="path2215"
   class="st1"
   d="m 386.69256,155.71195 c 0,4.06645 -3.36324,7.43178 -7.42715,7.43178 -4.06393,0 -7.42718,-3.36533 -7.42718,-7.43178 0,-4.06643 3.36325,-7.43178 7.42718,-7.43178 4.06391,-0.14022 7.42715,3.22511 7.42715,7.43178 z m -11.35095,6.30999 v 13.88202 m 7.70743,-13.88202 v 15.84512"
   style="fill:#6ebec1;stroke:#000000;stroke-width:1.59595525" /><path
   id="path2217"
   class="st1"
   d="m 371.6981,155.71195 c 0,4.06645 -3.36326,7.43178 -7.42717,7.43178 -4.06394,0 -7.42717,-3.36533 -7.42717,-7.43178 0,-4.06643 3.36323,-7.43178 7.42717,-7.43178 4.06391,0 7.42717,3.22511 7.42717,7.43178 z m -11.35095,6.30999 v 13.88202 m 7.70743,-13.88202 v 15.84512"
   style="fill:#6ebec1;stroke:#000000;stroke-width:1.59595525" /><path
   id="path2219"
   class="st1"
   d="m 356.70364,155.71195 c 0,4.06645 -3.36326,7.43178 -7.42716,7.43178 -4.06394,0 -7.42719,-3.36533 -7.42719,-7.43178 0,-4.06643 3.36325,-7.43178 7.42719,-7.43178 4.0639,0 7.42716,3.22511 7.42716,7.43178 z m -11.35094,6.30999 v 13.88202 m 7.70741,-13.88202 v 15.84512"
   style="fill:#6ebec1;stroke:#000000;stroke-width:1.59595525" /><path
   id="path2221"
   class="st1"
   d="m 341.56902,155.71195 c 0,4.06645 -3.36324,7.43178 -7.42715,7.43178 -4.06392,0 -7.42715,-3.36533 -7.42715,-7.43178 0,-4.06643 3.36323,-7.43178 7.42715,-7.43178 4.06391,0 7.42715,3.22511 7.42715,7.43178 z m -11.35094,6.30999 v 13.88202 m 7.84759,-13.88202 v 15.84512"
   style="fill:#6ebec1;stroke:#000000;stroke-width:1.59595525" /><path
   id="path2223"
   class="st1"
   d="m 326.57456,155.71195 c 0,4.06645 -3.36322,7.43178 -7.42716,7.43178 -4.06391,0 -7.42716,-3.36533 -7.42716,-7.43178 0,-4.06643 3.36325,-7.43178 7.42716,-7.43178 4.06394,0 7.42716,3.22511 7.42716,7.43178 z m -11.35093,6.30999 v 13.88202 m 7.70741,-13.88202 v 15.84512"
   style="fill:#6ebec1;stroke:#000000;stroke-width:1.59595525" /><path
   id="path2225"
   class="st1"
   d="m 311.58013,155.71195 c 0,4.06645 -3.36324,7.43178 -7.42717,7.43178 -4.06394,0 -7.42717,-3.36533 -7.42717,-7.43178 0,-4.06643 3.36323,-7.43178 7.42717,-7.43178 4.06393,0 7.42717,3.22511 7.42717,7.43178 z m -11.35096,6.30999 v 13.88202 m 7.70743,-13.88202 v 15.84512"
   style="fill:#6ebec1;stroke:#000000;stroke-width:1.59595525" /><path
   id="path2227"
   class="st1"
   d="m 296.44551,155.71195 c 0,4.06645 -3.36325,7.43178 -7.42716,7.43178 -4.06392,0 -7.42716,-3.36533 -7.42716,-7.43178 0,-4.06643 3.36324,-7.43178 7.42716,-7.43178 4.06391,0 7.42716,3.22511 7.42716,7.43178 z m -11.35096,6.30999 v 13.88202 m 7.84757,-13.88202 v 15.84512"
   style="fill:#6ebec1;stroke:#000000;stroke-width:1.59595525" /><path
   id="path2229"
   class="st1"
   d="m 281.45105,155.71195 c 0,4.06645 -3.36324,7.43178 -7.42715,7.43178 -4.06392,0 -7.42718,-3.36533 -7.42718,-7.43178 0,-4.06643 3.36326,-7.43178 7.42718,-7.43178 4.06391,0 7.42715,3.22511 7.42715,7.43178 z m -11.35095,6.30999 v 13.88202 m 7.70744,-13.88202 v 15.84512"
   style="fill:#6ebec1;stroke:#000000;stroke-width:1.59595525" /><path
   id="path2231"
   class="st1"
   d="m 266.45658,155.71195 c 0,4.06645 -3.36322,7.43178 -7.42715,7.43178 -4.06388,0 -7.42715,-3.36533 -7.42715,-7.43178 0,-4.06643 3.36327,-7.43178 7.42715,-7.43178 4.06393,0 7.42715,3.22511 7.42715,7.43178 z m -11.35092,6.30999 v 13.88202 m 7.70742,-13.88202 v 15.84512"
   style="fill:#6ebec1;stroke:#000000;stroke-width:1.59595525" /><path
   id="path2233"
   class="st1"
   d="m 251.46213,155.71195 c 0,4.06645 -3.36323,7.43178 -7.42718,7.43178 -4.06389,0 -7.42716,-3.36533 -7.42716,-7.43178 0,-4.06643 3.36327,-7.43178 7.42716,-7.43178 4.06395,0 7.42718,3.22511 7.42718,7.43178 z m -11.35094,6.30999 v 13.88202 m 7.70744,-13.88202 v 15.84512"
   style="fill:#6ebec1;stroke:#000000;stroke-width:1.59595525" /><path
   id="path2235"
   class="st1"
   d="m 236.32753,155.71195 c 0,4.06645 -3.36325,7.43178 -7.42714,7.43178 -4.06393,0 -7.42719,-3.36533 -7.42719,-7.43178 0,-4.06643 3.36326,-7.43178 7.42719,-7.43178 4.06389,-0.14022 7.42714,3.22511 7.42714,7.43178 z m -11.35095,6.30999 v 13.88202 m 7.84757,-13.88202 v 15.84512"
   style="fill:#6ebec1;stroke:#000000;stroke-width:1.59595525" /><path
   id="path2237"
   class="st1"
   d="m 221.33305,155.71195 c 0,4.06645 -3.36324,7.43178 -7.42714,7.43178 -4.06391,0 -7.42718,-3.36533 -7.42718,-7.43178 0,-4.06643 3.36327,-7.43178 7.42718,-7.43178 4.0639,-0.14022 7.42714,3.22511 7.42714,7.43178 z m -11.35092,6.30999 v 13.88202 m 7.70745,-13.88202 v 15.84512"
   style="fill:#6ebec1;stroke:#000000;stroke-width:1.59595525" /><path
   id="path2239"
   class="st1"
   d="m 206.33863,155.71195 c 0,4.06645 -3.36326,7.43178 -7.42718,7.43178 -4.06392,0 -7.42719,-3.36533 -7.42719,-7.43178 0,-4.06643 3.36327,-7.43178 7.42719,-7.43178 4.06392,0 7.42718,3.22511 7.42718,7.43178 z m -11.35095,6.30999 v 13.88202 m 7.7074,-13.88202 v 15.84512"
   style="fill:#6ebec1;stroke:#000000;stroke-width:1.59595525" /><path
   id="path2241"
   class="st1"
   d="m 191.34416,155.71195 c 0,4.06645 -3.36325,7.43178 -7.42719,7.43178 -4.06389,0 -7.42716,-3.36533 -7.42716,-7.43178 0,-4.06643 3.36327,-7.43178 7.42716,-7.43178 4.06394,0 7.42719,3.22511 7.42719,7.43178 z m -11.49108,6.30999 v 13.88202 m 7.84755,-13.88202 v 15.84512"
   style="fill:#6ebec1;stroke:#000000;stroke-width:1.59595525" /><path
   id="path2243"
   class="st1"
   d="m 176.20957,155.71195 c 0,4.06645 -3.36325,7.43178 -7.42716,7.43178 -4.06394,0 -7.42719,-3.36533 -7.42719,-7.43178 0,-4.06643 3.36325,-7.43178 7.42719,-7.43178 4.06391,-0.14022 7.42716,3.22511 7.42716,7.43178 z m -11.35097,6.30999 v 13.88202 m 7.84758,-13.88202 v 15.84512"
   style="fill:#6ebec1;stroke:#000000;stroke-width:1.59595525" /><path
   id="path2245"
   class="st1"
   d="m 161.21508,155.71195 c 0,4.06645 -3.36321,7.43178 -7.42714,7.43178 -4.06392,0 -7.42717,-3.36533 -7.42717,-7.43178 0,-4.06643 3.36325,-7.43178 7.42717,-7.43178 4.06393,0 7.42714,3.22511 7.42714,7.43178 z m -11.35091,6.30999 v 13.88202 m 7.70741,-13.88202 v 15.84512"
   style="fill:#6ebec1;stroke:#000000;stroke-width:1.59595525" /><path
   id="path2247"
   class="st1"
   d="m 146.22064,155.71195 c 0,4.06645 -3.36322,7.43178 -7.42715,7.43178 -4.06391,0 -7.42716,-3.36533 -7.42716,-7.43178 0,-4.06643 3.36325,-7.43178 7.42716,-7.43178 4.06393,-0.14022 7.42715,3.22511 7.42715,7.43178 z m -11.35094,6.30999 v 13.88202 m 7.70744,-13.88202 v 15.84512"
   style="fill:#6ebec1;stroke:#000000;stroke-width:1.59595525" /><path
   id="path2249"
   class="st1"
   d="m 131.08604,155.71195 c 0,4.06645 -3.36323,7.43178 -7.42715,7.43178 -4.06392,0 -7.42715,-3.36533 -7.42715,-7.43178 0,-4.06643 3.36323,-7.43178 7.42715,-7.43178 4.06392,0 7.42715,3.22511 7.42715,7.43178 z m -11.35094,6.30999 v 13.88202 m 7.84757,-13.88202 v 15.84512"
   style="fill:#6ebec1;stroke:#000000;stroke-width:1.59595525" /><path
   id="path2251"
   class="st1"
   d="m 116.0916,155.71195 c 0,4.06645 -3.36325,7.43178 -7.42716,7.43178 -4.06393,0 -7.42718,-3.36533 -7.42718,-7.43178 0,-4.06643 3.36325,-7.43178 7.42718,-7.43178 4.06391,0 7.42716,3.22511 7.42716,7.43178 z m -11.35096,6.30999 v 13.88202 m 7.70745,-13.88202 v 15.84512"
   style="fill:#6ebec1;stroke:#000000;stroke-width:1.59595525" /><path
   id="path2253"
   class="st1"
   d="m 101.09712,155.71195 c 0,4.06645 -3.363234,7.43178 -7.427158,7.43178 -4.063914,0 -7.427145,-3.36533 -7.427145,-7.43178 0,-4.06643 3.363231,-7.43178 7.427145,-7.43178 4.063924,-0.14022 7.427158,3.22511 7.427158,7.43178 z m -11.350943,6.30999 v 13.88202 m 7.707442,-13.88202 v 15.84512"
   style="fill:#6ebec1;stroke:#000000;stroke-width:1.59595525" /><path
   id="path2255"
   class="st1"
   d="m 86.102679,155.71195 c 0,4.06645 -3.363251,7.43178 -7.427175,7.43178 -4.063913,0 -7.427158,-3.36533 -7.427158,-7.43178 0,-4.06643 3.363245,-7.43178 7.427158,-7.43178 4.063924,-0.14022 7.427175,3.22511 7.427175,7.43178 z m -11.491088,6.30999 v 13.88202 m 7.84757,-13.88202 v 15.84512"
   style="fill:#6ebec1;stroke:#000000;stroke-width:1.59595525" /><path
   id="path2257"
   class="st1"
   d="m 70.968077,155.71195 c 0,4.06645 -3.363243,7.43178 -7.427163,7.43178 -4.06392,0 -7.427163,-3.36533 -7.427163,-7.43178 0,-4.06643 3.363243,-7.43178 7.427163,-7.43178 4.06392,0 7.427163,3.22511 7.427163,7.43178 z m -11.35095,6.30999 v 13.88202 m 7.84757,-13.88202 v 15.84512"
   style="fill:#6ebec1;stroke:#000000;stroke-width:1.59595525" /><path
   id="path2259"
   class="st1"
   d="m 55.973615,155.71195 c 0,4.06645 -3.363243,7.43178 -7.427162,7.43178 -4.06392,0 -7.427164,-3.36533 -7.427164,-7.43178 0,-4.06643 3.363244,-7.43178 7.427164,-7.43178 4.063919,-0.14022 7.427162,3.22511 7.427162,7.43178 z m -11.350946,6.30999 v 13.88202 m 7.707434,-13.88202 v 15.84512"
   style="fill:#6ebec1;stroke:#000000;stroke-width:1.59595525" /><path
   id="path2373"
   class="st1"
   d="m 40.979153,199.88197 c 0,-4.06645 3.363246,-7.43178 7.427165,-7.43178 4.06392,0 7.427163,3.36533 7.427163,7.43178 0,4.06645 -3.363243,7.4318 -7.427163,7.4318 -4.063919,0 -7.427165,-3.22512 -7.427165,-7.4318 z m 11.35095,-6.4502 v -13.88204 m -7.707434,13.88204 v -15.84513"
   style="fill:#6ebec1;stroke:#000000;stroke-width:1.59595525" /><path
   id="path2375"
   class="st1"
   d="m 55.973615,199.88197 c 0,-4.06645 3.363243,-7.43178 7.427163,-7.43178 4.063919,0 7.427164,3.36533 7.427164,7.43178 0,4.06645 -3.363245,7.4318 -7.427164,7.4318 -4.06392,0 -7.427163,-3.22512 -7.427163,-7.4318 z m 11.491082,-6.4502 v -13.88204 m -7.84757,13.88204 v -15.84513"
   style="fill:#6ebec1;stroke:#000000;stroke-width:1.59595525" /><path
   id="path2377"
   class="st1"
   d="m 71.108211,199.88197 c 0,-4.06645 3.363247,-7.43178 7.427164,-7.43178 4.063925,0 7.427165,3.36533 7.427165,7.43178 0,4.06645 -3.36324,7.4318 -7.427165,7.4318 -4.063917,0 -7.427164,-3.22512 -7.427164,-7.4318 z m 11.35095,-6.4502 v -13.88204 m -7.84757,13.88204 v -15.84513"
   style="fill:#6ebec1;stroke:#000000;stroke-width:1.59595525" /><path
   id="path2379"
   class="st1"
   d="m 86.102679,199.88197 c 0,-4.06645 3.36324,-7.43178 7.427154,-7.43178 4.063915,0 7.427157,3.36533 7.427157,7.43178 0,4.06645 -3.363242,7.4318 -7.427157,7.4318 -4.063914,0 -7.427154,-3.22512 -7.427154,-7.4318 z m 11.35094,-6.4502 v -13.88204 m -7.707442,13.88204 v -15.84513"
   style="fill:#6ebec1;stroke:#000000;stroke-width:1.59595525" /><path
   id="path2381"
   class="st1"
   d="m 101.09712,199.88197 c 0,-4.06645 3.36325,-7.43178 7.42717,-7.43178 4.06392,0 7.42718,3.36533 7.42718,7.43178 0,4.06645 -3.36326,7.4318 -7.42718,7.4318 -4.06392,0 -7.42717,-3.22512 -7.42717,-7.4318 z m 11.35097,-6.4502 v -13.88204 m -7.70745,13.88204 v -15.84513"
   style="fill:#6ebec1;stroke:#000000;stroke-width:1.59595525" /><path
   id="path2383"
   class="st1"
   d="m 116.23174,199.88197 c 0,-4.06645 3.36323,-7.43178 7.42715,-7.43178 4.06392,0 7.42715,3.36533 7.42715,7.43178 0,4.06645 -3.36323,7.4318 -7.42715,7.4318 -4.06392,0 -7.42715,-3.22512 -7.42715,-7.4318 z m 11.35093,-6.4502 v -13.88204 m -7.84757,13.88204 v -15.84513"
   style="fill:#6ebec1;stroke:#000000;stroke-width:1.59595525" /><path
   id="path2385"
   class="st1"
   d="m 131.2262,199.88197 c 0,-4.06645 3.36323,-7.43178 7.42716,-7.43178 4.06393,0 7.42716,3.36533 7.42716,7.43178 0,4.06645 -3.36323,7.4318 -7.42716,7.4318 -4.06393,0 -7.42716,-3.22512 -7.42716,-7.4318 z m 11.35094,-6.4502 v -13.88204 m -7.70744,13.88204 v -15.84513"
   style="fill:#6ebec1;stroke:#000000;stroke-width:1.59595525" /><path
   id="path2387"
   class="st1"
   d="m 146.22064,199.88197 c 0,-4.06645 3.36325,-7.43178 7.42715,-7.43178 4.06393,0 7.42716,3.36533 7.42716,7.43178 0,4.06645 -3.36323,7.4318 -7.42716,7.4318 -4.0639,0 -7.42715,-3.22512 -7.42715,-7.4318 z m 11.35094,-6.4502 v -13.88204 m -7.70741,13.88204 v -15.84513"
   style="fill:#6ebec1;stroke:#000000;stroke-width:1.59595525" /><path
   id="path2389"
   class="st1"
   d="m 161.21508,199.88197 c 0,-4.06645 3.36327,-7.43178 7.42717,-7.43178 4.06393,0 7.42717,3.36533 7.42717,7.43178 0,4.06645 -3.36324,7.4318 -7.42717,7.4318 -4.0639,0 -7.42717,-3.22512 -7.42717,-7.4318 z m 11.4911,-6.4502 v -13.88204 m -7.84758,13.88204 v -15.84513"
   style="fill:#6ebec1;stroke:#000000;stroke-width:1.59595525" /><path
   id="path2391"
   class="st1"
   d="m 176.3497,199.88197 c 0,-4.06645 3.36325,-7.43178 7.42715,-7.43178 4.0639,0 7.42717,3.36533 7.42717,7.43178 0,4.06645 -3.36327,7.4318 -7.42717,7.4318 -4.0639,0 -7.42715,-3.22512 -7.42715,-7.4318 z m 11.35093,-6.4502 v -13.88204 m -7.84755,13.88204 v -15.84513"
   style="fill:#6ebec1;stroke:#000000;stroke-width:1.59595525" /><path
   id="path2393"
   class="st1"
   d="m 191.34416,199.88197 c 0,-4.06645 3.36323,-7.43178 7.42715,-7.43178 4.06393,0 7.42717,3.36533 7.42717,7.43178 0,4.06645 -3.36324,7.4318 -7.42717,7.4318 -4.06392,0 -7.42715,-3.22512 -7.42715,-7.4318 z m 11.35092,-6.4502 v -13.88204 m -7.7074,13.88204 v -15.84513"
   style="fill:#6ebec1;stroke:#000000;stroke-width:1.59595525" /><path
   id="path2395"
   class="st1"
   d="m 206.33863,199.88197 c 0,-4.06645 3.36323,-7.43178 7.42716,-7.43178 4.06391,0 7.42714,3.36533 7.42714,7.43178 0,4.06645 -3.36323,7.4318 -7.42714,7.4318 -4.06393,0 -7.42716,-3.22512 -7.42716,-7.4318 z m 11.35095,-6.4502 v -13.88204 m -7.70745,13.88204 v -15.84513"
   style="fill:#6ebec1;stroke:#000000;stroke-width:1.59595525" /><path
   id="path2397"
   class="st1"
   d="m 221.4732,199.88197 c 0,-4.06645 3.36326,-7.43178 7.42719,-7.43178 4.06389,0 7.42714,3.36533 7.42714,7.43178 0,4.06645 -3.36325,7.4318 -7.42714,7.4318 -4.06393,0 -7.42719,-3.22512 -7.42719,-7.4318 z m 11.35095,-6.4502 v -13.88204 m -7.84757,13.88204 v -15.84513"
   style="fill:#6ebec1;stroke:#000000;stroke-width:1.59595525" /><path
   id="path2399"
   class="st1"
   d="m 236.46766,199.88197 c 0,-4.06645 3.36328,-7.43178 7.42718,-7.43178 4.06392,0 7.42716,3.36533 7.42716,7.43178 0,4.06645 -3.36324,7.4318 -7.42716,7.4318 -4.0639,0 -7.42718,-3.22512 -7.42718,-7.4318 z m 11.35097,-6.4502 v -13.88204 m -7.70744,13.88204 v -15.84513"
   style="fill:#6ebec1;stroke:#000000;stroke-width:1.59595525" /><path
   id="path2401"
   class="st1"
   d="m 251.46213,199.88197 c 0,-4.06645 3.36324,-7.43178 7.42716,-7.43178 4.06393,0 7.42717,3.36533 7.42717,7.43178 0,4.06645 -3.36324,7.4318 -7.42717,7.4318 -4.06392,0 -7.42716,-3.22512 -7.42716,-7.4318 z m 11.35095,-6.4502 v -13.88204 m -7.70742,13.88204 v -15.84513"
   style="fill:#6ebec1;stroke:#000000;stroke-width:1.59595525" /><path
   id="path2403"
   class="st1"
   d="m 266.45658,199.88197 c 0,-4.06645 3.36325,-7.43178 7.42718,-7.43178 4.06391,0 7.42717,3.36533 7.42717,7.43178 0,4.06645 -3.36326,7.4318 -7.42717,7.4318 -4.06393,0 -7.42718,-3.22512 -7.42718,-7.4318 z m 11.35096,-6.4502 v -13.88204 m -7.70744,13.88204 v -15.84513"
   style="fill:#6ebec1;stroke:#000000;stroke-width:1.59595525" /><path
   id="path2405"
   class="st1"
   d="m 281.59119,199.88197 c 0,-4.06645 3.36324,-7.43178 7.42716,-7.43178 4.06391,0 7.42716,3.36533 7.42716,7.43178 0,4.06645 -3.36325,7.4318 -7.42716,7.4318 -4.06392,0 -7.42716,-3.22512 -7.42716,-7.4318 z m 11.35093,-6.4502 v -13.88204 m -7.84757,13.88204 v -15.84513"
   style="fill:#6ebec1;stroke:#000000;stroke-width:1.59595525" /><path
   id="path2407"
   class="st1"
   d="m 296.58566,199.88197 c 0,-4.06645 3.36322,-7.43178 7.42716,-7.43178 4.06391,0 7.42717,3.36533 7.42717,7.43178 0,4.06645 -3.36326,7.4318 -7.42717,7.4318 -4.06394,0 -7.42716,-3.22512 -7.42716,-7.4318 z m 11.35094,-6.4502 v -13.88204 m -7.70743,13.88204 v -15.84513"
   style="fill:#6ebec1;stroke:#000000;stroke-width:1.59595525" /><path
   id="path2409"
   class="st1"
   d="m 311.58013,199.88197 c 0,-4.06645 3.36323,-7.43178 7.42714,-7.43178 4.06392,0 7.42717,3.36533 7.42717,7.43178 0,4.06645 -3.36325,7.4318 -7.42717,7.4318 -4.06391,0 -7.42714,-3.22512 -7.42714,-7.4318 z m 11.35091,-6.4502 v -13.88204 m -7.70741,13.88204 v -15.84513"
   style="fill:#6ebec1;stroke:#000000;stroke-width:1.59595525" /><path
   id="path2411"
   class="st1"
   d="m 326.71472,199.88197 c 0,-4.06645 3.36323,-7.43178 7.42715,-7.43178 4.06391,0 7.42715,3.36533 7.42715,7.43178 0,4.06645 -3.36324,7.4318 -7.42715,7.4318 -4.06392,0 -7.42715,-3.22512 -7.42715,-7.4318 z m 11.35095,-6.4502 v -13.88204 m -7.84759,13.88204 v -15.84513"
   style="fill:#6ebec1;stroke:#000000;stroke-width:1.59595525" /><path
   id="path2413"
   class="st1"
   d="m 341.70918,199.88197 c 0,-4.06645 3.36324,-7.43178 7.42716,-7.43178 4.06391,0 7.42716,3.36533 7.42716,7.43178 0,4.06645 -3.36325,7.4318 -7.42716,7.4318 -4.06392,0 -7.42716,-3.22512 -7.42716,-7.4318 z m 11.35093,-6.4502 v -13.88204 m -7.70741,13.88204 v -15.84513"
   style="fill:#6ebec1;stroke:#000000;stroke-width:1.59595525" /><path
   id="path2415"
   class="st1"
   d="m 356.70364,199.88197 c 0,-4.06645 3.36321,-7.43178 7.42717,-7.43178 4.06391,0 7.42716,3.36533 7.42716,7.43178 0,4.06645 -3.36325,7.4318 -7.42716,7.4318 -4.06396,0 -7.42717,-3.22512 -7.42717,-7.4318 z m 11.35094,-6.4502 v -13.88204 m -7.70743,13.88204 v -15.84513"
   style="fill:#6ebec1;stroke:#000000;stroke-width:1.59595525" /><path
   id="path2417"
   class="st1"
   d="m 371.6981,199.88197 c 0,-4.06645 3.36321,-7.43178 7.42716,-7.43178 4.06392,0 7.42717,3.36533 7.42717,7.43178 0,4.06645 -3.36325,7.4318 -7.42717,7.4318 -4.06395,0 -7.42716,-3.22512 -7.42716,-7.4318 z m 11.35094,-6.4502 v -13.88204 m -7.70743,13.88204 v -15.84513"
   style="fill:#6ebec1;stroke:#000000;stroke-width:1.59595525" /><path
   id="path2419"
   class="st1"
   d="m 386.83272,199.88197 c 0,-4.06645 3.36321,-7.43178 7.42715,-7.43178 4.0639,0 7.42715,3.36533 7.42715,7.43178 0,4.06645 -3.36325,7.4318 -7.42715,7.4318 -4.06394,0 -7.42715,-3.22512 -7.42715,-7.4318 z m 11.35093,-6.4502 v -13.88204 m -7.84758,13.88204 v -15.84513"
   style="fill:#6ebec1;stroke:#000000;stroke-width:1.59595525" />









<path
   transform="matrix(1.1353097,0,0,1.1353097,-394.21285,-56.600751)"
   id="path1160"
   d="m 496.10222,171.41976 c -0.88516,5.46317 1.24647,14.25964 2.66501,21.35208 1.41853,7.09244 2.12347,12.47905 0.43731,19.87061 -1.68617,7.39156 -5.76429,16.78896 -4.56729,22.44123 1.19701,5.65226 7.66891,7.55822 11.39197,10.08428 3.72306,2.52605 4.69773,5.67179 5.52367,7.3772 0.82594,1.70541 1.50117,1.96705 6.27728,2.24595 4.77612,0.27891 13.65248,0.57517 18.36761,0.0449 4.71514,-0.53028 5.26957,-1.88587 5.92334,-3.62697 0.65377,-1.7411 1.40773,-3.86994 3.62443,-5.46526 2.21669,-1.59531 5.89574,-2.65907 8.79872,-3.36812 2.90299,-0.70905 5.03133,-1.06378 5.47395,-4.25555 0.44262,-3.19178 -0.79852,-9.22014 -2.03956,-15.514 -1.24104,-6.29386 -2.48236,-12.8551 -1.77289,-20.56807 0.70947,-7.71297 3.36905,-16.57822 4.34401,-22.3402 0.97495,-5.76197 0.26558,-8.42211 -1.76131,-10.59035 -2.02689,-2.16823 -5.37245,-3.84638 -10.69166,-5.35357 -5.31921,-1.5072 -12.61236,-2.84333 -20.15866,-3.15685 -7.5463,-0.31352 -15.34735,0.39566 -21.19916,1.81402 -5.85181,1.41836 -9.75162,3.54553 -10.63677,9.00869 z"
   style="fill:#f8eab1;fill-opacity:1;stroke:#000000;stroke-width:1.29999995;stroke-linecap:butt;stroke-linejoin:miter;stroke-miterlimit:4;stroke-dasharray:none;stroke-opacity:1" /><g
   style="stroke-width:0.88391954"
   transform="matrix(1.3129237,0,0,1.2565036,-1.6211554,-80.070524)"
   id="g5032"><path
     id="path5023"
     d="m 130.70612,268.89387 v -7.78751 a 25.154361,8.0895489 0 0 1 -0.0195,-0.17609 25.154361,8.0895489 0 0 1 25.15444,-8.0899 25.154361,8.0895489 0 0 1 25.15442,8.0899 25.154361,8.0895489 0 0 1 -0.037,0.23783 v 7.66404 a 25.154361,8.0895489 0 0 0 -25.11748,-7.85206 25.154361,8.0895489 0 0 0 -25.13498,7.91379 z"
     style="opacity:1;vector-effect:none;fill:#d35f5f;fill-opacity:1;stroke:none;stroke-width:1.1490953;stroke-linecap:butt;stroke-linejoin:round;stroke-miterlimit:4;stroke-dasharray:none;stroke-dashoffset:0;stroke-opacity:1;paint-order:normal" /><path
     id="path5025"
     d="m 130.74349,260.86918 v 7.78686 a 25.154361,8.0895489 0 0 0 -0.0195,0.17582 25.154361,8.0895489 0 0 0 11.40234,6.77081 v -8.14695 a 25.154361,8.0895489 0 0 1 -11.38284,-6.58654 z m 50.25195,0.0609 a 25.154361,8.0895489 0 0 1 -20.05468,7.67528 v 8.15034 a 25.154361,8.0895489 0 0 0 20.09179,-7.9238 25.154361,8.0895489 0 0 0 -0.0371,-0.23837 z"
     style="opacity:1;vector-effect:none;fill:#782121;fill-opacity:1;stroke:none;stroke-width:1.1490953;stroke-linecap:butt;stroke-linejoin:round;stroke-miterlimit:4;stroke-dasharray:none;stroke-dashoffset:0;stroke-opacity:1;paint-order:normal" /><path
     id="path5027"
     d="m 163.22805,263.18128 -11.44762,8.80019 11.44762,8.8002 -0.10005,-8.80019 z"
     style="opacity:1;vector-effect:none;fill:#782121;fill-opacity:1;stroke:none;stroke-width:1.1490953;stroke-linecap:butt;stroke-linejoin:round;stroke-miterlimit:4;stroke-dasharray:none;stroke-dashoffset:0;stroke-opacity:1;paint-order:normal" /></g><path
   id="path4874-5-0"
   d="m 169.986,257.79563 v -9.78504 a 33.025755,10.164547 0 0 1 -0.0256,-0.22128 33.025755,10.164547 0 0 1 33.02586,-10.16497 33.025755,10.164547 0 0 1 33.02583,10.16497 33.025755,10.164547 0 0 1 -0.0486,0.29886 v 9.62988 a 33.025755,10.164547 0 0 0 -32.97733,-9.86613 33.025755,10.164547 0 0 0 -33.00029,9.94371 z"
   style="opacity:1;vector-effect:none;fill:#d35f5f;fill-opacity:1;stroke:none;stroke-width:1.47590256;stroke-linecap:butt;stroke-linejoin:round;stroke-miterlimit:4;stroke-dasharray:none;stroke-dashoffset:0;stroke-opacity:1;paint-order:normal" /><path
   transform="matrix(1.1353097,0,0,1.1353097,-571.15208,-42.107436)"
   id="path1164"
   d="m 668.72872,246.23335 c 0.40127,-2.8657 1.61356,-3.09465 5.47974,-3.16516 3.86619,-0.0705 10.38831,0.0171 14.70959,-0.0121 4.32129,-0.0292 6.43894,-0.17518 7.32629,1.01737 0.88734,1.19255 0.54391,3.72473 0.20056,6.25635 -0.0561,2.72693 -0.11504,5.5921 -0.39396,8.48425 -0.27891,2.89215 -0.838,6.43299 -1.10404,10.95528 -0.26605,4.52229 -0.26605,10.19415 -0.44336,17.02107 -0.17732,6.82693 -0.53186,14.80424 -0.97514,22.07416 -0.44328,7.26992 -0.97512,13.82935 -1.32977,19.32618 -0.35464,5.49683 -0.53192,9.92873 -1.59578,14.80516 -1.06386,4.87642 -3.01376,10.19433 -4.521,14.53868 -1.50724,4.34436 -2.57083,7.71239 -3.90052,9.92911 -1.32968,2.21671 -2.92486,3.28016 -4.16693,3.28011 -1.24207,-5e-5 -2.12796,-1.06311 -2.92585,-2.83632 -0.79789,-1.77322 -1.50718,-4.25572 -1.95034,-7.44684 -0.44317,-3.19111 -0.62052,-7.09286 -0.88649,-9.92943 -0.26597,-2.83657 -0.62066,-4.61005 -1.86101,-5.93916 -1.24035,-1.32911 -3.36893,-2.21602 -5.23104,-3.36874 -1.86211,-1.15273 -3.45748,-2.57083 -4.69876,-4.61022 -1.24129,-2.03939 -2.12778,-4.69886 -2.21621,-7.09254 -0.0884,-2.39367 0.62095,-4.52181 1.59604,-6.29439 0.97509,-1.77258 2.21693,-3.19182 3.5463,-4.34381 1.32938,-1.15198 2.74888,-2.03917 3.54613,-3.72271 0.79726,-1.68355 0.97471,-4.16786 1.2406,-7.62435 0.26588,-3.4565 0.62065,-7.89103 0.88656,-12.05721 0.26592,-4.16618 0.44326,-8.06783 0.53189,-12.05663 0.0886,-3.9888 0.0886,-8.0679 -2e-5,-11.96813 -0.0887,-3.90023 -0.266,-7.62454 -0.56002,-12.23783 -0.29402,-4.61328 -0.70473,-10.11645 -0.30346,-12.98216 z"
   style="fill:#e9c6af;fill-opacity:1;stroke:#000000;stroke-width:1.29999995;stroke-linecap:butt;stroke-linejoin:miter;stroke-miterlimit:4;stroke-dasharray:none;stroke-opacity:1" /><path
   transform="matrix(1.2073517,0,0,1.1353097,-630.79224,-45.543285)"
   id="path1172"
   d="m 737.90451,165.4765 c -1.45718,0.58287 -3.60612,1.44245 -5.16105,2.70609 -1.55493,1.26364 -1.69819,2.26648 -1.60089,4.30704 0.0973,2.04057 0.38383,4.04624 1.16122,7.44698 0.7774,3.40075 1.63697,6.40926 2.21978,10.10136 0.58281,3.69211 0.58281,6.12757 -0.38892,10.20818 -0.97174,4.08061 -2.40437,7.66218 -4.15329,11.54862 -1.74893,3.88644 -2.89503,6.03538 -4.25531,8.46442 -1.36027,2.42904 -2.21984,3.86168 -2.51115,6.58266 -0.2913,2.72099 0.13848,5.29971 1.11062,7.33983 0.97214,2.04011 1.97498,2.4699 3.23791,3.539 1.26294,1.06909 2.12251,2.21519 2.21917,5.12989 0.0967,2.9147 -0.61965,6.06648 -1.10538,9.85597 -0.48573,3.78949 -0.48573,6.22496 -0.19418,10.40302 0.29155,4.17806 0.72134,7.90289 1.7903,12.46961 1.06896,4.56672 2.21506,7.57523 3.38099,10.7816 1.16592,3.20638 1.73898,4.92554 2.51628,7.25745 0.7773,2.33191 1.35036,4.05107 2.32196,7.25745 0.9716,3.20637 1.83117,6.21488 2.80274,10.29571 0.97157,4.08083 1.54462,7.08935 2.12754,11.26733 0.58292,4.17797 0.86945,7.32975 0.77217,11.21614 -0.0973,3.88638 -0.52707,6.46511 -1.30439,10.35159 -0.77732,3.88648 -1.49364,7.03828 -2.27093,10.63332 -0.7773,3.59505 -1.20709,5.74399 -2.56733,8.46421 -1.36024,2.72023 -2.93614,4.58265 -6.04538,8.66354 -3.10925,4.0809 -6.11776,8.23551 -10.39268,12.21901 -4.27492,3.9835 -7.56997,5.70265 -12.13647,7.4516 -4.56649,1.74894 -8.00479,2.60852 -12.96004,3.58017 -4.95526,0.97166 -8.82336,1.54471 -13.2927,1.64203 -4.46935,0.0973 -7.19135,-0.33248 -9.71815,0.0561 -2.5268,0.38856 -3.52965,1.39141 -3.62651,3.23811 -0.0969,1.84669 0.76271,3.56584 2.6091,5.02282 1.84638,1.45698 3.70879,1.88677 6.13785,2.37254 2.42905,0.48578 4.14822,0.77231 6.86871,0.96654 2.7205,0.19423 5.0127,0.19423 8.70476,-0.29167 3.69207,-0.48589 6.84385,-1.20221 11.99345,-2.5625 5.14961,-1.3603 9.59074,-2.64966 14.74021,-4.78724 5.14947,-2.13759 8.30125,-4 11.89619,-6.42904 3.59494,-2.42903 5.74389,-4.14819 8.85301,-7.25731 3.10911,-3.10912 5.54458,-5.97438 7.97358,-9.86069 2.42901,-3.8863 3.57511,-6.75156 4.7411,-10.83227 1.16599,-4.08071 1.73904,-7.2325 2.2249,-11.11894 0.48587,-3.88645 0.62913,-6.46517 0.72632,-11.12896 0.0972,-4.6638 0.0972,-8.96169 4e-5,-15.37444 -0.0971,-6.41274 -0.24041,-11.5702 -1.30904,-18.1772 -1.06862,-6.607 -2.50125,-11.19141 -4.15304,-16.82688 -1.6518,-5.63546 -2.65464,-9.36029 -4.01487,-13.82978 -1.36023,-4.46949 -2.36307,-7.33475 -3.04342,-12.09584 -0.68035,-4.76109 -0.68035,-8.9157 -0.68035,-13.67669 0,-4.76099 0,-7.62625 0.38858,-11.90152 0.38859,-4.27527 0.96164,-7.71357 2.76867,-11.91355 1.80703,-4.19998 3.89855,-6.95414 5.75203,-10.5835 1.85348,-3.62935 2.49324,-6.22089 2.92144,-10.27095 0.4282,-4.05006 0.4189,-7.41882 0.84241,-12.29699 0.42351,-4.87817 1.05588,-8.68693 1.59871,-14.30262 0.54283,-5.6157 0.70962,-10.07433 -2.83047,-13.42611 -3.54008,-3.35178 -8.92143,-3.82947 -12.57501,-4.15378 -3.65359,-0.32432 -3.6536,-0.32432 -5.11079,0.25856 z"
   style="fill:#bdd1d1;fill-opacity:1;stroke:#000000;stroke-width:1.26061833;stroke-linecap:butt;stroke-linejoin:miter;stroke-miterlimit:4;stroke-dasharray:none;stroke-opacity:1" /><path
   id="path1294"
   d="m 268.18586,173.66618 a 17.046402,33.766054 0 0 1 -17.04642,33.76605 17.046402,33.766054 0 0 1 -17.04639,-33.76605 17.046402,33.766054 0 0 1 17.04639,-33.76607 17.046402,33.766054 0 0 1 17.04642,33.76607 z"
   style="opacity:1;vector-effect:none;fill:#cccccc;fill-opacity:1;stroke:#08131c;stroke-width:1.47590256;stroke-linecap:butt;stroke-linejoin:round;stroke-miterlimit:4;stroke-dasharray:none;stroke-dashoffset:0;stroke-opacity:1;paint-order:normal" /><path
   transform="matrix(1.1353097,0,0,1.1353097,-572.96374,-43.919102)"
   id="path1168"
   d="m 659.66381,279.86534 c 1.59507,1.06373 2.83621,3.54601 3.54553,7.71286 0.70932,4.16686 0.88659,10.01698 0.97526,14.09517 0.0887,4.07818 0.0887,6.38276 -0.35445,8.33337 -0.44313,1.95061 -1.32927,3.54566 -2.74817,4.78745 -1.41889,1.24178 -3.36779,2.12765 -4.78688,3.72378 -1.41908,1.59613 -2.30506,3.89967 -2.83723,7.09231 -0.53217,3.19263 -0.70938,7.26851 0.70944,10.72686 1.41881,3.45834 4.43223,6.2945 6.56003,8.06762 1.59567,1.3297 2.83678,2.03889 4.43246,3.36859 1.06351,0.88625 1.95027,1.95036 2.4822,3.90042 0.53193,1.95007 0.70922,4.78669 0.97522,7.62407 0.26599,2.83738 0.62048,5.67333 0.88647,7.88988 0.26599,2.21655 0.44324,3.81181 1.15282,5.31969 0.70958,1.50788 1.95003,2.92554 3.90098,3.6348 1.95095,0.70925 4.61039,0.70925 5.93968,0.70925 1.32929,0 7.18035,-5.85106 8.06673,-7.53519 0.88639,-1.68413 2.66035,-5.05465 4.1671,-8.68871 1.50675,-3.63406 2.74833,-7.53616 3.81194,-11.70212 1.06362,-4.16597 1.95042,-8.59995 2.74816,-13.29787 0.79774,-4.69792 1.50715,-9.66376 1.77303,-14.18449 0.26587,-4.52073 0.0885,-8.59966 -0.1774,-13.47487 -0.26593,-4.87522 -0.62062,-10.5503 -0.79789,-15.33725 -0.17728,-4.78695 -0.17728,-8.68829 1.06412,-11.43619 1.2414,-2.7479 3.7243,-4.34405 6.64891,-4.96429 2.9246,-0.62023 6.29497,-0.26545 8.95391,0.70952 2.65893,0.97496 4.6098,2.57113 7.00326,4.87595 2.39347,2.30482 5.23051,5.31917 7.35809,8.59909 2.12758,3.27992 3.546,6.82598 4.96455,10.72696 1.41855,3.90097 2.83678,8.15567 3.63474,11.79047 0.79795,3.6348 0.97523,6.64856 1.24123,10.46134 0.26601,3.81278 0.62051,8.42128 0.70921,12.32223 0.0887,3.90096 -0.0886,7.09182 -0.35456,10.3725 -0.26598,3.28067 -0.62047,6.64835 -1.59576,10.63841 -0.97529,3.99005 -2.57052,8.59849 -4.07754,11.70161 -1.50701,3.10312 -2.92508,4.69845 -5.67456,6.91583 -2.74947,2.21738 -6.82478,5.05238 -11.0807,7.71237 -4.25592,2.65999 -8.6873,5.14156 -12.4111,7.00351 -3.72379,1.86195 -6.73717,3.10276 -10.37284,3.9009 -3.63567,0.79815 -7.88928,1.15261 -12.23386,1.32996 -4.34457,0.17735 -8.77607,0.17735 -13.56411,-0.79794 -4.78805,-0.97529 -9.92873,-2.92521 -14.18444,-5.23036 -4.2557,-2.30516 -7.62413,-4.96445 -10.72711,-7.80146 -3.10297,-2.83701 -5.93974,-5.85108 -8.59936,-9.13128 -2.65961,-3.28021 -5.14191,-6.82635 -7.44684,-10.54971 -2.30493,-3.72337 -4.43271,-7.62431 -6.0284,-11.25904 -1.5957,-3.63474 -2.65963,-7.00383 -3.19144,-10.81568 -0.53182,-3.81186 -0.53182,-8.06797 8e-5,-12.94328 0.5319,-4.87532 1.59598,-10.37306 3.28035,-15.24852 1.68437,-4.87547 3.98981,-9.13167 6.02867,-12.41145 2.03887,-3.27978 3.81241,-5.58539 6.73708,-8.42135 2.92466,-2.83596 7.00465,-6.20638 10.19587,-8.15635 3.19122,-1.94997 5.4968,-2.48203 7.62395,-2.92517 2.12715,-0.44314 4.07849,-0.79793 5.67357,0.2658 z"
   style="fill:#b6c8b1;fill-opacity:1;fill-rule:nonzero;stroke:#000000;stroke-width:1.29999995;stroke-linecap:butt;stroke-linejoin:miter;stroke-miterlimit:4;stroke-dasharray:none;stroke-opacity:1" /><path
   id="path4874-5"
   d="m 170.03506,247.71258 v 9.7842 a 33.025755,10.164547 0 0 0 -0.0255,0.22093 33.025755,10.164547 0 0 0 14.9704,8.50753 v -10.23666 a 33.025755,10.164547 0 0 1 -14.94479,-8.276 z m 65.97697,0.0765 a 33.025755,10.164547 0 0 1 -26.33026,9.64403 v 10.24092 a 33.025755,10.164547 0 0 0 26.37898,-9.95629 33.025755,10.164547 0 0 0 -0.0487,-0.2995 z"
   style="opacity:1;vector-effect:none;fill:#782121;fill-opacity:1;stroke:none;stroke-width:1.47590256;stroke-linecap:butt;stroke-linejoin:round;stroke-miterlimit:4;stroke-dasharray:none;stroke-dashoffset:0;stroke-opacity:1;paint-order:normal" /><path
   id="rect5001"
   d="m 212.6848,250.61773 -15.02984,11.05747 15.02984,11.05748 -0.13136,-11.05747 z"
   style="opacity:1;vector-effect:none;fill:#782121;fill-opacity:1;stroke:none;stroke-width:1.47590256;stroke-linecap:butt;stroke-linejoin:round;stroke-miterlimit:4;stroke-dasharray:none;stroke-dashoffset:0;stroke-opacity:1;paint-order:normal" /><path
   id="path5100"
   d="m 234.3022,172.68598 c 42.48923,17.83631 3.84289,77.60038 78.30705,72.3692"
   style="fill:none;stroke:#000000;stroke-width:2.27061939;stroke-linecap:butt;stroke-linejoin:miter;stroke-miterlimit:4;stroke-dasharray:none;stroke-opacity:1;marker-end:url(#marker1133)" /><path
   id="rect5294"
   d="m 236.53888,178.08144 7.34617,-8.38822 5.46865,4.56312 -7.34617,8.38822 z"
   style="opacity:1;vector-effect:none;fill:#cccccc;fill-opacity:1;stroke:none;stroke-width:1.59557509;stroke-linecap:butt;stroke-linejoin:round;stroke-miterlimit:4;stroke-dasharray:none;stroke-dashoffset:0;stroke-opacity:1;paint-order:normal" /><path
   id="path5074"
   d="m 253.46329,115.51048 c 0.2368,17.79216 0.35184,39.17492 -5.67819,52.94896 -4.90467,11.20349 -14.70097,16.23998 -22.47586,18.06142 -6.33539,2.06356 -24.3823,2.21869 -39.64752,0.77969 -20.06404,-1.89135 -35.02117,-8.94753 -12.56538,-15.63304"
   style="fill:none;stroke:#000000;stroke-width:2.27061939;stroke-linecap:butt;stroke-linejoin:miter;stroke-miterlimit:4;stroke-dasharray:none;stroke-opacity:1" /><path
   id="path5100-9"
   d="m 203.44839,188.73953 c -10.00445,-2.21104 7.37766,-0.68945 -5.26424,-0.78363"
   style="fill:none;stroke:#000000;stroke-width:1.98679173;stroke-linecap:butt;stroke-linejoin:miter;stroke-miterlimit:4;stroke-dasharray:none;stroke-opacity:1;marker-end:url(#marker1133-2)" /><path
   id="path2253-7"
   class="st1"
   d="m 39.303085,155.28012 c 0,4.06644 -3.363241,7.43177 -7.427161,7.43177 -4.06392,0 -7.427162,-3.36533 -7.427162,-7.43177 0,-4.06644 3.363242,-7.43178 7.427162,-7.43178 4.06392,-0.14022 7.427161,3.22512 7.427161,7.43178 z m -11.350952,6.30999 v 13.88202 m 7.707437,-13.88202 v 15.84512"
   style="fill:#6ebec1;stroke:#000000;stroke-width:1.59595525" /><path
   id="path2255-8"
   class="st1"
   d="m 24.30863,155.28012 c 0,4.06644 -3.363252,7.43177 -7.427174,7.43177 -4.063908,0 -7.4271619,-3.36533 -7.4271619,-7.43177 0,-4.06644 3.3632539,-7.43178 7.4271619,-7.43178 4.063922,-0.14022 7.427174,3.22512 7.427174,7.43178 z m -11.491082,6.30999 v 13.88202 m 7.847566,-13.88202 v 15.84512"
   style="fill:#6ebec1;stroke:#000000;stroke-width:1.59595525" /><path
   id="path2257-1"
   class="st1"
   d="m 9.1740324,155.28012 c 0,4.06644 -3.3632414,7.43177 -7.4271626,7.43177 -4.0639202,0 -7.4271616,-3.36533 -7.4271616,-7.43177 0,-4.06644 3.3632414,-7.43178 7.4271616,-7.43178 4.0639212,0 7.4271626,3.22512 7.4271626,7.43178 z m -11.3509519,6.30999 v 13.88202 m 7.8475679,-13.88202 v 15.84512"
   style="fill:#6ebec1;stroke:#000000;stroke-width:1.59595525" /><path
   id="path2375-6"
   class="st1"
   d="m -5.8204344,199.45013 c 0,-4.06644 3.3632414,-7.43177 7.4271626,-7.43177 4.0639202,0 7.4271724,3.36533 7.4271724,7.43177 0,4.06645 -3.3632522,7.43178 -7.4271724,7.43178 -4.0639212,0 -7.4271626,-3.22511 -7.4271626,-7.43178 z m 11.4910828,-6.45021 v -13.88203 m -7.8475679,13.88203 V 177.1548"
   style="fill:#6ebec1;stroke:#000000;stroke-width:1.59595525" /><path
   id="path2377-1"
   class="st1"
   d="m 9.3141633,199.45013 c 0,-4.06644 3.3632547,-7.43177 7.4271627,-7.43177 4.063921,0 7.427162,3.36533 7.427162,7.43177 0,4.06645 -3.363241,7.43178 -7.427162,7.43178 -4.063908,0 -7.4271627,-3.22511 -7.4271627,-7.43178 z m 11.3509507,-6.45021 v -13.88203 m -7.847566,13.88203 V 177.1548"
   style="fill:#6ebec1;stroke:#000000;stroke-width:1.59595525" /><path
   id="path2379-2"
   class="st1"
   d="m 24.30863,199.45013 c 0,-4.06644 3.363242,-7.43177 7.427162,-7.43177 4.063909,0 7.427162,3.36533 7.427162,7.43177 0,4.06645 -3.363253,7.43178 -7.427162,7.43178 -4.06392,0 -7.427162,-3.22511 -7.427162,-7.43178 z m 11.35094,-6.45021 v -13.88203 m -7.707437,13.88203 V 177.1548"
   style="fill:#6ebec1;stroke:#000000;stroke-width:1.59595525" /><path
   id="path5362"
   d="m 114.67476,338.07651 c 77.6224,-11.34405 51.49449,14.95121 20.35204,44.688"
   style="fill:none;stroke:#000000;stroke-width:1.67168534;stroke-linecap:butt;stroke-linejoin:miter;stroke-miterlimit:4;stroke-dasharray:none;stroke-opacity:1;marker-end:url(#marker1133)" /><g
   style="opacity:0.68199978"
   id="g5697"
   transform="matrix(1.7012996,-0.05476322,0.24449813,1.6331956,-7812.7091,-144.35865)"><path
     style="fill:#df7f00;fill-opacity:1;stroke:none"
     d="m 4586.191,483.98464 3.2303,-6.29632 2.2408,6.40087 6.6279,-5.50871 -0.479,7.37214 9.0742,-0.62449 -7.3957,5.10551 4.5227,4.62733 -8.0629,0.19564 3.9649,7.98933 -7.8562,-5.75048 -2.9998,5.97435 -1.9279,-4.50135 -3.7294,6.25571 -1.4435,-8.80632 -5.6396,6.52618 0.9652,-6.82143 -5.9168,2.67029 3.1181,-5.70915 -4.5424,-2.75488 6.2296,-0.77077 -4.941,-7.30212 7.5082,3.59256 -0.5582,-5.92321 4.2098,2.72781 1.4095,-5.16678 z"
     id="path5666-9" /><path
     transform="matrix(0.33202155,0.01113312,-0.04786281,0.3330454,3065.3919,-195.53884)"
     style="fill:#eeb100;fill-opacity:1;stroke:none"
     d="m 4847.217,1873.6162 6.0609,-19.4454 10.3539,18.4353 16.6676,-17.9302 2.7778,21.9709 26.7691,-4.0407 -19.1929,16.9201 16.1624,12.6269 -23.9911,2.5254 16.415,22.7284 -26.769,-15.1523 -5.5559,18.4353 -8.3337,-12.8795 -7.5762,19.4454 -9.3439,-25.7588 -13.132,20.7081 -1.0101,-20.4556 -16.1625,9.3439 6.0609,-17.6776 -15.1522,-7.0711 18.1827,-3.7881 -18.9404,-20.4556 24.4962,8.8389 -5.0508,-17.4252 14.1422,7.0711 1.2627,-15.6574 z"
     id="path5666" /></g><g
   transform="matrix(1.1144568,0,0,1.1144568,-12.879141,-18.305115)"
   id="text1186"
   style="font-style:normal;font-variant:normal;font-weight:600;font-stretch:normal;font-size:74.66666412px;line-height:1.25;font-family:'Myriad Pro';-inkscape-font-specification:'Myriad Pro, Semi-Bold';font-variant-ligatures:normal;font-variant-caps:normal;font-variant-numeric:normal;font-feature-settings:normal;text-align:start;letter-spacing:0px;word-spacing:0px;writing-mode:lr-tb;text-anchor:start;fill:#000000;fill-opacity:1;stroke:none"
   aria-label="ATP"><path
     id="path1539"
     style="font-size:21.33333397px"
     d="m 103.70602,382.12321 1.30133,4.07467 h 2.816 l -4.672,-14.37867 h -3.349332 l -4.608001,14.37867 h 2.709334 l 1.237333,-4.07467 z m -4.138669,-1.984 1.109329,-3.54133 c 0.256,-0.85334 0.46934,-1.856 0.68267,-2.688 h 0.0427 c 0.21333,0.832 0.448,1.81333 0.72533,2.688 l 1.13067,3.54133 z" /><path
     id="path1541"
     style="font-size:21.33333397px"
     d="m 110.88768,386.19788 h 2.624 v -12.18134 h 4.13867 v -2.19733 h -10.85867 v 2.19733 h 4.096 z" /><path
     id="path1543"
     style="font-size:21.33333397px"
     d="m 119.34402,386.19788 h 2.60266 v -5.41867 c 0.34134,0.064 0.78934,0.0853 1.28,0.0853 1.856,0 3.49867,-0.49066 4.54401,-1.536 0.81066,-0.768 1.23733,-1.89866 1.23733,-3.264 0,-1.344 -0.55467,-2.47466 -1.408,-3.17866 -0.91733,-0.768 -2.32534,-1.17334 -4.24534,-1.17334 -1.77066,0 -3.072,0.128 -4.01066,0.29867 z m 2.60266,-12.352 c 0.27734,-0.064 0.78934,-0.128 1.51467,-0.128 1.81333,0 2.92267,0.85333 2.92267,2.45333 0,1.68533 -1.19467,2.64533 -3.15734,2.64533 -0.53333,0 -0.96,-0.0213 -1.28,-0.10666 z" /></g><path
   id="rect2691-3"
   d="m 203.09743,32.827971 h 39.52681 v 33.52287 h -39.52681 z"
   style="opacity:1;vector-effect:none;fill:#f1e1a7;fill-opacity:0.73869348;stroke:none;stroke-width:2.00602245;stroke-linecap:butt;stroke-linejoin:round;stroke-miterlimit:4;stroke-dasharray:none;stroke-dashoffset:0;stroke-opacity:1;paint-order:normal" /><g
   transform="matrix(1.1707946,0,0,1.1707988,-447.76201,-307.66021)"
   id="text2615-1-3-0"
   style="font-style:normal;font-variant:normal;font-weight:600;font-stretch:normal;font-size:74.66666412px;line-height:1.25;font-family:'Myriad Pro';-inkscape-font-specification:'Myriad Pro, Semi-Bold';font-variant-ligatures:normal;font-variant-caps:normal;font-variant-numeric:normal;font-feature-settings:normal;text-align:start;letter-spacing:0px;word-spacing:0px;writing-mode:lr-tb;text-anchor:start;fill:#000000;fill-opacity:1;stroke:none;stroke-width:0.95187908"
   aria-label="H+"><path
     id="path8519"
     style="font-style:normal;font-variant:normal;font-weight:normal;font-stretch:normal;font-size:21.33333397px;font-family:'Myriad Pro';-inkscape-font-specification:'Myriad Pro';stroke-width:0.95187908"
     d="m 563.82263,298.14691 v 14.37866 h 1.856 v -6.74133 h 6.95466 v 6.74133 h 1.87734 v -14.37866 h -1.87734 v 6.016 h -6.95466 v -6.016 z" /><path
     id="path8521"
     style="font-size:64.99999762%;baseline-shift:super;stroke-width:0.95187908"
     d="m 579.80649,296.61517 v 3.25867 h -3.13386 v 0.832 h 3.13386 v 3.2864 h 0.88747 v -3.2864 h 3.13387 v -0.832 h -3.13387 v -3.25867 z" /></g><path
   id="rect2691-3-7"
   d="m 299.21196,69.976539 h 39.52682 V 103.4994 h -39.52682 z"
   style="opacity:1;vector-effect:none;fill:#f1e1a7;fill-opacity:0.73869348;stroke:none;stroke-width:2.00602245;stroke-linecap:butt;stroke-linejoin:round;stroke-miterlimit:4;stroke-dasharray:none;stroke-dashoffset:0;stroke-opacity:1;paint-order:normal" /><g
   transform="matrix(1.1707946,0,0,1.1707988,-351.64746,-270.51164)"
   id="text2615-1-3-0-3"
   style="font-style:normal;font-variant:normal;font-weight:600;font-stretch:normal;font-size:74.66666412px;line-height:1.25;font-family:'Myriad Pro';-inkscape-font-specification:'Myriad Pro, Semi-Bold';font-variant-ligatures:normal;font-variant-caps:normal;font-variant-numeric:normal;font-feature-settings:normal;text-align:start;letter-spacing:0px;word-spacing:0px;writing-mode:lr-tb;text-anchor:start;fill:#000000;fill-opacity:1;stroke:none;stroke-width:0.95187908"
   aria-label="H+"><path
     id="path8519-2"
     style="font-style:normal;font-variant:normal;font-weight:normal;font-stretch:normal;font-size:21.33333397px;font-family:'Myriad Pro';-inkscape-font-specification:'Myriad Pro';stroke-width:0.95187908"
     d="m 563.82263,298.14691 v 14.37866 h 1.856 v -6.74133 h 6.95466 v 6.74133 h 1.87734 v -14.37866 h -1.87734 v 6.016 h -6.95466 v -6.016 z" /><path
     id="path8521-7"
     style="font-size:64.99999762%;baseline-shift:super;stroke-width:0.95187908"
     d="m 579.80649,296.61517 v 3.25867 h -3.13386 v 0.832 h 3.13386 v 3.2864 h 0.88747 v -3.2864 h 3.13387 v -0.832 h -3.13387 v -3.25867 z" /></g><path
   id="rect2691-3-3"
   d="m 266.47047,24.003572 h 39.52682 v 33.522873 h -39.52682 z"
   style="opacity:1;vector-effect:none;fill:#f1e1a7;fill-opacity:0.73869348;stroke:none;stroke-width:2.00602245;stroke-linecap:butt;stroke-linejoin:round;stroke-miterlimit:4;stroke-dasharray:none;stroke-dashoffset:0;stroke-opacity:1;paint-order:normal" /><g
   transform="matrix(1.1707946,0,0,1.1707988,-384.38895,-316.48461)"
   id="text2615-1-3-0-30"
   style="font-style:normal;font-variant:normal;font-weight:600;font-stretch:normal;font-size:74.66666412px;line-height:1.25;font-family:'Myriad Pro';-inkscape-font-specification:'Myriad Pro, Semi-Bold';font-variant-ligatures:normal;font-variant-caps:normal;font-variant-numeric:normal;font-feature-settings:normal;text-align:start;letter-spacing:0px;word-spacing:0px;writing-mode:lr-tb;text-anchor:start;fill:#000000;fill-opacity:1;stroke:none;stroke-width:0.95187908"
   aria-label="H+"><path
     id="path8519-6"
     style="font-style:normal;font-variant:normal;font-weight:normal;font-stretch:normal;font-size:21.33333397px;font-family:'Myriad Pro';-inkscape-font-specification:'Myriad Pro';stroke-width:0.95187908"
     d="m 563.82263,298.14691 v 14.37866 h 1.856 v -6.74133 h 6.95466 v 6.74133 h 1.87734 v -14.37866 h -1.87734 v 6.016 h -6.95466 v -6.016 z" /><path
     id="path8521-0"
     style="font-size:64.99999762%;baseline-shift:super;stroke-width:0.95187908"
     d="m 579.80649,296.61517 v 3.25867 h -3.13386 v 0.832 h 3.13386 v 3.2864 h 0.88747 v -3.2864 h 3.13387 v -0.832 h -3.13387 v -3.25867 z" /></g><path
   id="rect2691-3-31"
   d="m 234.34939,77.052461 h 39.52682 v 33.522869 h -39.52682 z"
   style="opacity:1;vector-effect:none;fill:#f1e1a7;fill-opacity:0.73869348;stroke:none;stroke-width:2.00602245;stroke-linecap:butt;stroke-linejoin:round;stroke-miterlimit:4;stroke-dasharray:none;stroke-dashoffset:0;stroke-opacity:1;paint-order:normal" /><g
   transform="matrix(1.1707946,0,0,1.1707988,-416.51004,-263.43573)"
   id="text2615-1-3-0-6"
   style="font-style:normal;font-variant:normal;font-weight:600;font-stretch:normal;font-size:74.66666412px;line-height:1.25;font-family:'Myriad Pro';-inkscape-font-specification:'Myriad Pro, Semi-Bold';font-variant-ligatures:normal;font-variant-caps:normal;font-variant-numeric:normal;font-feature-settings:normal;text-align:start;letter-spacing:0px;word-spacing:0px;writing-mode:lr-tb;text-anchor:start;fill:#000000;fill-opacity:1;stroke:none;stroke-width:0.95187908"
   aria-label="H+"><path
     id="path8519-5"
     style="font-style:normal;font-variant:normal;font-weight:normal;font-stretch:normal;font-size:21.33333397px;font-family:'Myriad Pro';-inkscape-font-specification:'Myriad Pro';stroke-width:0.95187908"
     d="m 563.82263,298.14691 v 14.37866 h 1.856 v -6.74133 h 6.95466 v 6.74133 h 1.87734 v -14.37866 h -1.87734 v 6.016 h -6.95466 v -6.016 z" /><path
     id="path8521-5"
     style="font-size:64.99999762%;baseline-shift:super;stroke-width:0.95187908"
     d="m 579.80649,296.61517 v 3.25867 h -3.13386 v 0.832 h 3.13386 v 3.2864 h 0.88747 v -3.2864 h 3.13387 v -0.832 h -3.13387 v -3.25867 z" /></g><path
   id="rect2691-3-7-0"
   d="m 12.485834,326.09453 h 47.305399 v 30.19178 H 12.485834 Z"
   style="opacity:1;vector-effect:none;fill:#cccccc;fill-opacity:0.48241206;stroke:none;stroke-width:2.0826633;stroke-linecap:butt;stroke-linejoin:round;stroke-miterlimit:4;stroke-dasharray:none;stroke-dashoffset:0;stroke-opacity:1;paint-order:normal" /><g
   transform="matrix(1.0037163,0,0,1.0037163,-56.460658,19.662697)"
   id="text1186-5"
   style="font-style:normal;font-variant:normal;font-weight:600;font-stretch:normal;font-size:74.66666412px;line-height:1.25;font-family:'Myriad Pro';-inkscape-font-specification:'Myriad Pro, Semi-Bold';font-variant-ligatures:normal;font-variant-caps:normal;font-variant-numeric:normal;font-feature-settings:normal;text-align:start;letter-spacing:0px;word-spacing:0px;writing-mode:lr-tb;text-anchor:start;fill:#000000;fill-opacity:1;stroke:none"
   aria-label="ADP"><path
     id="path1532"
     style="font-size:21.33333397px"
     d="m 80.684808,323.85658 1.301333,4.07466 h 2.816 l -4.672,-14.37866 h -3.349333 l -4.608,14.37866 h 2.709333 l 1.237334,-4.07466 z m -4.138667,-1.984 1.109334,-3.54134 c 0.256,-0.85333 0.469333,-1.856 0.682666,-2.688 h 0.04267 c 0.213333,0.832 0.448,1.81334 0.725333,2.688 l 1.130667,3.54134 z" /><path
     id="path1534"
     style="font-size:21.33333397px"
     d="m 86.822808,327.88858 c 0.853334,0.10666 2.005334,0.192 3.541334,0.192 2.794667,0 5.077333,-0.66134 6.506667,-1.96267 1.365333,-1.23733 2.24,-3.15733 2.24,-5.71733 0,-2.45334 -0.853334,-4.16 -2.24,-5.29067 -1.322667,-1.10933 -3.178667,-1.664 -5.866667,-1.664 -1.557334,0 -3.029334,0.10667 -4.181334,0.29867 z m 2.624,-12.24534 c 0.362667,-0.0853 0.960001,-0.14933 1.792001,-0.14933 3.285333,0 5.12,1.81333 5.098666,4.992 0,3.648 -2.026666,5.52533 -5.44,5.504 -0.533333,0 -1.088,0 -1.450667,-0.064 z" /><path
     id="path1536"
     style="font-size:21.33333397px"
     d="m 101.40614,327.93124 h 2.60267 v -5.41866 c 0.34133,0.064 0.78933,0.0853 1.28,0.0853 1.856,0 3.49867,-0.49067 4.544,-1.536 0.81067,-0.768 1.23733,-1.89867 1.23733,-3.264 0,-1.344 -0.55466,-2.47467 -1.408,-3.17867 -0.91733,-0.768 -2.32533,-1.17333 -4.24533,-1.17333 -1.77067,0 -3.072,0.128 -4.01067,0.29867 z m 2.60267,-12.352 c 0.27733,-0.064 0.78933,-0.128 1.51467,-0.128 1.81333,0 2.92266,0.85334 2.92266,2.45334 0,1.68533 -1.19466,2.64533 -3.15733,2.64533 -0.53333,0 -0.96,-0.0213 -1.28,-0.10667 z" /></g><circle
   r="16.953886"
   cy="340.55865"
   cx="94.096336"
   id="path1445"
   style="opacity:1;vector-effect:none;fill:#cccccc;fill-opacity:0.73869348;stroke:none;stroke-width:1.60086393;stroke-linecap:butt;stroke-linejoin:round;stroke-miterlimit:4;stroke-dasharray:none;stroke-dashoffset:0;stroke-opacity:1;paint-order:normal" /><g
   transform="matrix(1.0037163,0,0,1.0037163,66.688877,18.62731)"
   id="text1186-5-1"
   style="font-style:normal;font-variant:normal;font-weight:600;font-stretch:normal;font-size:74.66666412px;line-height:1.25;font-family:'Myriad Pro';-inkscape-font-specification:'Myriad Pro, Semi-Bold';font-variant-ligatures:normal;font-variant-caps:normal;font-variant-numeric:normal;font-feature-settings:normal;text-align:start;letter-spacing:0px;word-spacing:0px;writing-mode:lr-tb;text-anchor:start;fill:#000000;fill-opacity:1;stroke:none"
   aria-label="Pi"><path
     id="path1527"
     style="font-size:21.33333397px"
     d="m 21.657252,326.77707 h 2.602667 v -5.41867 c 0.341334,0.064 0.789334,0.0853 1.28,0.0853 1.856,0 3.498667,-0.49067 4.544,-1.536 0.810667,-0.768 1.237334,-1.89867 1.237334,-3.264 0,-1.344 -0.554667,-2.47467 -1.408,-3.17867 -0.917334,-0.768 -2.325334,-1.17333 -4.245334,-1.17333 -1.770666,0 -3.072,0.128 -4.010667,0.29866 z m 2.602667,-12.352 c 0.277334,-0.064 0.789334,-0.128 1.514667,-0.128 1.813333,0 2.922667,0.85333 2.922667,2.45333 0,1.68534 -1.194667,2.64534 -3.157334,2.64534 -0.533333,0 -0.96,-0.0213 -1.28,-0.10667 z" /><path
     id="path1529"
     style="font-size:64.99999762%;baseline-shift:sub"
     d="m 35.023253,331.57707 v -7.5972 h -1.9344 v 7.5972 z m -0.9672,-10.764 c -0.6396,0 -1.0764,0.4524 -1.0764,1.0452 0,0.5772 0.4212,1.0296 1.0608,1.0296 0.6708,0 1.092,-0.4524 1.092,-1.0296 -0.0156,-0.5928 -0.4212,-1.0452 -1.0764,-1.0452 z" /></g><g
   transform="matrix(1.0037163,0,0,1.0037163,13.468696,19.518933)"
   id="text1186-5-3"
   style="font-style:normal;font-variant:normal;font-weight:600;font-stretch:normal;font-size:74.66666412px;line-height:1.25;font-family:'Myriad Pro';-inkscape-font-specification:'Myriad Pro, Semi-Bold';font-variant-ligatures:normal;font-variant-caps:normal;font-variant-numeric:normal;font-feature-settings:normal;text-align:start;letter-spacing:0px;word-spacing:0px;writing-mode:lr-tb;text-anchor:start;fill:#000000;fill-opacity:1;stroke:none"
   aria-label="+"><path
     id="path1524"
     style="font-size:24px"
     d="m 52.977139,315.31257 v 5.424 h -5.208 v 1.872 h 5.208 v 5.472 h 1.968 v -5.472 h 5.208 v -1.872 h -5.208 v -5.424 z" /></g><g
   transform="matrix(1.1144568,0,0,1.1144568,-26.684209,-24.801618)"
   id="text1186-5-6"
   style="font-style:normal;font-variant:normal;font-weight:600;font-stretch:normal;font-size:74.66666412px;line-height:1.25;font-family:'Myriad Pro';-inkscape-font-specification:'Myriad Pro, Semi-Bold';font-variant-ligatures:normal;font-variant-caps:normal;font-variant-numeric:normal;font-feature-settings:normal;text-align:start;letter-spacing:0px;word-spacing:0px;writing-mode:lr-tb;text-anchor:start;fill:#000000;fill-opacity:1;stroke:none"
   aria-label="Rotor"><path
     id="path1513"
     style="font-style:normal;font-variant:normal;font-weight:normal;font-stretch:normal;font-size:21.33333397px;font-family:'Myriad Pro';-inkscape-font-specification:'Myriad Pro'"
     d="m 95.998805,256.64163 h 1.856 v -6.22933 h 1.749334 c 1.685331,0.064 2.453331,0.81067 2.880001,2.79467 0.40533,1.792 0.72533,3.02933 0.96,3.43466 h 1.92 c -0.29867,-0.55466 -0.64,-1.94133 -1.10933,-3.94666 -0.34134,-1.49334 -1.00267,-2.51734 -2.112,-2.90134 v -0.064 c 1.51466,-0.512 2.70933,-1.77066 2.70933,-3.66933 0,-1.10933 -0.40533,-2.09067 -1.13067,-2.73067 -0.896,-0.81067 -2.176,-1.17333 -4.159998,-1.17333 -1.28,0 -2.624,0.10666 -3.562667,0.29866 z m 1.856,-12.88533 c 0.298667,-0.0853 0.938667,-0.17067 1.834667,-0.17067 1.962668,0.0213 3.306668,0.832 3.306668,2.688 0,1.64267 -1.25867,2.73067 -3.242668,2.73067 h -1.898667 z" /><path
     id="path1515"
     style="font-style:normal;font-variant:normal;font-weight:normal;font-stretch:normal;font-size:21.33333397px;font-family:'Myriad Pro';-inkscape-font-specification:'Myriad Pro'"
     d="m 111.84981,246.08163 c -2.85867,0 -5.12,2.02667 -5.12,5.48267 0,3.264 2.15466,5.312 4.94933,5.312 2.496,0 5.14133,-1.664 5.14133,-5.48267 0,-3.15733 -2.00533,-5.312 -4.97066,-5.312 z m -0.0427,1.408 c 2.21867,0 3.09333,2.21867 3.09333,3.968 0,2.32534 -1.344,4.01067 -3.136,4.01067 -1.83466,0 -3.136,-1.70667 -3.136,-3.968 0,-1.96267 0.96,-4.01067 3.17867,-4.01067 z" /><path
     id="path1517"
     style="font-style:normal;font-variant:normal;font-weight:normal;font-stretch:normal;font-size:21.33333397px;font-family:'Myriad Pro';-inkscape-font-specification:'Myriad Pro'"
     d="m 119.61147,243.84163 v 2.47467 h -1.6 v 1.42933 h 1.6 v 5.632 c 0,1.216 0.192,2.13334 0.72534,2.688 0.448,0.512 1.152,0.78934 2.02666,0.78934 0.72534,0 1.30134,-0.10667 1.664,-0.256 l -0.0853,-1.408 c -0.23467,0.064 -0.59733,0.128 -1.088,0.128 -1.04533,0 -1.408,-0.72534 -1.408,-2.00534 v -5.568 h 2.688 v -1.42933 h -2.688 v -2.96533 z" /><path
     id="path1519"
     style="font-style:normal;font-variant:normal;font-weight:normal;font-stretch:normal;font-size:21.33333397px;font-family:'Myriad Pro';-inkscape-font-specification:'Myriad Pro'"
     d="m 130.47481,246.08163 c -2.85867,0 -5.12,2.02667 -5.12,5.48267 0,3.264 2.15466,5.312 4.94933,5.312 2.496,0 5.14133,-1.664 5.14133,-5.48267 0,-3.15733 -2.00533,-5.312 -4.97066,-5.312 z m -0.0427,1.408 c 2.21867,0 3.09333,2.21867 3.09333,3.968 0,2.32534 -1.344,4.01067 -3.136,4.01067 -1.83466,0 -3.136,-1.70667 -3.136,-3.968 0,-1.96267 0.96,-4.01067 3.17867,-4.01067 z" /><path
     id="path1521"
     style="font-style:normal;font-variant:normal;font-weight:normal;font-stretch:normal;font-size:21.33333397px;font-family:'Myriad Pro';-inkscape-font-specification:'Myriad Pro'"
     d="m 137.80981,256.64163 h 1.856 v -5.504 c 0,-0.32 0.0427,-0.61866 0.0853,-0.87466 0.256,-1.408 1.19467,-2.41067 2.51733,-2.41067 0.256,0 0.448,0.0213 0.64,0.064 v -1.77067 c -0.17066,-0.0427 -0.32,-0.064 -0.53333,-0.064 -1.25867,0 -2.38933,0.87467 -2.85867,2.26134 h -0.0853 l -0.064,-2.02667 h -1.64267 c 0.064,0.96 0.0853,2.00533 0.0853,3.22133 z" /></g><g
   transform="matrix(1.1144568,0,0,1.1144568,-26.684209,-24.801618)"
   id="text1186-5-6-2"
   style="font-style:normal;font-variant:normal;font-weight:600;font-stretch:normal;font-size:74.66666412px;line-height:1.25;font-family:'Myriad Pro';-inkscape-font-specification:'Myriad Pro, Semi-Bold';font-variant-ligatures:normal;font-variant-caps:normal;font-variant-numeric:normal;font-feature-settings:normal;text-align:start;letter-spacing:0px;word-spacing:0px;writing-mode:lr-tb;text-anchor:start;fill:#000000;fill-opacity:1;stroke:none"
   aria-label="Stator"><path
     id="path1500"
     style="font-style:normal;font-variant:normal;font-weight:normal;font-stretch:normal;font-size:21.33333397px;font-family:'Myriad Pro';-inkscape-font-specification:'Myriad Pro'"
     d="m 296.13404,325.63459 c 0.768,0.512 2.28266,0.91734 3.66933,0.91734 3.392,0 5.03467,-1.92 5.03467,-4.13867 0,-2.112 -1.23734,-3.28533 -3.66934,-4.224 -1.984,-0.768 -2.85866,-1.42933 -2.85866,-2.77333 0,-0.98134 0.74666,-2.15467 2.70933,-2.15467 1.30133,0 2.26133,0.42667 2.73067,0.68267 l 0.512,-1.51467 c -0.64,-0.36267 -1.70667,-0.704 -3.17867,-0.704 -2.79467,0 -4.65067,1.664 -4.65067,3.904 0,2.02667 1.45067,3.24267 3.79734,4.07467 1.94133,0.74666 2.70933,1.51466 2.70933,2.85866 0,1.45067 -1.10933,2.45334 -3.008,2.45334 -1.28,0 -2.496,-0.42667 -3.328,-0.93867 z" /><path
     id="path1502"
     style="font-style:normal;font-variant:normal;font-weight:normal;font-stretch:normal;font-size:21.33333397px;font-family:'Myriad Pro';-inkscape-font-specification:'Myriad Pro'"
     d="m 307.6387,313.53859 v 2.47467 h -1.6 v 1.42933 h 1.6 v 5.632 c 0,1.216 0.192,2.13334 0.72534,2.688 0.448,0.512 1.152,0.78934 2.02666,0.78934 0.72534,0 1.30134,-0.10667 1.664,-0.256 l -0.0853,-1.408 c -0.23467,0.064 -0.59733,0.128 -1.088,0.128 -1.04533,0 -1.408,-0.72534 -1.408,-2.00534 v -5.568 h 2.688 v -1.42933 h -2.688 v -2.96533 z" /><path
     id="path1504"
     style="font-style:normal;font-variant:normal;font-weight:normal;font-stretch:normal;font-size:21.33333397px;font-family:'Myriad Pro';-inkscape-font-specification:'Myriad Pro'"
     d="m 321.6777,326.33859 c -0.128,-0.704 -0.17066,-1.57866 -0.17066,-2.47466 v -3.86134 c 0,-2.06933 -0.768,-4.224 -3.92534,-4.224 -1.30133,0 -2.53866,0.36267 -3.392,0.91734 l 0.42667,1.23733 c 0.72533,-0.46933 1.728,-0.768 2.688,-0.768 2.112,0 2.34667,1.536 2.34667,2.38933 v 0.21334 c -3.98934,-0.0213 -6.208,1.344 -6.208,3.84 0,1.49333 1.06666,2.96533 3.15733,2.96533 1.472,0 2.58133,-0.72533 3.15733,-1.536 h 0.064 l 0.14934,1.30133 z m -1.984,-3.47733 c 0,0.192 -0.0427,0.40533 -0.10666,0.59733 -0.29867,0.87467 -1.152,1.728 -2.496,1.728 -0.96,0 -1.77067,-0.576 -1.77067,-1.792 0,-2.00533 2.32533,-2.368 4.37333,-2.32533 z" /><path
     id="path1506"
     style="font-style:normal;font-variant:normal;font-weight:normal;font-stretch:normal;font-size:21.33333397px;font-family:'Myriad Pro';-inkscape-font-specification:'Myriad Pro'"
     d="m 324.88871,313.53859 v 2.47467 h -1.6 v 1.42933 h 1.6 v 5.632 c 0,1.216 0.192,2.13334 0.72533,2.688 0.448,0.512 1.152,0.78934 2.02667,0.78934 0.72533,0 1.30133,-0.10667 1.664,-0.256 l -0.0853,-1.408 c -0.23466,0.064 -0.59733,0.128 -1.088,0.128 -1.04533,0 -1.408,-0.72534 -1.408,-2.00534 v -5.568 h 2.688 v -1.42933 h -2.688 v -2.96533 z" /><path
     id="path1508"
     style="font-style:normal;font-variant:normal;font-weight:normal;font-stretch:normal;font-size:21.33333397px;font-family:'Myriad Pro';-inkscape-font-specification:'Myriad Pro'"
     d="m 335.75204,315.77859 c -2.85867,0 -5.12,2.02667 -5.12,5.48267 0,3.264 2.15467,5.312 4.94933,5.312 2.496,0 5.14134,-1.664 5.14134,-5.48267 0,-3.15733 -2.00534,-5.312 -4.97067,-5.312 z m -0.0427,1.408 c 2.21867,0 3.09334,2.21867 3.09334,3.968 0,2.32534 -1.344,4.01067 -3.136,4.01067 -1.83467,0 -3.136,-1.70667 -3.136,-3.968 0,-1.96267 0.96,-4.01067 3.17866,-4.01067 z" /><path
     id="path1510"
     style="font-style:normal;font-variant:normal;font-weight:normal;font-stretch:normal;font-size:21.33333397px;font-family:'Myriad Pro';-inkscape-font-specification:'Myriad Pro'"
     d="m 343.08704,326.33859 h 1.856 v -5.504 c 0,-0.32 0.0427,-0.61866 0.0853,-0.87466 0.256,-1.408 1.19467,-2.41067 2.51734,-2.41067 0.256,0 0.448,0.0213 0.64,0.064 v -1.77067 c -0.17067,-0.0427 -0.32,-0.064 -0.53334,-0.064 -1.25866,0 -2.38933,0.87467 -2.85866,2.26134 h -0.0853 l -0.064,-2.02667 h -1.64266 c 0.064,0.96 0.0853,2.00533 0.0853,3.22133 z" /></g><g
   id="text1370"
   style="font-style:normal;font-variant:normal;font-weight:600;font-stretch:normal;font-size:74.66666412px;line-height:1.25;font-family:'Myriad Pro';-inkscape-font-specification:'Myriad Pro, Semi-Bold';font-variant-ligatures:normal;font-variant-caps:normal;font-variant-numeric:normal;font-feature-settings:normal;text-align:start;letter-spacing:0px;word-spacing:0px;writing-mode:lr-tb;text-anchor:start;fill:#000000;fill-opacity:1;stroke:none" /><g
   transform="matrix(1.1144568,0,0,1.1144568,-26.684209,-24.801618)"
   id="text1186-5-6-4"
   style="font-style:normal;font-variant:normal;font-weight:600;font-stretch:normal;font-size:74.66666412px;line-height:1.25;font-family:'Myriad Pro';-inkscape-font-specification:'Myriad Pro, Semi-Bold';font-variant-ligatures:normal;font-variant-caps:normal;font-variant-numeric:normal;font-feature-settings:normal;text-align:start;letter-spacing:0px;word-spacing:0px;writing-mode:lr-tb;text-anchor:start;fill:#000000;fill-opacity:1;stroke:none"
   aria-label="Fo"><path
     id="path1494"
     style="font-style:normal;font-variant:normal;font-weight:normal;font-stretch:normal;font-size:21.33333397px;font-family:'Myriad Pro';-inkscape-font-specification:'Myriad Pro'"
     d="m 199.38847,171.09386 h 1.856 v -6.50667 h 5.44 v -1.536 h -5.44 v -4.77867 h 5.888 v -1.55733 h -7.744 z" /><path
     id="path1496"
     style="font-size:17.33333397px;baseline-shift:sub"
     d="m 212.9608,166.78052 c -2.32266,0 -4.16,1.64667 -4.16,4.45467 0,2.652 1.75067,4.316 4.02134,4.316 2.028,0 4.17733,-1.352 4.17733,-4.45467 0,-2.56533 -1.62933,-4.316 -4.03867,-4.316 z m -0.0347,1.144 c 1.80266,0 2.51333,1.80267 2.51333,3.224 0,1.88934 -1.092,3.25867 -2.548,3.25867 -1.49067,0 -2.548,-1.38667 -2.548,-3.224 0,-1.59467 0.78,-3.25867 2.58267,-3.25867 z" /></g><g
   transform="matrix(1.1144568,0,0,1.1144568,-26.684209,-24.801618)"
   id="text1186-5-6-4-9"
   style="font-style:normal;font-variant:normal;font-weight:600;font-stretch:normal;font-size:74.66666412px;line-height:1.25;font-family:'Myriad Pro';-inkscape-font-specification:'Myriad Pro, Semi-Bold';font-variant-ligatures:normal;font-variant-caps:normal;font-variant-numeric:normal;font-feature-settings:normal;text-align:start;letter-spacing:0px;word-spacing:0px;writing-mode:lr-tb;text-anchor:start;fill:#000000;fill-opacity:1;stroke:none"
   aria-label="F1"><path
     id="path1489"
     style="font-style:normal;font-variant:normal;font-weight:normal;font-stretch:normal;font-size:21.33333397px;font-family:'Myriad Pro';-inkscape-font-specification:'Myriad Pro'"
     d="m 228.72311,357.04111 h 1.856 v -6.50667 h 5.44 v -1.536 h -5.44 v -4.77867 h 5.888 v -1.55733 h -7.744 z" /><path
     id="path1491"
     style="font-size:17.33333397px;baseline-shift:sub"
     d="m 241.56744,361.30777 h 1.47334 v -11.26666 h -1.3 l -2.46134,1.31733 0.29467,1.16133 1.95867,-1.05733 h 0.0347 z" /></g><path
   id="path1447"
   d="m 138.70951,255.89625 60.31961,43.67283"
   style="fill:none;stroke:#000000;stroke-width:1.33734822;stroke-linecap:butt;stroke-linejoin:miter;stroke-miterlimit:4;stroke-dasharray:none;stroke-opacity:1" /><path
   id="path1449"
   d="m 173.7559,210.60016 -35.04639,45.29609"
   style="fill:none;stroke:#000000;stroke-width:1.33734822;stroke-linecap:butt;stroke-linejoin:miter;stroke-miterlimit:4;stroke-dasharray:none;stroke-opacity:1" /><path
   id="path1451"
   d="m 250.29553,341.38175 48.0243,-9.53154"
   style="fill:none;stroke:#000000;stroke-width:1.11445689px;stroke-linecap:butt;stroke-linejoin:miter;stroke-opacity:1" /><path
   id="path1453"
   d="m 275.95737,325.61805 22.36246,6.23216"
   style="fill:none;stroke:#000000;stroke-width:1.11445689px;stroke-linecap:butt;stroke-linejoin:miter;stroke-opacity:1" /><path
   id="rect2691-3-7-3"
   d="m 324.33244,227.26807 h 39.52682 v 33.52285 h -39.52682 z"
   style="opacity:1;vector-effect:none;fill:#f1e1a7;fill-opacity:0.73869348;stroke:none;stroke-width:2.00602245;stroke-linecap:butt;stroke-linejoin:round;stroke-miterlimit:4;stroke-dasharray:none;stroke-dashoffset:0;stroke-opacity:1;paint-order:normal" /><g
   transform="matrix(1.1707946,0,0,1.1707988,-326.52699,-113.22012)"
   id="text2615-1-3-0-3-6"
   style="font-style:normal;font-variant:normal;font-weight:600;font-stretch:normal;font-size:74.66666412px;line-height:1.25;font-family:'Myriad Pro';-inkscape-font-specification:'Myriad Pro, Semi-Bold';font-variant-ligatures:normal;font-variant-caps:normal;font-variant-numeric:normal;font-feature-settings:normal;text-align:start;letter-spacing:0px;word-spacing:0px;writing-mode:lr-tb;text-anchor:start;fill:#000000;fill-opacity:1;stroke:none;stroke-width:0.95187908"
   aria-label="H+"><path
     id="path8519-2-9"
     style="font-style:normal;font-variant:normal;font-weight:normal;font-stretch:normal;font-size:21.33333397px;font-family:'Myriad Pro';-inkscape-font-specification:'Myriad Pro';stroke-width:0.95187908"
     d="m 563.82263,298.14691 v 14.37866 h 1.856 v -6.74133 h 6.95466 v 6.74133 h 1.87734 v -14.37866 h -1.87734 v 6.016 h -6.95466 v -6.016 z" /><path
     id="path8521-7-6"
     style="font-size:64.99999762%;baseline-shift:super;stroke-width:0.95187908"
     d="m 579.80649,296.61517 v 3.25867 h -3.13386 v 0.832 h 3.13386 v 3.2864 h 0.88747 v -3.2864 h 3.13387 v -0.832 h -3.13387 v -3.25867 z" /></g></svg>