<?xml version="1.0" encoding="UTF-8"?>
<svg id="uuid-b1edefa2-2ddc-4d2b-aa3f-187ae018d40c" xmlns="http://www.w3.org/2000/svg" version="1.1" viewBox="0 0 522.5 301.5">
  <!-- Generator: Adobe Illustrator 29.7.1, SVG Export Plug-In . SVG Version: 2.1.1 Build 8)  -->
  <defs>
    <style>
      .st0 {
        fill: #1f897f;
      }

      .st1 {
        fill: #ffccca;
      }

      .st2 {
        fill: #14842c;
      }

      .st3 {
        fill: #2e7999;
      }

      .st4 {
        fill: #abfff9;
      }

      .st5 {
        fill: #92d0ff;
      }

      .st6 {
        fill: #b78b44;
      }

      .st7 {
        fill: #274e9b;
      }

      .st8 {
        fill: #246bea;
      }

      .st9 {
        fill: #99ffb1;
      }

      .st10 {
        fill: #9b2756;
      }

      .st11 {
        fill: #af5214;
      }

      .st12 {
        fill: #a4dfff;
      }

      .st13 {
        fill: #ffe1b0;
      }

      .st14 {
        fill: #fff2b3;
      }

      .st15 {
        fill: #b23939;
      }

      .st16 {
        fill: #ffd4e5;
      }

      .st17 {
        fill: #bdd0ff;
      }
    </style>
  </defs>
  <path class="st5" d="M343.5,234.1h-7v-1.2h7v1.2ZM329.5,234.1h-7v-1.2h7v1.2ZM315.5,234.1h-7v-1.2h7v1.2ZM301.5,234.1h-7v-1.2h7v1.2ZM287.5,234.1h-7v-1.2h7v1.2ZM273.5,234.1h-7v-1.2h7v1.2ZM259.5,234.1h-7v-1.2h7v1.2ZM245.5,234.1h-7v-1.2h7v1.2ZM231.5,234.1h-7v-1.2h7v1.2ZM217.5,234.1h-7v-1.2h7v1.2ZM203.5,234.1h-7v-1.2h7v1.2ZM189.5,234.1h-7v-1.2h7v1.2ZM175.5,234.1h-7v-1.2h7v1.2ZM161.5,234.1h-7v-1.2h7v1.2ZM147.5,234.1h-7v-1.2h7v1.2ZM133.5,234.1h-7v-1.2h7v1.2ZM119.5,234.1h-7v-1.2h7v1.2ZM105.5,234.1h-7v-1.2h7v1.2ZM91.5,234.1h-7v-1.2h7v1.2ZM77.5,234.1h-7v-1.2h7v1.2ZM63.5,234.1h-7v-1.2h7v1.2ZM49.5,234.1h-7v-1.2h7v1.2Z"/>
  <path class="st5" d="M343.5,166.8h-7v-1.2h7v1.2ZM329.5,166.8h-7v-1.2h7v1.2ZM315.5,166.8h-7v-1.2h7v1.2ZM301.5,166.8h-7v-1.2h7v1.2ZM287.5,166.8h-7v-1.2h7v1.2ZM273.5,166.8h-7v-1.2h7v1.2ZM259.5,166.8h-7v-1.2h7v1.2ZM245.5,166.8h-7v-1.2h7v1.2ZM231.5,166.8h-7v-1.2h7v1.2ZM217.5,166.8h-7v-1.2h7v1.2ZM203.5,166.8h-7v-1.2h7v1.2ZM189.5,166.8h-7v-1.2h7v1.2ZM175.5,166.8h-7v-1.2h7v1.2ZM161.5,166.8h-7v-1.2h7v1.2ZM147.5,166.8h-7v-1.2h7v1.2ZM133.5,166.8h-7v-1.2h7v1.2ZM119.5,166.8h-7v-1.2h7v1.2ZM105.5,166.8h-7v-1.2h7v1.2ZM91.5,166.8h-7v-1.2h7v1.2ZM77.5,166.8h-7v-1.2h7v1.2ZM63.5,166.8h-7v-1.2h7v1.2ZM49.5,166.8h-7v-1.2h7v1.2Z"/>
  <path class="st5" d="M343.5,118.2h-7v-1.2h7v1.2ZM329.5,118.2h-7v-1.2h7v1.2ZM315.5,118.2h-7v-1.2h7v1.2ZM301.5,118.2h-7v-1.2h7v1.2ZM287.5,118.2h-7v-1.2h7v1.2ZM273.5,118.2h-7v-1.2h7v1.2ZM259.5,118.2h-7v-1.2h7v1.2ZM245.5,118.2h-7v-1.2h7v1.2ZM231.5,118.2h-7v-1.2h7v1.2ZM217.5,118.2h-7v-1.2h7v1.2ZM203.5,118.2h-7v-1.2h7v1.2ZM189.5,118.2h-7v-1.2h7v1.2ZM175.5,118.2h-7v-1.2h7v1.2ZM161.5,118.2h-7v-1.2h7v1.2ZM147.5,118.2h-7v-1.2h7v1.2ZM133.5,118.2h-7v-1.2h7v1.2ZM119.5,118.2h-7v-1.2h7v1.2ZM105.5,118.2h-7v-1.2h7v1.2ZM91.5,118.2h-7v-1.2h7v1.2ZM77.5,118.2h-7v-1.2h7v1.2ZM63.5,118.2h-7v-1.2h7v1.2ZM49.5,118.2h-7v-1.2h7v1.2Z"/>
  <path class="st5" d="M343.5,2.3h-7v-1.2h7v1.2ZM329.5,2.3h-7v-1.2h7v1.2ZM315.5,2.3h-7v-1.2h7v1.2ZM301.5,2.3h-7v-1.2h7v1.2ZM287.5,2.3h-7v-1.2h7v1.2ZM273.5,2.3h-7v-1.2h7v1.2ZM259.5,2.3h-7v-1.2h7v1.2ZM245.5,2.3h-7v-1.2h7v1.2ZM231.5,2.3h-7v-1.2h7v1.2ZM217.5,2.3h-7v-1.2h7v1.2ZM203.5,2.3h-7v-1.2h7v1.2ZM189.5,2.3h-7v-1.2h7v1.2ZM175.5,2.3h-7v-1.2h7v1.2ZM161.5,2.3h-7v-1.2h7v1.2ZM147.5,2.3h-7v-1.2h7v1.2ZM133.5,2.3h-7v-1.2h7v1.2ZM119.5,2.3h-7v-1.2h7v1.2ZM105.5,2.3h-7v-1.2h7v1.2ZM91.5,2.3h-7v-1.2h7v1.2ZM77.5,2.3h-7v-1.2h7v1.2ZM63.5,2.3h-7v-1.2h7v1.2ZM49.5,2.3h-7v-1.2h7v1.2Z"/>
  <path class="st8" d="M257.4,234.1c-5.5,0-9.5-12.8-13.1-41.6-3.1-24.4-5.2-56.5-7.3-87.5-1.8-27-3.6-52.6-5.8-71.7-2.9-25.7-5.9-31.1-7.8-31.1-7.1,0-10.6,43.4-13.7,81.7-4.2,51.5-7.3,82.8-14.9,82.8s-7.5-12-10.1-24.8c-2.3-11.2-4.8-23.8-8.9-23.8s-6.7,12.6-8.9,23.8c-2.6,12.7-5,24.8-10.1,24.8s-7.5-12-10.1-24.8c-2.3-11.2-4.8-23.8-8.9-23.8s-6.7,12.6-8.9,23.8c-2.6,12.7-5,24.8-10.1,24.8s-7.5-12-10.1-24.8c-2.3-11.2-4.8-23.8-8.9-23.8s-6.7,12.6-8.9,23.8c-2.6,12.7-5,24.8-10.1,24.8s-7.5-12-10.1-24.8c-2.3-11.2-4.8-23.8-8.9-23.8s-6.7,12.6-8.9,23.8c-2.6,12.7-5,24.8-10.1,24.8v-1.2c4.1,0,6.7-12.6,8.9-23.8,2.6-12.7,5-24.8,10.1-24.8s7.5,12,10.1,24.8c2.3,11.2,4.8,23.8,8.9,23.8s6.7-12.6,8.9-23.8c2.6-12.7,5-24.8,10.1-24.8s7.5,12,10.1,24.8c2.3,11.2,4.8,23.8,8.9,23.8s6.7-12.6,8.9-23.8c2.6-12.7,5-24.8,10.1-24.8s7.5,12,10.1,24.8c2.3,11.2,4.8,23.8,8.9,23.8s6.7-12.6,8.9-23.8c2.6-12.7,5-24.8,10.1-24.8s7.5,12,10.1,24.8c2.3,11.2,4.8,23.8,8.9,23.8,7.1,0,10.6-43.4,13.7-81.7,4.2-51.5,7.3-82.8,14.9-82.8s10.4,39.5,14.8,103.9c2.1,31,4.3,63,7.3,87.4,3.4,26.9,7.4,40.5,11.9,40.5s10.3-30.5,13.9-57.4c4.9-36.4,8.3-58.5,15.1-58.5s7.5,12,10.1,24.8c2.3,11.2,4.8,23.8,8.9,23.8s6.7-12.6,8.9-23.8c2.6-12.7,5-24.8,10.1-24.8s7.5,12,10.1,24.8c2.3,11.2,4.8,23.8,8.9,23.8v1.2c-5.1,0-7.5-12-10.1-24.8-2.3-11.2-4.8-23.8-8.9-23.8s-6.7,12.6-8.9,23.8c-2.6,12.7-5,24.8-10.1,24.8s-7.5-12-10.1-24.8c-2.3-11.2-4.8-23.8-8.9-23.8-6.2,0-10.3,30.5-13.9,57.4-4.9,36.4-8.3,58.5-15.1,58.5h0Z"/>
  <rect class="st16" x="477.3" y="1.7" width="44.6" height="299.2"/>
  <path class="st10" d="M522.5,301.5h-45.8V1.1h45.8v300.4ZM477.9,300.3h43.4V2.3h-43.4v298h0Z"/>
  <rect class="st17" x="432.7" y="1.7" width="44.6" height="231.9"/>
  <path class="st7" d="M477.9,234.1h-45.8V1.1h45.8v233.1ZM433.3,232.9h43.4V2.3h-43.4v230.7Z"/>
  <rect class="st1" x="432.7" y="233.5" width="44.6" height="67.3"/>
  <path class="st15" d="M477.9,301.5h-45.8v-68.6h45.8v68.6ZM433.3,300.3h43.4v-66.1h-43.4v66.1Z"/>
  <rect class="st12" x="388.1" y="1.7" width="44.6" height="164.5"/>
  <path class="st3" d="M433.3,166.8h-45.8V1.1h45.8v165.7ZM388.7,165.6h43.4V2.3h-43.4v163.3h0Z"/>
  <rect class="st13" x="388.1" y="166.2" width="44.6" height="134.7"/>
  <path class="st11" d="M433.3,301.5h-45.8v-135.9h45.8v135.9ZM388.7,300.3h43.4v-133.5h-43.4v133.5Z"/>
  <rect class="st4" x="343.5" y="1.7" width="44.6" height="115.9"/>
  <path class="st0" d="M388.7,118.2h-45.8V1.1h45.8v117.1ZM344.1,117h43.4V2.3h-43.4v114.7Z"/>
  <rect class="st9" x="343.5" y="117.6" width="44.6" height="48.6"/>
  <path class="st2" d="M388.7,166.8h-45.8v-49.8h45.8v49.8ZM344.1,165.6h43.4v-47.4h-43.4v47.4Z"/>
  <rect class="st14" x="343.5" y="166.2" width="44.6" height="67.3"/>
  <path class="st6" d="M388.7,234.1h-45.8v-68.6h45.8v68.6ZM344.1,232.9h43.4v-66.2h-43.4v66.1h0Z"/>
  <rect class="st1" x="343.5" y="233.5" width="44.6" height="67.3"/>
  <path class="st15" d="M388.7,301.5h-45.8v-68.6h45.8v68.6ZM344.1,300.3h43.4v-66.1h-43.4v66.1Z"/>
  <polygon points="521.9 301.5 41.9 301.5 41.9 1.1 43.1 1.1 43.1 300.3 521.9 300.3 521.9 301.5"/>
  <path d="M24.6,8c0-1,.7-1.6,1.5-1.9h0c-.6-.5-1.1-1-1.1-1.8,0-1.2,1-2,2.5-2s2.4.8,2.4,2.1-.5,1.3-1.1,1.7h0c.8.5,1.5,1,1.5,2.1s-1,2.1-2.8,2.1-2.8-.9-2.8-2.1h0ZM29,8c0-.9-.9-1.1-2.1-1.5-.6.3-1,.8-1,1.4s.7,1.3,1.6,1.3,1.5-.4,1.5-1.1ZM28.8,4.3c0-.7-.5-1.2-1.3-1.2s-1.2.4-1.2,1.1.7,1.1,1.8,1.4c.5-.4.8-.8.8-1.3h0Z"/>
  <path d="M31.8,6.1c0-2.6,1.1-3.9,2.8-3.9s2.8,1.4,2.8,3.9-1.1,4-2.8,4-2.8-1.4-2.8-4ZM32.5,3.8l.9-.2,3.3,4.8-.9.2s-3.3-4.8-3.3-4.8ZM36.2,6.1c0-2.1-.7-2.9-1.6-2.9s-1.6.8-1.6,2.9.7,3,1.6,3,1.6-.8,1.6-3Z"/>
  <path d="M24.5,120.7l.7-.9c.5.5,1.2.8,2,.8s1.6-.4,1.6-1.2-.6-1.3-2.5-1.3v-1c1.6,0,2.3-.5,2.3-1.2s-.5-1-1.3-1-1.2.3-1.8.7l-.7-.8c.7-.6,1.5-1,2.5-1,1.5,0,2.7.7,2.7,2s-.6,1.4-1.5,1.8h0c1,.3,1.8.9,1.8,2s-1.3,2.2-2.9,2.2-2.2-.5-2.8-1.1h0Z"/>
  <path d="M36,115.2h-4.1v-1.2h5.6v.8c-2,2.2-2.4,3.8-2.5,6.8h-1.4c.1-2.7.7-4.4,2.4-6.4h0Z"/>
  <path d="M24.5,168.7l.7-.9c.5.5,1.2.8,2,.8s1.6-.4,1.6-1.1-.6-1.3-2.5-1.3v-1c1.6,0,2.3-.5,2.3-1.2s-.5-1-1.3-1-1.2.3-1.8.7l-.7-.9c.7-.6,1.5-1,2.5-1,1.5,0,2.7.7,2.7,2s-.6,1.4-1.5,1.8h0c1,.3,1.8.9,1.8,1.9s-1.3,2.2-2.9,2.2-2.2-.5-2.8-1.1h0Z"/>
  <path d="M31.8,165.8c0-2.6,1.1-3.9,2.8-3.9s2.8,1.4,2.8,3.9-1.1,4-2.8,4-2.8-1.4-2.8-4ZM32.5,163.5l.9-.2,3.3,4.8-.9.2-3.3-4.8ZM36.2,165.8c0-2.1-.7-2.9-1.6-2.9s-1.6.8-1.6,2.9.7,3,1.6,3,1.6-.8,1.6-3Z"/>
  <path d="M24.9,236.1h2.1v-5h-1.7v-.9c1-.1,1.5-.3,2.1-.6h1v6.5h1.9v1.1h-5.4v-1.1h0Z"/>
  <path d="M31.7,236.3l.7-.9c.5.4,1.1.8,2,.8s1.7-.5,1.7-1.5-.7-1.4-1.6-1.4-.9.1-1.4.4l-.7-.4.2-3.8h4.5v1.2h-3.3l-.2,1.8c.4-.2.7-.2,1.2-.2,1.4,0,2.6.7,2.6,2.4s-1.4,2.6-2.9,2.6-2.2-.5-2.8-1.1Z"/>
  <path d="M14.1,207l-11.1,3.3v-2.6l5.2-1.3c.4-.1.8-.2,1.2-.3s.8-.2,1.2-.3c.4-.1.8-.2,1.2-.3h0c-.4-.2-.8-.3-1.2-.4-.4,0-.8-.2-1.2-.3-.4-.1-.8-.2-1.2-.3l-5.2-1.4v-2.6l11.1,3.4v3h0Z"/>
  <path d="M14.3,196.3c0,.7-.2,1.4-.5,2-.4.6-.9,1.1-1.5,1.5s-1.5.6-2.4.6-1.7-.2-2.4-.6-1.2-.9-1.5-1.5c-.3-.6-.5-1.3-.5-2s.2-1.4.5-2c.3-.6.8-1.1,1.5-1.5.7-.4,1.5-.6,2.4-.6s1.7.2,2.4.6,1.2.9,1.5,1.5c.4.6.5,1.3.5,2ZM12.3,196.3c0-.3-.1-.6-.3-.9s-.5-.4-.8-.5-.8-.2-1.3-.2-.9,0-1.3.2c-.4.1-.6.3-.8.5-.2.2-.3.5-.3.9s0,.6.3.9.5.4.8.5.8.2,1.3.2.9,0,1.3-.2c.4-.1.6-.3.8-.5s.3-.5.3-.9Z"/>
  <path d="M14.3,188.2c0,.6-.1,1-.4,1.4-.2.3-.6.6-1,.7-.4.1-.9.2-1.5.2H2.2v-2.5h9.4c.3,0,.5,0,.6-.1.1-.1.1-.2.1-.3h0c0-.2,0-.2,0-.3l1.9-.3c0,.1.1.3.1.5s0,.5,0,.7h0Z"/>
  <path d="M14.3,183.1c0,.9-.3,1.6-.9,2-.6.4-1.4.6-2.5.6h-5.2v-2.5h4.9c.6,0,1,0,1.3-.2.2-.2.3-.4.3-.8s0-.6-.2-.8c-.1-.2-.4-.5-.7-.7h-5.6v-2.5h8.4v2l-1.2.2h0c.4.4.8.8,1,1.2s.4.9.4,1.5h0Z"/>
  <path d="M14.1,176H5.7v-2l1.1-.2h0c-.3-.4-.7-.8-.9-1.2-.2-.4-.4-.9-.4-1.4s.1-1.1.4-1.5.6-.7,1-.9c-.4-.4-.7-.8-1-1.2-.3-.4-.4-.9-.4-1.5,0-.9.3-1.6.9-2,.6-.4,1.4-.6,2.5-.6h5.2v2.5h-4.9c-.6,0-1,0-1.3.2-.2.2-.3.4-.3.8s0,.4.2.7.3.5.6.8h5.7v2.5h-4.9c-.6,0-1,0-1.3.2-.2.2-.3.4-.3.8s.3.9.8,1.4h5.7v2.5h0Z"/>
  <path d="M14.3,157.6c0,.8-.2,1.5-.5,2.2-.4.6-.9,1.2-1.5,1.5s-1.4.6-2.4.6-1.7-.2-2.4-.6c-.7-.4-1.2-.9-1.5-1.5s-.5-1.2-.5-1.9.2-1.5.5-2c.4-.5.8-.9,1.5-1.2.6-.3,1.3-.4,2.1-.4s.4,0,.6,0,.4,0,.5,0v5.5h-1.7s0-3.5,0-3.5c-.4,0-.8.1-1.1.3-.3.2-.4.6-.4,1.1s0,.5.2.8c.2.3.4.5.8.6.4.2.9.2,1.5.2.6,0,1.1-.1,1.5-.4.4-.2.6-.5.8-.8s.2-.7.2-1.1,0-.6-.1-.9-.2-.6-.4-.9l1.5-.8c.3.4.5.9.7,1.4s.2,1.1.2,1.6h0Z"/>
  <path d="M17.1,146.8c-1.2.7-2.4,1.3-3.6,1.7s-2.6.6-4.1.6-2.9-.2-4.1-.6c-1.3-.4-2.5-.9-3.6-1.7l.7-1.6c1.1.6,2.3,1.1,3.5,1.4s2.4.4,3.7.4,2.4-.1,3.6-.4,2.4-.7,3.5-1.4l.6,1.6h0Z"/>
  <path d="M14.1,143.3H5.7v-2l1.1-.2h0c-.3-.4-.7-.8-.9-1.2-.2-.4-.4-.9-.4-1.4s.1-1.1.4-1.5.6-.7,1-.9c-.4-.4-.7-.8-1-1.2-.3-.4-.4-.9-.4-1.5,0-.9.3-1.6.9-2,.6-.4,1.4-.6,2.5-.6h5.2v2.5h-4.9c-.6,0-1,0-1.3.2-.2.2-.3.4-.3.8s0,.4.2.7.3.5.6.8h5.7v2.5h-4.9c-.6,0-1,0-1.3.2-.2.2-.3.4-.3.8s.3.9.8,1.4h5.7v2.5h0Z"/>
  <path d="M14.3,124.7c0,.6-.1,1.1-.4,1.7-.2.5-.6.9-1.1,1.2-.5.3-1.1.5-1.9.5h-4.8c-.9,0-1.7-.1-2.3-.4s-1.1-.7-1.4-1.1c-.3-.5-.4-1-.4-1.6s.2-1.5.8-2c.5-.5,1.2-.8,2.1-.8s1.3.1,2,.4,1.2.6,1.8,1.2,1.2,1.2,1.8,2.1,1.3,1.9,2,3l-1.5.9c-.5-.9-1.1-1.7-1.5-2.4s-.9-1.3-1.4-1.7-.9-.8-1.4-1.1-1-.3-1.6-.3-.6,0-.8.2-.3.3-.3.5.1.4.4.6.8.2,1.5.2h4.9c.6,0,1-.1,1.2-.4s.4-.6.4-.9,0-.6-.2-.9-.3-.5-.5-.7l1.5-.9c.3.4.6.8.9,1.3.3.5.4,1,.4,1.6h0Z"/>
  <path d="M16.8,121.7l-14.8-3.4v-1.6l14.8,3.4v1.6Z"/>
  <path d="M14.1,115H2.2v-2.5h6.8c0,0-3.3-2.7-3.3-2.7v-2.7l3.5,2.9,4.9-3.2v2.7l-3.3,1.9,1.2,1h2.1v2.5h0Z"/>
  <path d="M17.7,102.9c0,.7,0,1.2-.2,1.8s-.4,1-.7,1.3c-.3.3-.7.5-1.2.5s-.7,0-.9-.3-.5-.5-.8-.9h0c-.1.2-.3.4-.6.6s-.5.2-.9.2-.6,0-.9-.3-.5-.4-.7-.7h0c-.2.3-.5.6-.9.8s-.8.3-1.3.3-1.2-.2-1.7-.5c-.4-.3-.8-.8-1-1.3s-.3-1.1-.3-1.7,0-.5,0-.7,0-.4.2-.6v-3.1h1.8v1.4h0c.2-.1.3-.2.5-.2.2,0,.4,0,.6,0,.6,0,1.2.2,1.6.4s.7.7.9,1.2c.2.5.3,1.1.3,1.7s0,.3,0,.5c0,.2,0,.3-.1.5,0,0,.2.2.3.2s.2,0,.4,0,.4,0,.5-.3c.1-.2.2-.5.2-1v-1.4c0-1,.2-1.8.5-2.4s.9-.8,1.6-.8,1.1.2,1.6.6.8.9,1.1,1.6.4,1.5.4,2.5h0ZM9.9,102.7c0-.2,0-.4-.2-.6s-.3-.3-.5-.4c-.2,0-.5-.2-.8-.2s-.8.1-1,.3-.3.5-.3.8.1.6.3.8.6.3,1,.3.6,0,.8-.2.4-.2.5-.4c.1-.2.2-.4.2-.6h0ZM16.1,102.5c0-.4,0-.7-.1-1,0-.3-.2-.5-.4-.7-.2-.2-.3-.2-.5-.2s-.4.1-.5.3c0,.2-.1.5-.1.9v.9c0,.3,0,.5,0,.7,0,.2,0,.3,0,.5.1.2.3.3.4.3.1,0,.3.1.4.1.3,0,.6-.2.7-.5.2-.3.3-.8.3-1.3h0Z"/>
  <path d="M17.1,95.5l-.6,1.6c-1.1-.6-2.3-1.1-3.5-1.4-1.2-.3-2.4-.4-3.6-.4s-2.4.1-3.7.4-2.4.8-3.5,1.4l-.6-1.6c1.2-.7,2.4-1.3,3.6-1.7,1.3-.4,2.6-.6,4.1-.6s2.9.2,4.1.6,2.5.9,3.6,1.7h0Z"/>
  <polygon class="st0" points="348.8 55.1 350.4 55.1 350.4 64.2 348.8 64.2 348.8 67 355.4 67 355.4 64.2 353.8 64.2 353.8 55.1 355.4 55.1 355.4 52.3 348.8 52.3 348.8 55.1"/>
  <path class="st0" d="M368.5,59.6c.5-.7.8-1.6.8-2.8s-.3-2.1-.8-2.7c-.5-.7-1.2-1.1-2-1.4s-1.8-.4-2.8-.4h-5.3v14.7h3.3v-5.3h1.8l2.8,5.3h3.7l-3.3-5.9c.8-.3,1.4-.8,1.8-1.5h0ZM365.3,58.5c-.5.4-1.1.5-2,.5h-1.7v-4.1h1.7c.9,0,1.5.1,2,.4s.7.8.7,1.5-.2,1.3-.7,1.6Z"/>
  <path class="st0" d="M379.4,52.3l-1.8,6.8c-.1.5-.3,1-.4,1.6-.1.5-.3,1-.4,1.5s-.2,1-.4,1.6h0c-.1-.5-.3-1.1-.4-1.6-.1-.5-.2-1-.4-1.5-.1-.5-.3-1-.4-1.6l-1.7-6.8h-3.5l4.3,14.7h4l4.5-14.7h-3.4,0Z"/>
  <polygon class="st2" points="354 136.5 358 136.5 358 148.4 361.4 148.4 361.4 136.5 365.4 136.5 365.4 133.7 354 133.7 354 136.5"/>
  <path class="st2" d="M375.3,133.7l-1.8,6.8c-.1.5-.3,1.1-.4,1.6-.1.5-.3,1-.4,1.6-.1.5-.2,1-.4,1.6h0c-.1-.5-.3-1.1-.4-1.6-.1-.5-.2-1-.4-1.6-.1-.5-.3-1.1-.4-1.6l-1.7-6.8h-3.5l4.3,14.7h4l4.5-14.7h-3.4,0Z"/>
  <polygon class="st6" points="351.2 200 356.1 200 356.1 197.3 351.2 197.3 351.2 194.3 357 194.3 357 191.5 347.9 191.5 347.9 206.2 357.3 206.2 357.3 203.4 351.2 203.4 351.2 200"/>
  <path class="st6" d="M370.4,198.8c.5-.7.8-1.6.8-2.8s-.3-2.1-.8-2.7c-.5-.7-1.2-1.1-2-1.4s-1.8-.4-2.8-.4h-5.3v14.7h3.3v-5.3h1.8l2.8,5.3h3.7l-3.3-5.9c.8-.3,1.4-.8,1.8-1.5h0ZM363.5,194.2h1.7c.9,0,1.5.1,2,.4s.7.8.7,1.5-.2,1.3-.7,1.6-1.1.6-2,.6h-1.7v-4.1Z"/>
  <path class="st6" d="M381.2,191.5l-1.8,6.8c-.1.5-.3,1.1-.4,1.6-.1.5-.3,1-.4,1.6-.1.5-.2,1-.4,1.6h0c-.1-.5-.3-1.1-.4-1.6-.1-.5-.2-1-.4-1.6-.1-.5-.3-1.1-.4-1.6l-1.7-6.8h-3.5l4.3,14.7h4l4.5-14.7h-3.4,0Z"/>
  <path class="st15" d="M364.2,267.2c.5-.7.8-1.6.8-2.8s-.3-2.1-.8-2.7c-.5-.7-1.2-1.1-2-1.4s-1.8-.4-2.8-.4h-5.3v14.7h3.3v-5.3h1.8l2.8,5.3h3.7l-3.3-5.9c.8-.3,1.4-.8,1.8-1.5h0ZM357.3,262.5h1.7c.9,0,1.5.1,2,.4.5.3.7.8.7,1.5s-.2,1.3-.7,1.6-1.1.5-2,.5h-1.7v-4.1Z"/>
  <path class="st15" d="M375.1,259.9l-1.8,6.8c-.1.5-.3,1-.4,1.6-.1.5-.3,1-.4,1.5-.1.5-.2,1-.4,1.6h0c-.1-.5-.3-1.1-.4-1.6-.1-.5-.2-1-.4-1.5-.1-.5-.3-1-.4-1.6l-1.7-6.8h-3.5l4.3,14.7h4l4.5-14.7h-3.4,0Z"/>
  <polygon class="st3" points="400.5 79.4 402.1 79.4 402.1 88.5 400.5 88.5 400.5 91.3 407 91.3 407 88.5 405.4 88.5 405.4 79.4 407 79.4 407 76.6 400.5 76.6 400.5 79.4"/>
  <path class="st3" d="M418.7,87.5c-.4.3-.7.6-1.2.8-.5.2-1,.4-1.5.4s-1.4-.2-2-.6c-.6-.4-1-.9-1.3-1.6s-.5-1.6-.5-2.6.2-1.8.5-2.5.8-1.2,1.3-1.6c.5-.4,1.1-.6,1.8-.6s1,0,1.4.3c.4.2.8.4,1.2.8l1.8-2c-.5-.5-1.1-1-1.9-1.3s-1.6-.6-2.5-.6-1.8.2-2.6.5c-.8.3-1.6.8-2.2,1.5-.6.7-1.1,1.5-1.5,2.4s-.5,2-.5,3.2.3,3,1,4.1c.6,1.1,1.5,2,2.5,2.5s2.2.8,3.5.8,1.8-.2,2.5-.5c.8-.3,1.5-.9,2.1-1.6l-1.7-2h0Z"/>
  <polygon class="st11" points="392.2 240.9 395.5 240.9 395.5 235.2 400.6 235.2 400.6 232.4 395.5 232.4 395.5 229 401.4 229 401.4 226.2 392.2 226.2 392.2 240.9"/>
  <path class="st11" d="M414.1,233.5c.5-.7.8-1.6.8-2.8s-.3-2.1-.8-2.7c-.5-.7-1.2-1.1-2-1.4s-1.8-.4-2.8-.4h-5.3v14.7h3.3v-5.3h1.8l2.8,5.3h3.7l-3.3-5.9c.8-.3,1.4-.8,1.8-1.5h0ZM407.3,228.8h1.7c.9,0,1.5.1,2,.4s.7.8.7,1.5-.2,1.3-.7,1.6-1.1.6-2,.6h-1.7v-4.1Z"/>
  <path class="st11" d="M426.9,237.1c-.4.3-.7.6-1.2.9-.5.2-1,.4-1.5.4s-1.4-.2-2-.6c-.6-.4-1-.9-1.3-1.6s-.5-1.6-.5-2.6.2-1.8.5-2.5.8-1.2,1.3-1.6c.5-.4,1.1-.6,1.8-.6s1,0,1.4.3.8.4,1.2.8l1.8-2c-.5-.5-1.1-1-1.9-1.4s-1.6-.6-2.5-.6-1.8.2-2.6.5c-.8.4-1.6.9-2.2,1.5-.6.7-1.1,1.5-1.5,2.4s-.5,2-.5,3.2.3,3,1,4.1c.6,1.1,1.5,2,2.5,2.5s2.2.8,3.5.8,1.8-.2,2.5-.5c.8-.4,1.5-.9,2.1-1.6l-1.7-2h0Z"/>
  <path class="st7" d="M450.1,117.1c-.1.5-.3,1.1-.4,1.6-.1.5-.3,1-.4,1.6s-.2,1-.4,1.6h0c-.1-.5-.3-1.1-.4-1.6-.1-.5-.2-1-.4-1.6-.1-.5-.3-1.1-.4-1.6l-1.7-6.8h-3.5l4.3,14.7h4l4.5-14.7h-3.4l-1.8,6.8h0Z"/>
  <path class="st7" d="M465.8,121.1c-.4.3-.7.6-1.2.8-.5.2-1,.4-1.5.4s-1.4-.2-2-.6c-.6-.4-1-.9-1.3-1.6s-.5-1.6-.5-2.6.2-1.8.5-2.5.8-1.2,1.3-1.6c.5-.4,1.1-.6,1.8-.6s1,0,1.4.3c.4.2.8.4,1.2.8l1.8-2c-.5-.5-1.1-1-1.9-1.3s-1.6-.6-2.5-.6-1.8.2-2.6.5c-.8.3-1.6.8-2.2,1.5-.6.7-1.1,1.5-1.5,2.4s-.5,2-.5,3.2.3,3,1,4.1c.6,1.1,1.5,2,2.5,2.5s2.2.8,3.5.8,1.8-.2,2.5-.5c.8-.3,1.5-.9,2.1-1.6l-1.7-2h0Z"/>
  <path class="st15" d="M453.5,267.2c.5-.7.8-1.6.8-2.8s-.3-2.1-.8-2.7c-.5-.7-1.2-1.1-2-1.4s-1.8-.4-2.8-.4h-5.3v14.7h3.3v-5.3h1.8l2.8,5.3h3.7l-3.3-5.9c.8-.3,1.4-.8,1.8-1.5h0ZM446.6,262.5h1.7c.9,0,1.5.1,2,.4.5.3.7.8.7,1.5s-.2,1.3-.7,1.6-1.1.5-2,.5h-1.7v-4.1Z"/>
  <path class="st15" d="M464.3,259.9l-1.8,6.8c-.1.5-.3,1-.4,1.6-.1.5-.3,1-.4,1.5-.1.5-.2,1-.4,1.6h0c-.1-.5-.3-1.1-.4-1.6-.1-.5-.2-1-.4-1.5-.1-.5-.3-1-.4-1.6l-1.7-6.8h-3.5l4.3,14.7h4l4.5-14.7h-3.4,0Z"/>
  <polygon class="st10" points="482 146.7 486 146.7 486 158.6 489.3 158.6 489.3 146.7 493.3 146.7 493.3 144 482 144 482 146.7"/>
  <polygon class="st10" points="498.9 144 495.6 144 495.6 158.6 504.7 158.6 504.7 155.8 498.9 155.8 498.9 144"/>
  <path class="st10" d="M515.6,154.8c-.3.3-.7.6-1.2.9-.5.2-1,.4-1.5.4s-1.4-.2-2-.6c-.6-.4-1-.9-1.3-1.6s-.5-1.6-.5-2.6.2-1.8.5-2.5.8-1.2,1.3-1.6c.5-.4,1.1-.6,1.8-.6s1,0,1.4.3.8.4,1.2.8l1.8-2c-.5-.5-1.1-1-1.9-1.4s-1.6-.6-2.5-.6-1.8.2-2.6.5c-.8.4-1.6.9-2.2,1.5-.6.7-1.1,1.5-1.5,2.4s-.5,2-.5,3.2.3,3,1,4.1c.6,1.1,1.5,2,2.5,2.5s2.2.8,3.5.8,1.8-.2,2.5-.5c.8-.4,1.5-.9,2.1-1.6l-1.7-2h0Z"/>
</svg>