<?xml version="1.0" encoding="UTF-8" standalone="no"?>
<svg xmlns="http://www.w3.org/2000/svg" xmlns:svg="http://www.w3.org/2000/svg" xml:space="preserve" width="130mm" height="80mm" version="1.1" shape-rendering="geometricPrecision" text-rendering="geometricPrecision" image-rendering="optimizeQuality" fill-rule="evenodd" clip-rule="evenodd" viewBox="0 0 13000 8000" id="svg264">
 <defs id="defs148">
    <linearGradient id="id0" gradientUnits="userSpaceOnUse" x1="806.87" y1="7483.05" x2="1232.19" y2="5006.28">
     <stop offset="0" stop-opacity="1" stop-color="#FEFEFD" id="stop135"/>
     <stop offset="0.101961" stop-opacity="1" stop-color="#FEFEFD" id="stop137"/>
     <stop offset="0.188235" stop-opacity="1" stop-color="#DF8EA4" id="stop139"/>
     <stop offset="0.521569" stop-opacity="1" stop-color="#DA7A95" id="stop141"/>
     <stop offset="0.831373" stop-opacity="1" stop-color="#DF8EA4" id="stop143"/>
     <stop offset="1" stop-opacity="1" stop-color="#FEFEFE" id="stop145"/>
    </linearGradient>
 </defs>
 <g id="Layer_x0020_2">
  <metadata id="CorelCorpID_0Corel-Layer"/>
  <g id="_40804834640">
   <path id="path7976" fill="#D2D2D2" d="M12224.82 5332.07c-245.04,190.52 250.08,2120.43 -659.97,2197.16 -833.83,70.31 -2033.45,-476.01 -2571.74,-1137.24 -587.29,-721.43 -654.84,-1573.2 -520.25,-2460.85 405.66,-1548.78 1389.86,-2450.01 3032.82,-2417.28 816.88,16.27 645.24,609.7 661.74,1244.13 10.49,403.03 33.9,819.37 57.4,1232.91 23.5,-413.54 46.91,-829.88 57.39,-1232.91 15.04,-578.28 -126.08,-1122.39 467.38,-1226.52l0 5969.4c-723.33,-251.96 -292.96,-1988.57 -524.77,-2168.8z"/>
   <path id="path7980" fill="#858585" d="M12224.82 4210.49c-114.3,0.86 -226.85,-26.03 -313.45,-82.48 -388.29,-253.19 -207.51,-395.9 -391.79,-619.09 -86.57,-104.84 -279.03,-262.39 -392.37,-364.1 -72.17,-64.76 -1458.03,-1310.22 -1311.62,-720.44l7.6 30.63c201.22,481.55 891.29,1131.19 953.49,1540.48 25.91,170.49 -61.07,275.89 -113.05,428.38 -76.65,224.81 -174.77,225.7 -382.96,318.3 -82.55,36.71 -81.08,114.11 -100.99,204.69 -56.1,255.15 53.35,224.48 199.7,384.16 120.01,130.93 173.71,65.65 202.86,316.35 15.1,129.93 2.47,254.4 99.46,355.69 137.21,143.29 37.3,118.84 251.65,259.16l58.54 36.58c117.99,71.28 152.17,57.57 306.96,29.03 91.3,-16.84 219.26,-218.14 231.36,-341.06 44.71,-453.62 -363.38,-876.06 408.57,-993.98 83.13,-11.91 182.48,-20.22 286.04,-20.66 103.55,0.44 202.9,8.75 286.03,20.66 97.23,14.85 175.69,34.55 238.74,58.52l0 -1112.09c-40.1,57.18 -103.92,118.75 -211.33,188.79 -86.59,56.45 -199.15,83.34 -313.44,82.48z"/>
   <path id="path7916" fill="#464646" d="M12483.61 4611.08c-0.13,142.79 -115.97,258.63 -258.82,258.63 -142.92,0 -258.76,-115.84 -258.76,-258.69 0,-142.92 115.84,-258.76 258.76,-258.76 142.85,0 258.69,115.84 258.69,258.76l0.13 0.06z"/>
   <path fill="#434242" fill-rule="nonzero" d="M12486.35 4611.08c-0.07,72.15 -29.39,137.52 -76.72,184.82 -47.32,47.28 -112.68,76.55 -184.84,76.55 -72.2,0 -137.58,-29.27 -184.89,-76.58 -47.33,-47.31 -76.61,-112.68 -76.61,-184.85 0,-72.21 29.28,-137.6 76.59,-184.91 47.32,-47.32 112.71,-76.59 184.91,-76.59 72.17,0 137.54,29.27 184.86,76.6 46.92,46.94 76.1,111.65 76.56,183.16l0.14 0.07 0 1.73zm-80.58 180.95c45.97,-45.94 74.57,-109.27 75.1,-179.22l-0.13 -0.07 0 -1.72c0,-70.71 -28.65,-134.72 -74.96,-181.04 -46.32,-46.33 -110.31,-74.98 -180.99,-74.98 -70.7,0 -134.72,28.66 -181.04,74.98 -46.32,46.32 -74.98,110.33 -74.98,181.04 0,70.68 28.65,134.67 74.98,180.99 46.32,46.3 110.34,74.96 181.04,74.96 70.66,0 134.65,-28.65 180.98,-74.94z" id="path154"/>
   <path fill="#525252" fill-rule="nonzero" d="M12749.02 7502.51c-462.66,-161.15 -454.53,-926.94 -448.38,-1507.13 3.48,-326.97 6.3,-594.85 -75.82,-661.05 -82.13,66.21 -79.27,334.12 -75.76,661.15 6.78,632.28 15.92,1484.9 -584.07,1535.49 -413.37,34.85 -916.55,-81.72 -1384.54,-288.67 -476.65,-210.78 -916.9,-515.35 -1188.68,-849.21 -293.85,-360.96 -457.68,-754.54 -531.2,-1168.9 -73.51,-414.28 -56.75,-849.32 10.56,-1293.31l0.05 -0.17c207.53,-792.34 566.45,-1415.32 1087.46,-1830.59 497.91,-396.85 1143.82,-604 1947.07,-588 686.02,13.67 676.65,433.07 665.25,942.48 -2.2,98.51 -4.48,200.4 -1.8,303.35 5.24,201.44 13.71,406.29 23.81,612.47 9.6,195.91 20.68,393.14 31.85,589.82 11.16,-196.68 22.24,-393.91 31.84,-589.82 10.1,-206.18 18.58,-411.03 23.82,-612.47 2.67,-102.88 0.4,-204.71 -1.79,-303.15 -10.15,-455.6 -18.71,-839.19 470.6,-925.05l0.3 1.72 0 1.76c-486.06,85.45 -477.55,467.62 -467.43,921.51 2.2,98.48 4.47,200.34 1.79,303.29 -5.24,201.58 -13.72,406.43 -23.82,612.56 -10.11,206.24 -21.83,413.69 -33.58,620.41l-1.73 30.55 -1.74 -30.55c-11.75,-206.72 -23.47,-414.17 -33.58,-620.41 -10.1,-206.13 -18.57,-410.98 -23.81,-612.56 -2.68,-103.01 -0.4,-204.95 1.8,-303.49 11.35,-507.51 20.69,-925.35 -661.84,-938.94 -802.39,-15.99 -1447.57,190.9 -1944.84,587.25 -520.38,414.76 -878.89,1037.06 -1086.24,1828.6 -67.26,443.64 -84.01,878.3 -10.58,1292.15 73.43,413.79 237.03,806.83 530.47,1167.29 271.44,333.44 711.21,637.66 1187.39,848.23 467.49,206.73 970.06,323.18 1382.86,288.38 596.77,-50.32 587.64,-901.09 580.87,-1531.99 -3.53,-329.41 -6.42,-599.05 78.17,-664.81l1.06 -0.84 1.07 0.84c84.59,65.76 81.74,335.35 78.24,664.71 -6.14,578.87 -14.25,1342.83 445.47,1503.61l0 1.85 -0.57 1.64z" id="path156"/>
   <path fill="#525252" fill-rule="nonzero" d="M12749.59 3942.23c-19.83,27.93 -45.33,56.92 -78.76,87.4 -34.53,31.47 -77.57,64.58 -131.62,99.83 -42.55,27.73 -91.33,48.37 -143.48,62.09 -54.36,14.3 -112.42,21.12 -170.91,20.68 -58.5,0.44 -116.56,-6.38 -170.92,-20.68 -52.15,-13.72 -100.92,-34.36 -143.48,-62.09 -237.7,-155 -262.7,-268.76 -288.18,-384.8 -16.16,-73.57 -32.53,-148.08 -104,-234.64 -65.05,-78.78 -190.15,-187.52 -296.35,-279.82 -34.88,-30.31 -67.73,-58.86 -95.84,-84.09l-0.85 -0.76c-68.05,-61.08 -1038.64,-932.15 -1270.27,-874.65 -44.71,11.1 -61.35,57.82 -37.65,153.26l7.56 30.5c90.03,215.37 278.03,464.57 463.8,710.79 229.37,304.01 455.35,603.53 489.76,829.98 18.66,122.75 -20.92,211.78 -64.02,308.71 -16.93,38.08 -34.42,77.4 -49.11,120.49 -64.03,187.83 -142.95,219.95 -288.01,278.99 -29.19,11.88 -61.08,24.86 -95.88,40.34 -67.54,30.03 -78.21,87.96 -91.09,158.07 -2.7,14.67 -5.5,29.88 -8.91,45.39 -40.16,182.66 4.97,217.96 87.64,282.62 32.42,25.35 70.56,55.19 111.64,100.01 37,40.37 67.73,62.05 93.34,80.12 57.68,40.7 89.75,63.33 109.96,237.21 2.99,25.69 4.89,51.08 6.76,76.09 7.61,101.73 14.8,197.72 92.23,278.59 53.77,56.14 71.24,86.63 85.39,111.31 21.85,38.14 35.72,62.34 165.93,147.57l58.54 36.58c108.88,65.77 146.07,58.78 273.99,34.73l31.73 -5.93c43.87,-8.09 96.48,-59.51 140.42,-124.28 46.6,-68.69 83.34,-152.32 89.53,-215.24 12.96,-131.51 -12.25,-260.56 -35.63,-380.28 -8.24,-42.15 -16.25,-83.17 -22.29,-122.72 -36.05,-235.99 -2.37,-420.69 467.96,-492.54 43.42,-6.21 91.26,-11.45 141.79,-15.1 46.28,-3.34 94.89,-5.35 144.5,-5.56 49.62,0.21 98.23,2.22 144.51,5.56 50.53,3.65 98.37,8.89 141.78,15.1 48.78,7.45 92.88,16.14 132.71,25.97 39.33,9.71 74.46,20.55 105.78,32.42l0 3.58 -0.05 0.12c-31.52,-12.01 -66.91,-22.96 -106.56,-32.75 -39.65,-9.78 -83.64,-18.45 -132.39,-25.89 -43.32,-6.21 -91.07,-11.44 -141.52,-15.08 -46.29,-3.34 -94.82,-5.36 -144.25,-5.56 -49.44,0.2 -97.97,2.22 -144.26,5.56 -50.45,3.64 -98.2,8.87 -141.52,15.08 -467.28,71.38 -500.78,254.55 -465.04,488.57 6.04,39.52 14.04,80.48 22.26,122.58 23.43,119.93 48.69,249.23 35.68,381.28 -6.25,63.48 -43.23,147.72 -90.12,216.85 -44.4,65.46 -97.82,117.48 -142.66,125.75l-31.72 5.92c-128.94,24.25 -166.42,31.3 -276.44,-35.17l-58.57 -36.6c-130.97,-85.73 -145,-110.21 -167.11,-148.79 -14.05,-24.52 -31.42,-54.82 -84.87,-110.64 -78.31,-81.79 -85.54,-178.37 -93.2,-280.73 -1.87,-25.05 -3.78,-50.46 -6.74,-75.96 -20.03,-172.33 -51.65,-194.63 -108.51,-234.75 -25.73,-18.16 -56.61,-39.95 -93.9,-80.63 -40.86,-44.59 -78.9,-74.34 -111.21,-99.62 -83.8,-65.53 -129.54,-101.31 -88.91,-286.08 3.42,-15.57 6.21,-30.69 8.89,-45.28 13.07,-71.1 23.88,-129.84 93.09,-160.62 35.07,-15.61 66.88,-28.55 95.99,-40.4 144.1,-58.65 222.51,-90.55 286.04,-276.87 14.71,-43.16 32.24,-82.59 49.22,-120.78 42.88,-96.45 82.26,-185.02 63.75,-306.79 -34.28,-225.59 -259.99,-524.75 -489.1,-828.41 -185.92,-246.43 -374.09,-495.84 -464.27,-711.66l-7.69 -30.89c-24.28,-97.82 -6.63,-145.84 40.2,-157.46 233.4,-57.94 1205.29,814.3 1273.41,875.43l0.86 0.77c27.94,25.07 60.85,53.68 95.79,84.05 106.3,92.38 231.5,201.21 296.76,280.24 72.01,87.22 88.48,162.14 104.72,236.11 25.33,115.34 50.18,228.41 286.68,382.62 42.21,27.52 90.65,48 142.46,61.63 54.08,14.23 111.84,21.01 170.03,20.58 58.2,0.43 115.96,-6.35 170.04,-20.58 51.81,-13.63 100.25,-34.11 142.47,-61.63 53.85,-35.12 96.75,-68.12 131.17,-99.49 34.38,-31.34 60.3,-61.06 80.25,-89.64l0.85 0.59 0 4.22z" id="path158"/>
  </g>
 </g>
 <g id="Layer_x0020_3">
  <metadata id="CorelCorpID_1Corel-Layer"/>
  <g id="_40801656064">
   <polygon fill="#FFFBDB" points="1250.51,323.35 1250.51,2190.92 390.32,2190.92 390.32,323.35 " id="polygon163"/>
   <path fill="#FBD9CA" d="M943.65 323.35c-17.42,61.36 -27.94,122.73 -0.62,188.75 7.75,18.72 8.94,22.54 12.45,43.86 4.19,89.94 -66.78,117.7 -114.02,141.88 -35.42,17.66 -161.75,76.32 -98.29,157.06 48.38,55.02 173,78.4 152.6,197.9 -25.05,109.63 -158.23,135.12 -167.56,252.08 -1.89,84.57 60.63,110.3 105.31,141.37 86.69,60.29 103.1,131.3 18.16,216.42 -46.98,46.27 -141.62,114.5 -114.57,213.74 27.69,101.59 134,194.97 162.97,314.51l-509.76 0 0 -1867.57 553.33 0z" id="path165"/>
   <polygon fill="#AB8082" points="443.75,323.35 443.75,2190.92 390.32,2190.92 390.32,323.35 " id="polygon167"/>
  </g>
  <g id="_40801081200">
   <path fill="url(#id0)" d="M1454.4 6367.22c-36.7,168.78 -303.87,810.13 -424.87,910.89 -78.68,65.53 -161.66,118.09 -223.57,204.29 1.6,-128.83 -56.06,-183.65 -68.48,-309.94 -23.42,-246.32 -25.56,-512.66 -24.48,-760.6 4.73,-259.71 209.34,-897.45 327.41,-1134.81 63.73,-128.14 138.95,-143.11 190.67,-270.56 38.08,161.48 129,185.66 162.04,346.02 45.41,220.37 100.04,804.01 61.28,1014.71z" id="path170"/>
   <path fill="#707070" d="M805.99 7447.14c-0.18,-52.51 -8.98,-95.2 -17.96,-138.76 -8.48,-41.09 -17.11,-82.97 -18.85,-134.59 -3.91,-125.46 -3.69,-257.37 -1.28,-389.37 2.4,-131.9 6.97,-264.08 11.74,-390.02 6.41,-132.28 68.22,-419.12 145.25,-685.95 66.04,-228.77 143.3,-442.89 206.5,-532.38 12.08,-17.11 22.24,-30.56 31.11,-42.3 24.5,-32.41 39.2,-51.87 57.59,-99.95 -24.74,50.29 -53.67,81.29 -83.64,113.41 -31.77,34.05 -64.73,69.37 -95.04,130.32 -63.97,128.61 -153.39,374.89 -222.61,614.83 -58.46,202.62 -102.51,400.69 -104.68,519.49 -0.54,124.03 -0.27,252.62 3.05,380.87 3.32,128.32 9.72,256.46 21.43,379.61 5.6,56.97 20.43,99.39 34.86,140.63 14.47,41.39 28.54,81.62 32.53,134.16zm-15.77 -139.21c9.1,44.1 18.01,87.33 18.02,140.74 4.12,-54.34 0.98,-100.77 -2.23,-148.08 -2.67,-39.47 -5.39,-79.58 -3.97,-125.53 5.3,-161.33 16.03,-324 26.75,-486.51 6.55,-99.34 13.1,-198.63 18.4,-297.57 9.21,-149.21 61.48,-425.46 129.18,-686.55 58.23,-224.54 127.9,-437.92 191.43,-549.68 16.65,-29.3 27.72,-49.78 36.87,-71.27 5.98,-14.05 11.13,-28.54 16.51,-46.22 -18.02,46.43 -32.71,65.87 -56.89,97.86 -8.86,11.74 -19.01,25.17 -31.07,42.24 -63.03,89.26 -140.19,303.13 -206.17,531.71 -76.99,266.68 -138.76,553.32 -145.17,685.43 -4.77,125.8 -9.34,257.87 -11.74,389.96 -2.4,132.01 -2.63,263.88 1.28,389.25 1.73,51.44 10.35,93.22 18.8,134.22zm439.79 -2301.78l0.03 -0.07 1.04 0.41 1.1 -0.25 0.01 0.04c18.72,79.35 50.25,125.5 81.37,171.02 32.15,47.04 63.86,93.44 80.66,174.99 25.25,122.51 53.34,357.29 66.67,577.85 10.64,176.31 11.85,343.59 -5.39,437.28l0 0.03c-20.76,95.48 -115.22,342.07 -215.27,556.57 -76.95,164.98 -157.26,311.05 -209.98,354.96 -19.33,16.09 -38.94,31.43 -58.42,46.66 -59.73,46.69 -118.35,92.53 -164.96,157.41l-0.91 -0.65 -1.12 -0.02c0.87,-70.39 -16.02,-118.68 -33.49,-168.66 -14.48,-41.39 -29.36,-83.95 -34.99,-141.15 -11.71,-123.17 -18.1,-251.37 -21.43,-379.77 -3.33,-128.49 -3.6,-257.04 -3.05,-380.95 2.16,-119.04 46.26,-317.31 104.76,-520.09 69.25,-240.04 158.73,-486.46 222.76,-615.21 30.47,-61.26 63.54,-96.7 95.4,-130.85 34.83,-37.33 68.24,-73.13 95.21,-139.55zm-396.56 2439.83c41.15,-47.17 88.71,-84.36 136.99,-122.11 19.46,-15.21 39.04,-30.52 58.38,-46.62 52.44,-43.67 132.55,-189.45 209.38,-354.18 99.98,-214.35 194.36,-460.72 215.1,-556.09 17.19,-93.49 15.98,-260.57 5.34,-436.71 -13.31,-220.46 -41.39,-455.1 -66.62,-577.53 -16.71,-81.11 -48.3,-127.33 -80.32,-174.18 -24.29,-35.54 -48.84,-71.46 -67.4,-123.19 14.56,47.44 34.23,82.64 53.6,117.29 28.1,50.25 55.56,99.38 66.04,182.93 16.72,133.4 34.09,369.69 39.34,590 4.02,169.23 0.9,329.09 -15.18,425.74l0 0.03c-18.64,93.29 -103.78,337.24 -194.06,550.73 -69.39,164.07 -141.87,310.22 -189.61,356.28 -19.07,18.4 -38.07,35.44 -56.78,52.22 -40.41,36.24 -79.48,71.29 -114.2,115.39zm-5.46 3.36c35.75,-46.51 76.24,-82.84 118.15,-120.42 18.76,-16.82 37.81,-33.9 56.74,-52.17 47.5,-45.82 119.8,-191.69 189.09,-355.53 90.23,-213.35 175.31,-457.11 193.92,-550.29 16.05,-96.48 19.16,-256.18 15.14,-425.29 -5.25,-220.28 -22.61,-456.47 -39.32,-589.77 -10.42,-83.12 -37.78,-132.06 -65.76,-182.12 -22.1,-39.53 -44.59,-79.76 -59.49,-137.98 9.25,60.98 26.34,97.36 43.66,134.23 24.16,51.46 48.8,103.91 53.48,225.11 5.64,146.21 11.33,305.5 12.02,464.34 0.68,158.86 -3.63,317.31 -18,461.83 -10.06,96.91 -76.4,321.18 -152.76,530.77 -68.16,187.05 -144.34,362.5 -195.64,425.36l-0.03 0.04c-18.23,20.77 -36.43,39.75 -54.29,58.37 -34.35,35.84 -67.48,70.38 -96.91,113.52zm0.59 -4.81c28.91,-41.64 61.22,-75.34 94.7,-110.26 17.87,-18.64 36.08,-37.64 54.22,-58.3 51.14,-62.69 127.17,-237.86 195.25,-424.69 76.31,-209.44 142.6,-433.49 152.64,-530.23 14.35,-144.41 18.67,-302.79 17.98,-461.59 -0.68,-158.83 -6.37,-318.09 -12.01,-464.26 -4.67,-120.76 -29.2,-173 -53.27,-224.24 -14.84,-31.61 -29.51,-62.84 -39.28,-109.42 2.51,15.18 5.84,30.4 10.8,47.93 7.99,28.29 15.02,50.27 21.08,69.23 19.47,60.86 29,90.66 27.86,194.61 -1.62,147.32 -4.15,300.44 -9.33,453.46 -5.17,152.96 -12.99,305.69 -25.2,452.2 -10.2,119.64 -42.22,261.56 -83.96,404.58 -53.69,183.93 -123.48,369.7 -183.62,512.19 -26.55,62.3 -62.34,107.58 -98.8,153.7 -23.52,29.74 -47.32,59.85 -69.06,95.09zm-3.51 1.42c22.23,-36.45 46.67,-67.36 70.81,-97.9 36.36,-46 72.06,-91.16 98.49,-153.18 60.13,-142.44 129.88,-328.12 183.54,-511.95 41.7,-142.87 73.69,-284.65 83.88,-404.14 12.2,-146.52 20.02,-299.21 25.19,-452.08 5.17,-152.8 7.7,-305.97 9.32,-453.41 1.14,-103.61 -8.36,-133.29 -27.74,-193.91 -6.08,-19.01 -13.14,-41.07 -21.12,-69.3 -5.32,-18.82 -8.77,-35 -11.35,-51.31 -0.71,-4.52 -1.36,-9.06 -1.96,-13.66l0.26 3.76c0.99,13.69 2.38,27.37 4.57,42.18 4.94,33.35 9.83,58.88 14.1,81.18 11.15,58.22 18.11,94.52 11.02,192.78 -6.48,89.88 -12.63,180.39 -18.8,271.07 -14.65,215.67 -29.38,432.43 -48.85,645.5 -11.59,125.2 -40.5,269.55 -77.53,414.52 -46.07,180.38 -104.73,361.78 -158.23,508.5 -20.44,55.56 -50.36,102.41 -80.86,150.16 -18.72,29.31 -37.66,58.98 -54.74,91.19zm-4.81 4.34c17.83,-34.37 37.87,-65.74 57.66,-96.74 30.43,-47.64 60.29,-94.39 80.64,-149.72 53.47,-146.65 112.11,-327.96 158.16,-508.28 37.01,-144.88 65.91,-289.12 77.48,-414.18 19.45,-212.93 34.18,-429.74 48.84,-645.45 6.17,-90.64 12.31,-181.11 18.8,-271.07 7.06,-97.96 0.13,-134.15 -10.99,-192.2 -4.26,-22.27 -9.15,-47.75 -14.11,-81.27 -1.76,-11.91 -3.01,-23.09 -3.94,-34.16 0.76,23 2.06,46.56 3.37,70.22 3.69,66.74 7.42,134.33 -0.68,192.83 -39.74,287.25 -67.5,568 -95.82,854.4l-11.08 111.86c-15.32,153.43 -42.72,305.32 -77.01,455.81 -34.3,150.52 -75.46,299.56 -118.29,447.29 -19.03,65.34 -45,118.2 -71.48,172.1 -14.02,28.56 -28.2,57.42 -41.55,88.56zm-3.43 2.31c13.78,-32.44 28.46,-62.31 42.97,-91.86 26.44,-53.82 52.36,-106.6 71.33,-171.73 42.85,-147.8 84.01,-296.84 118.27,-447.17 34.26,-150.39 61.65,-302.19 76.96,-455.54l11.08 -111.86c28.32,-286.41 56.08,-567.17 95.83,-854.47 8.06,-58.29 4.34,-125.78 0.66,-192.42 -1.7,-30.7 -3.38,-61.22 -3.9,-90.59 -0.94,13.67 -1.83,27.34 -2.71,40.98 -5.14,79.11 -10.23,157.41 -24.64,236.43 -30.62,167.9 -57.65,331.23 -81.46,495.02 -23.81,163.82 -44.4,328.14 -62.14,497.97 -15.82,152.69 -38.39,297.45 -65.4,441.4 -26.99,143.87 -58.46,287.06 -92.07,436.6 -16.3,72.47 -37.39,132 -59.4,194.14 -8.4,23.7 -16.93,47.79 -25.38,73.1zm-2.41 0.14c8.55,-25.66 17.18,-50.02 25.67,-73.98 22,-62.1 43.07,-121.59 59.33,-193.88 33.59,-149.43 65.04,-292.54 92.06,-436.53 27,-143.92 49.56,-288.62 65.37,-441.22 17.74,-169.86 38.34,-334.2 62.15,-498.05 23.82,-163.88 50.86,-327.24 81.47,-495.11 14.38,-78.88 19.47,-157.13 24.6,-236.18l2.62 -39.61c-2.37,15.94 -4.85,31.46 -7.56,46.92 -4.45,25.45 -9.54,50.8 -15.8,77.71 -46.71,200.7 -92.17,399.35 -130.57,599.39 -38.38,199.98 -69.69,401.3 -88.09,607.33 -18.8,217.36 -52.9,424.97 -87.82,637.55 -5.92,36.04 -11.87,72.23 -17.77,108.63 -10.86,67.34 -20.73,125.53 -32.06,183.61 -9.62,49.32 -20.32,98.61 -33.6,153.42zm-2.24 -0.28c13.29,-54.86 24,-104.19 33.63,-153.56 11.35,-58.15 21.21,-116.3 32.06,-183.55 5.89,-36.4 11.84,-72.59 17.76,-108.63 34.92,-212.54 69.01,-420.1 87.81,-637.39 18.4,-206.13 49.72,-407.51 88.11,-607.54 38.39,-199.98 83.87,-398.7 130.6,-599.48 6.24,-26.83 11.32,-52.15 15.77,-77.6 2.62,-14.95 5.02,-29.95 7.32,-45.33 -2.97,13.16 -6.01,25.39 -9.41,37.51 -6.03,21.49 -13.19,42.62 -23.09,67.93 -57.6,147.15 -118.29,366.77 -168.35,590.59 -52.37,234.2 -93.09,473.01 -106.43,638.19 -14.34,189.06 -34.22,370.45 -54.51,555.6 -5.36,48.83 -10.73,97.93 -16.05,147.49 -5.14,48.3 -8.71,97.51 -12.29,146.75 -5.61,77.24 -11.23,154.57 -22.93,229.02zm-1.69 -3.76c11.33,-73.31 16.86,-149.41 22.38,-225.43 3.58,-49.2 7.15,-98.38 12.3,-146.83 5.32,-49.56 10.69,-98.66 16.05,-147.49 20.29,-185.09 40.16,-366.43 54.5,-555.53 13.35,-165.26 54.09,-404.18 106.49,-638.49 50.07,-223.94 110.81,-443.69 168.44,-590.92 9.86,-25.21 17,-46.28 23.01,-67.73 3.42,-12.17 6.47,-24.47 9.47,-37.73 -5.33,17.47 -10.46,31.85 -16.4,45.81 -9.17,21.54 -20.27,42.09 -36.98,71.49 -63.42,111.56 -133.01,324.74 -191.2,549.14 -67.67,260.95 -119.91,537.03 -129.11,686.12 -5.3,98.81 -11.85,198.17 -18.41,297.59 -10.73,162.58 -21.46,325.33 -26.74,486.43 -1.42,45.76 1.3,85.85 3.97,125.31 3.2,47.35 6.35,93.81 2.23,148.26z" id="path172"/>
  </g>
  <g id="_40803833312">
   <g id="g179">
    <path fill="#A4D0C3" d="M1624.16 1727.24c203.43,-48.01 219.27,19.18 101.08,-228.93 -41.94,-88.05 -151.44,-115.83 -244.84,-155.11 -176.55,-69.82 -263.53,-77.85 -422.12,34.88 -220.28,156.58 -401.41,70.54 -430.55,94.77 -0.29,0.24 -35.46,44.52 -41.43,20.29 -0.19,-0.81 13.28,-65.9 23.66,-48.23 10.1,17.18 34.94,3.87 66.21,2.27 190.09,-9.74 183.36,3 347.02,-124.99 306.86,-239.74 572.93,30.36 611.77,-16.36 9.2,-11.07 -84.26,-264.31 -188.9,-281.2 -99.87,-15.77 -209.41,28.58 -302.44,61.3 -157.25,54.3 -353.65,103.92 -511.39,19.94 -12.13,-6.45 -52.37,37.97 -34.44,-45.12 1,-4.64 40.27,31.71 70.59,38.32 107.13,23.37 227.75,33.31 152.56,-104.76 -22.91,-42.06 -71.31,-208.12 -125.03,-178.37 -37.18,20.59 -13.87,-53.77 -9.57,-51.6 1.57,0.79 39.35,30.73 50.6,38.26 90.78,60.76 109.72,331.1 314.06,251.63 81.87,-31.84 126.14,-64 220.18,-92.47 141.98,-36.95 236.54,18.5 34.87,-176.7 -151.68,-142.83 -420.01,-343.29 -640.43,-295.59 -19.54,4.22 -117.5,77.21 -119.06,75.46 -0.37,-0.4 -11.41,-57.38 11.14,-42.18 38.31,25.81 56.25,-50.26 104.4,-61.06 265.09,-59.48 597.83,142.65 764.33,333.31 208.56,238.82 337.41,563.85 487.76,842.13 231.79,423.96 547.5,671.88 1012.18,812.2 492.65,148.76 946.45,-31.06 1438.24,-83.48l48.76 -5.2c352.75,-35.22 641.11,84.09 999.96,97.27 147.48,5.42 943.92,33.03 931.91,-193.35 -0.74,-14.07 -5.32,-34.27 -11.1,-57.75 -160.93,-37.53 -205.88,-365.71 -271.28,-510.98 -117.34,-260.7 -312.6,-531.57 20.57,-720.98 494.82,-169.6 705.69,826.18 451.58,1143.21 32.59,93.92 65.21,185.95 163,159.27 129.61,-35.38 294.35,-115.11 441.88,-158.49 203.63,-59.89 528.03,-137.66 737.02,-172.39 644.98,-90.62 1743.38,128.04 2288.67,489.18 413.77,292.44 902.84,845.58 1009.74,1351.22 13.94,56.51 39.46,52.92 82.97,81.86 18.46,12.28 24.13,15.64 44.61,24.74 43.49,19.32 28.37,30.64 -10.46,29.35 -28.69,-0.95 -46.17,-6.29 -73.3,-10.43 -32.27,-4.91 -46.69,6.27 -73.44,23.46 -21.33,13.84 -25.36,19.7 -43.17,35.94 -25.33,23.07 -38.98,18.5 -23.94,-15.63 12.19,-27.65 44.42,-81.5 45.39,-110.27 0.75,-22.02 -7.65,-43.17 -17.63,-62.36 -58.62,-102.05 -112.78,-215.12 -163.36,-321.66 -5.63,-11.86 -11.47,-25.24 -17.5,-36.79 -104.84,-191.88 -222.27,-359.5 -367.92,-522.56 -146.86,-156.98 -296.47,-273.16 -478.89,-386 -447.56,-270.39 -1461.58,-460.91 -1985.52,-420.6 -165.72,12.74 -314.12,40.48 -474.89,81.55 -238.04,65.42 -423.06,119.7 -657.22,201.16 -149.48,51.99 -247.49,82.65 -406.54,92.3 -97.02,5.89 -226.68,97.1 -347.29,131.72 -463.89,133.15 -947.71,18.79 -1411.34,-50.09 -823.76,-110.95 -1231.56,337.24 -2134.67,-57.15 -369.44,-161.34 -608.46,-384.12 -810.9,-729.87 -30,-51.24 -62.96,-28.9 -135.05,-15.64 -238.86,47.52 -422.29,143.14 -674.45,184.91 -108.74,18.01 -249.82,41.9 -358.08,23.3 -27.6,-4.74 -32.61,62.48 -41.4,-6.38 -4.53,-35.56 5.71,2.17 63.8,-1.22 307.31,-17.91 175.91,-22.06 -1.33,-117.22 -9.11,-4.9 -50.17,-24.19 -55.02,-17.53 -24.43,33.52 -20.32,51.32 -9.13,-30.91 1.97,-14.48 24.16,21.92 50.88,20.69 73.41,-3.37 223.05,127.45 426.65,86.05 178.63,-36.32 326.73,-118.99 506.98,-164.34z" id="path175"/>
    <path fill="#4A7568" fill-rule="nonzero" d="M1623.25 1723.32c42.38,-10 76.62,-15.02 103.23,-18.92 39.5,-5.79 61.56,-9.02 67.19,-21.78 7.52,-17.03 -10.06,-53.57 -49.86,-136.29l-22.2 -46.29c-34.12,-71.63 -114.69,-102.9 -193.97,-133.68 -16.4,-6.36 -32.76,-12.71 -48.72,-19.42 -87.77,-34.7 -153.2,-54.06 -216.11,-50.74 -62.81,3.31 -123.58,29.27 -202.2,85.16 -159.67,113.5 -298.85,100.48 -375.3,93.34 -28.31,-2.64 -47.68,-4.46 -54.77,1.04l-0.08 0.1c-2.81,3.41 -20.69,24.98 -33.5,28.13 -6.81,1.68 -12.28,-0.6 -14.56,-9.87 -0.14,-0.57 4.57,-25.71 10.85,-41.29 1.65,-4.1 3.44,-7.69 5.29,-10.21 2.62,-3.55 5.64,-5.37 9.09,-4.58 2.17,0.49 4.14,2.04 5.79,4.86 5.48,9.32 18.09,7.03 34.55,4.05 8.48,-1.54 17.89,-3.25 27.99,-3.77 17.53,-0.89 33.73,-1.62 48.47,-2.27 140.67,-6.26 148.93,-6.63 296.29,-121.87 219.07,-171.15 417.24,-84.8 528.25,-36.45 43.33,18.89 72.79,31.7 82.57,21.08 1.25,-9.35 -13.46,-55.04 -38.17,-106.99 -24.98,-52.51 -60.16,-110.81 -99.43,-143.45 -15.7,-13.05 -32.02,-21.96 -48.51,-24.62 -89.66,-14.15 -187.83,20.93 -274.41,51.87l-26.08 9.26c-78.88,27.23 -167.6,53.3 -256.44,62.03 -89.18,8.77 -178.49,0.07 -258.16,-42.34 -1.71,-0.91 -6.38,0.87 -11.32,2.75 -6.15,2.35 -12.64,4.82 -18.4,3.58 -10.11,-2.18 -15.63,-14.71 -6.77,-55.83 0.69,-3.08 2.64,-4.13 5.74,-3.46 2.81,0.62 8.15,4.37 15.38,9.43 14.15,9.91 36.13,25.3 54.26,29.26 53,11.55 109.24,19.84 142.5,8.3 31.51,-10.94 41.59,-41.27 5.68,-107.21 -5.37,-9.87 -11.94,-25.94 -19.58,-44.66 -10.88,-26.68 -24.01,-58.82 -38.61,-85.2 -18.96,-34.22 -40.2,-58.64 -61.36,-46.92 -12.67,7.02 -20.06,4.68 -23.97,-2.39 -3.49,-6.31 -3.19,-16.83 -1.35,-26.98 1.78,-9.78 4.99,-19.45 7.49,-24.4 2.26,-4.49 5.1,-6.46 8.12,-4.93 0.9,0.45 6.76,4.98 14.43,10.91 12.39,9.6 29.71,23 36.59,27.6 30.8,20.61 53.16,63.89 76.93,109.91 47.05,91.08 99.86,193.27 233.45,141.31 32.63,-12.68 59.25,-25.42 85.44,-37.94 39.66,-18.97 78.38,-37.49 135.03,-54.63l0.15 -0.03c33.42,-8.7 64.09,-12.31 88.99,-15.24 28.19,-3.31 48.75,-5.74 56.01,-13.24 12.79,-13.21 -14.48,-47.14 -111.87,-141.41 -87.68,-82.57 -214.43,-184.44 -348.21,-246.18 -96.64,-44.6 -196.93,-68.25 -288.62,-48.41 -11.82,2.55 -56.63,33.59 -87.3,54.83 -18.71,12.96 -32.68,22.64 -35.61,19.38 -0.24,-0.27 -4.57,-19.02 -3.98,-32.79 0.18,-4.08 0.73,-7.88 1.83,-10.88 1.4,-3.82 3.7,-6.53 7.2,-7.47 3.12,-0.85 6.86,-0.06 11.33,2.94 18.39,12.38 32.32,-3.56 48.47,-22.05 14.29,-16.35 30.17,-34.52 52.81,-39.59 120.9,-27.13 255.63,-0.32 382.37,54.95 152.94,66.69 294.4,174.89 385.87,279.63 153.12,175.35 263.25,396.81 370.38,612.24 39.04,78.51 77.69,156.22 117.89,230.64 115.62,211.48 252.17,379.05 417.72,511.22 165.56,132.17 360.23,229.02 592.08,299.03 350.89,105.94 682.41,44.71 1022.07,-18.04 136.28,-25.17 273.87,-50.6 414.59,-65.59l48.76 -5.2c206.34,-20.6 390.45,11.48 579.4,44.4 134.71,23.47 271.9,47.38 421.12,52.86 73.68,2.7 309.48,10.95 525.24,-9.74 214.04,-20.52 408.36,-69.23 402.52,-179.39 -0.37,-6.86 -1.67,-15.24 -3.58,-24.77 -1.8,-8.91 -4.18,-19.01 -6.84,-29.89 -117.77,-29.74 -173.41,-210.94 -220.26,-363.63 -17.44,-56.85 -33.67,-109.71 -51.36,-149 -15.3,-34.01 -31.81,-67.92 -48.28,-101.8 -111.63,-229.48 -222.63,-457.66 70.54,-624.32l0.68 -0.32c85.71,-29.37 163.08,-24.18 231.13,6.22 90.16,40.28 163.78,124.83 218.7,231.76 54.75,106.59 90.99,235.5 106.56,364.91 25.48,211.78 -4.41,425.19 -99,544.9 15.94,45.9 32,91.14 55.72,121.62 23.46,30.13 54.76,45.81 101.71,33 65.59,-17.89 140.45,-47.3 217.51,-77.56 74.72,-29.35 151.53,-59.52 224.29,-80.91 105.59,-31.05 243.51,-66.89 380.94,-99.03 127.96,-29.93 255.64,-56.69 356.57,-73.46l0.09 -0.02c328.43,-46.15 774.17,-12.23 1204.7,79.79 416.18,88.95 818.32,232.24 1086.75,410.01l0.09 0.07c223.69,158.09 469.34,392.25 664.88,653.92 166.75,223.14 297.12,466.39 346.46,699.66 9.9,40.14 26.01,48.67 50.75,61.74 9.02,4.77 19.15,10.13 30.53,17.69 9.2,6.12 15.2,10.01 21.28,13.41 6.19,3.46 12.64,6.53 22.73,11.02 14.09,6.26 22.47,11.91 26.13,16.73 2.55,3.35 3.2,6.57 2.19,9.58 -0.94,2.82 -3.31,5.08 -6.89,6.74 -6.61,3.07 -18.47,4.49 -33.64,3.99 -19.9,-0.67 -34.41,-3.39 -50.33,-6.38 -7.18,-1.34 -14.68,-2.75 -23.44,-4.08 -28.63,-4.36 -42.72,4.75 -65.48,19.49l-5.19 3.37c-15.84,10.27 -21.97,16.08 -31.62,25.23 -3.26,3.09 -6.92,6.56 -11.01,10.29 -9.41,8.58 -17.52,13.6 -23.46,14.95 -3.55,0.81 -6.58,0.42 -8.96,-1.16 -2.46,-1.62 -3.98,-4.32 -4.39,-8.06 -0.63,-5.58 1.32,-14.25 6.48,-25.95 3.28,-7.45 8.02,-16.8 13.2,-27.04 13.91,-27.48 31.18,-61.58 31.86,-81.74 0.35,-10.5 -1.49,-20.87 -4.62,-30.92 -3.17,-10.15 -7.68,-20.03 -12.58,-29.45 -29.33,-51.1 -57.53,-104.89 -84.71,-159.21 -27.34,-54.66 -53.48,-109.47 -78.7,-162.6l-5.53 -11.85c-3.9,-8.46 -7.9,-17.14 -11.89,-24.77 -52.32,-95.76 -107.81,-185.5 -168.4,-271.66 -60.59,-86.17 -126.27,-168.72 -198.97,-250.11 -73.24,-78.3 -147.21,-146.45 -225.61,-209.08 -78.45,-62.67 -161.32,-119.84 -252.35,-176.15 -215.12,-129.94 -561.51,-241.46 -921.32,-317.68 -387.53,-82.1 -790.52,-123.22 -1061.84,-102.35 -82.71,6.36 -161.12,16.47 -238.9,30.11 -77.8,13.64 -155.01,30.83 -235.29,51.34 -118.96,32.67 -224.68,62.59 -329.89,94.5 -105.23,31.91 -209.98,65.83 -327,106.54 -74.84,26.02 -136.82,46.72 -200.05,62.13 -63.32,15.44 -127.82,25.55 -207.57,30.39 -54.71,3.33 -120.53,34.45 -189.21,66.91 -51.83,24.5 -105.3,49.77 -157.22,64.68 -396.36,113.76 -806.86,47.27 -1206.94,-17.53 -68.66,-11.12 -137.01,-22.2 -206.08,-32.45 -332.79,-44.82 -597.8,1.83 -855.08,47.13 -379.32,66.79 -741.97,130.64 -1280.61,-104.59 -185.14,-80.85 -337.62,-177.12 -469.18,-296.49 -131.54,-119.35 -242.16,-261.8 -343.59,-435.04 -22.48,-38.4 -47.34,-32.57 -91.76,-22.14 -11.54,2.71 -24.38,5.72 -39.05,8.42 -110.76,22.05 -209.64,54.46 -308.99,87.03 -114.79,37.64 -230.24,75.49 -365.58,97.9l-4.49 0.75c-108.41,17.96 -247.49,41.01 -354.92,22.56 -9.2,-1.58 -16.01,8.16 -20.98,15.27 -3.5,5.03 -6.34,9.08 -10.2,9.58 -5.96,0.75 -10.04,-7.41 -13.52,-34.69 -1.78,-14.02 -1.21,-19.11 4.55,-19.85 2.72,-0.34 5.62,1.09 9.91,3.2 8.97,4.42 25.39,12.52 53.1,10.9 131.61,-7.67 181,-12.15 180.53,-20.16 -0.31,-5.38 -24.41,-15.83 -61.59,-31.92 -33.04,-14.31 -76.01,-32.92 -121.96,-57.58 -5.59,-3 -23.42,-11.54 -37.13,-15.9 -6.86,-2.19 -12.19,-3.56 -12.74,-2.81 -6.88,9.44 -11.48,17.67 -14.24,22.62 -5.2,9.29 -7.84,14.01 -10.79,4.08 -0.5,-1.74 0.16,-5.72 1.52,-13.74 1.55,-9.22 4.1,-24.26 7.16,-46.77 0.74,-5.49 3.37,-7.39 7.54,-6.82 3.54,0.48 7.68,3.74 12.89,7.85 8.84,6.96 21.29,16.78 34.26,16.19 26.03,-1.2 60.45,13.52 102.99,31.71 80.4,34.38 190.34,81.4 323.02,54.42 95.98,-19.52 183.3,-52.53 271.54,-85.89 75.66,-28.61 152.02,-57.48 235.27,-78.42l0.07 -0.02zm104.39 -10.95c-26.47,3.87 -60.52,8.86 -102.57,18.79 -82.84,20.84 -158.94,49.62 -234.33,78.12 -88.52,33.47 -176.12,66.58 -272.76,86.23 -135.18,27.49 -246.42,-20.08 -327.79,-54.88 -41.61,-17.79 -75.28,-32.19 -99.48,-31.08 -15.96,0.72 -29.78,-10.17 -39.58,-17.89 -3.18,-2.51 -5.87,-4.63 -7.58,-5.62 -2.33,17.12 -4.36,29.85 -5.87,38.98 2.21,-3.53 4.81,-7.46 7.85,-11.63 3.09,-4.25 11.65,-3.3 21.65,-0.12 14.31,4.56 32.76,13.37 38.52,16.47 45.85,24.61 88.52,43.09 121.33,57.29 39.95,17.3 65.84,28.51 66.45,38.85 0.85,14.69 -50.67,20.62 -188.13,28.64 -29.79,1.73 -47.45,-6.98 -57.1,-11.73 -2.96,-1.46 -4.98,-2.45 -5.35,-2.44 -0.84,0.1 1.39,2.74 2.42,10.87 2.7,21.22 3.89,27.81 4.54,27.73 0.33,-0.04 2.26,-2.8 4.63,-6.2 6.21,-8.89 14.71,-21.05 28.91,-18.61 106.13,18.22 244.46,-4.7 352.28,-22.56l4.49 -0.75c134.67,-22.3 249.86,-60.07 364.39,-97.61 99.61,-32.66 198.76,-65.17 309.92,-87.28l0.05 0c14.19,-2.61 27.11,-5.64 38.73,-8.37 48.1,-11.29 75.02,-17.61 100.51,25.93 101,172.5 211.13,314.33 342.08,433.14 130.91,118.79 282.67,214.6 466.97,295.07 536.4,234.25 897.89,170.6 1276.02,104.03 257.87,-45.41 523.48,-92.17 857.58,-47.17 67.59,10.03 136.76,21.24 206.22,32.49 399.19,64.65 808.78,130.99 1203.48,17.71 51.34,-14.74 104.47,-39.85 155.99,-64.21 69.39,-32.8 135.89,-64.24 192.16,-67.66 79.3,-4.81 143.34,-14.85 206.16,-30.16 62.88,-15.32 124.67,-35.96 199.3,-61.92 117.12,-40.74 221.98,-74.69 327.31,-106.63 105.33,-31.95 211.13,-61.89 330.17,-94.6l0.07 -0.03c80.47,-20.56 157.87,-37.79 235.88,-51.46 78.04,-13.68 156.71,-23.83 239.7,-30.21 272.01,-20.92 675.86,20.27 1064.1,102.51 360.62,76.39 707.91,188.24 923.8,318.66 91.4,56.55 174.54,113.9 253.21,176.75 78.69,62.89 152.96,131.32 226.53,209.96l0.06 0.06c72.95,81.67 138.82,164.47 199.56,250.84 60.74,86.37 116.39,176.38 168.89,272.48l0.04 0.06c4.18,8.01 8.18,16.68 12.09,25.14l5.49 11.79c25.35,53.4 51.59,108.42 78.62,162.44 27.17,54.3 55.33,108.03 84.57,158.94l0.1 0.14c5.08,9.77 9.77,20.07 13.11,30.78 3.37,10.82 5.35,22.06 4.97,33.57 -0.74,21.96 -18.44,56.92 -32.7,85.1 -5.12,10.1 -9.79,19.32 -13.03,26.66 -4.55,10.34 -6.33,17.58 -5.85,21.83 0.14,1.22 0.43,1.96 0.84,2.23 0.48,0.32 1.42,0.33 2.76,0.03 4.61,-1.05 11.43,-5.43 19.8,-13.06 4.53,-4.12 7.88,-7.31 10.89,-10.16 9.99,-9.46 16.32,-15.48 32.8,-26.17l5.2 -3.36c24.36,-15.77 39.43,-25.52 71.03,-20.71 8.44,1.28 16.25,2.75 23.72,4.15 15.63,2.93 29.87,5.61 49.11,6.25 13.92,0.46 24.5,-0.7 30.01,-3.26 1.52,-0.71 2.44,-1.39 2.64,-1.98 0.14,-0.42 -0.16,-1.14 -0.96,-2.19 -2.88,-3.79 -10.21,-8.57 -22.98,-14.24 -10.38,-4.62 -17.02,-7.78 -23.39,-11.34 -6.48,-3.62 -12.57,-7.57 -21.82,-13.72 -11.06,-7.35 -20.99,-12.61 -29.84,-17.28 -26.68,-14.1 -44.04,-23.29 -54.81,-66.97l-0.04 -0.15c-49.05,-232.03 -178.91,-474.24 -345.07,-696.59 -195.01,-260.96 -439.95,-494.47 -662.97,-652.1 -267.57,-177.2 -668.7,-320.09 -1083.96,-408.85 -429.69,-91.84 -874.41,-125.7 -1201.92,-79.68 -100.57,16.71 -228.04,43.44 -355.94,73.35 -137.42,32.14 -275.19,67.93 -380.5,98.9 -72.37,21.28 -149.04,51.4 -223.64,80.69 -77.2,30.32 -152.2,59.78 -218.32,77.82 -50.83,13.87 -84.75,-3.13 -110.18,-35.81 -24.81,-31.88 -41.24,-78.72 -57.66,-126.02l-0.73 -2.09 1.39 -1.73c94.27,-117.62 124.01,-329.8 98.64,-540.68 -15.46,-128.54 -51.41,-256.49 -105.7,-362.2 -54.13,-105.37 -126.46,-188.59 -214.83,-228.07 -66.14,-29.55 -141.42,-34.59 -224.92,-6.05 -286.17,162.92 -176.87,387.65 -66.92,613.64 16.59,34.13 33.22,68.3 48.38,101.98 17.86,39.68 34.17,92.81 51.7,149.95 46.55,151.7 101.88,331.97 216.82,358.77l2.4 0.56 0.59 2.4c2.88,11.7 5.48,22.65 7.47,32.58 2,9.96 3.37,18.73 3.75,25.93 6.16,116.19 -191.74,166.88 -409.79,187.79 -216.32,20.75 -452.49,12.49 -526.28,9.78 -149.85,-5.5 -287.26,-29.45 -422.19,-52.96 -188.44,-32.83 -372.03,-64.82 -577.2,-44.34l-48.76 5.2c-140.49,14.98 -277.9,40.36 -413.99,65.5 -340.65,62.93 -673.14,124.35 -1025.85,17.85 -232.82,-70.3 -428.36,-167.6 -594.76,-300.45 -166.4,-132.84 -303.62,-301.22 -419.78,-513.69 -40.22,-74.44 -78.93,-152.27 -118.03,-230.9 -106.9,-214.97 -216.79,-435.96 -369.22,-610.51 -90.78,-103.95 -231.2,-211.35 -383.03,-277.56 -125.3,-54.64 -258.32,-81.19 -377.4,-54.47 -20.08,4.5 -35.05,21.63 -48.52,37.04 -18.66,21.36 -34.76,39.77 -59.01,23.43 -2.31,-1.56 -3.85,-2.09 -4.76,-1.84 -0.64,0.17 -1.21,1.09 -1.72,2.47 -0.8,2.18 -1.21,5.16 -1.35,8.45 -0.53,12.12 1.79,26.94 1.93,27.1 1.81,2.01 9.67,-9.99 25.05,-20.64 31.21,-21.62 76.8,-53.2 90.17,-56.09 93.61,-20.25 195.6,3.71 293.69,48.98 134.71,62.17 262.19,164.61 350.34,247.62l0.05 0.05c101.8,98.53 129.2,135.14 112.08,152.82 -9.25,9.56 -31.03,12.13 -60.86,15.63 -24.65,2.91 -54.99,6.48 -87.72,14.98 -56.27,17.04 -94.61,35.38 -133.9,54.17 -26.38,12.61 -53.2,25.44 -86,38.2 -140.32,54.56 -194.87,-51.02 -243.5,-145.13 -23.28,-45.08 -45.18,-87.47 -74.25,-106.92 -7.16,-4.79 -24.57,-18.26 -37.03,-27.91l-10.69 -8.25c-2.2,4.56 -4.95,13.04 -6.53,21.72 -1.57,8.63 -2,17.25 0.46,21.7 1.61,2.92 5.52,3.41 13.05,-0.76 26.67,-14.77 51.17,11.95 72.27,50.04 14.8,26.74 28.05,59.16 39.05,86.07 7.61,18.6 14.13,34.57 19.19,43.86 39.28,72.12 26.63,105.87 -10.13,118.62 -35.04,12.16 -92.69,3.78 -146.81,-8.02 -19.66,-4.28 -42.47,-20.26 -57.15,-30.54 -3.96,-2.77 -7.3,-5.11 -9.56,-6.56 -6.42,31.46 -3.95,40.8 1.49,41.97 3.43,0.74 8.78,-1.3 13.84,-3.23 6.68,-2.54 13,-4.95 17.97,-2.31 78.06,41.56 165.83,50.05 253.6,41.42 88.1,-8.65 176.21,-34.55 254.58,-61.61l26.02 -9.27c87.47,-31.25 186.64,-66.69 278.35,-52.21 18.03,2.91 35.64,12.45 52.41,26.38 40.33,33.52 76.19,92.85 101.56,146.19 25.49,53.59 40.43,101.76 38.81,111.84 -0.22,1.36 -0.69,2.48 -1.38,3.32 -13.29,15.97 -45.17,2.09 -92.31,-18.45 -109.43,-47.67 -304.79,-132.8 -520.09,35.41 -149.39,116.83 -157.8,117.21 -300.9,123.57 -14.5,0.64 -30.41,1.35 -48.4,2.27 -9.68,0.5 -18.79,2.15 -26.99,3.64 -19.57,3.55 -34.56,6.27 -42.89,-7.89l-0.63 -1.08c-0.19,-0.04 -0.18,0.6 -0.84,1.5 -1.43,1.94 -2.9,4.93 -4.31,8.44 -5.78,14.35 -10.54,35.72 -10.51,36.38 0.88,3.57 2.69,4.52 4.84,3.99 10.2,-2.51 26.63,-22.33 29.23,-25.46 0.3,-0.34 0.55,-0.65 0.9,-0.95 9.45,-7.85 30.27,-5.91 60.86,-3.06 75.41,7.05 212.67,19.89 369.92,-91.89 79.95,-56.83 141.99,-83.25 206.45,-86.64 64.35,-3.39 130.7,16.18 219.48,51.29l0.08 0.04c15.79,6.64 32.17,13 48.57,19.37 80.78,31.36 162.87,63.22 198.35,137.71 9.83,20.63 16.28,34.04 22.16,46.26 40.93,85.05 59.01,122.62 50,143.02 -7.43,16.84 -31.08,20.31 -73.4,26.51z" id="path177"/>
   </g>
   <g id="g187">
    <path fill="#FBE2E9" fill-rule="nonzero" d="M6146.27 1395.59c17.19,-91.46 54.53,-141.14 98.92,-158.68 23.98,-9.48 49.88,-9.53 75.7,-1.68 25.28,7.68 50.44,22.99 73.56,44.42 69.59,64.49 121.71,185.56 102.9,321.99 -12.79,92.75 -50.34,144.82 -96.61,163.73 -23.5,9.6 -49.06,10.64 -74.68,4.11 -25.17,-6.43 -50.46,-20.21 -73.85,-40.36 -70.83,-61 -124.92,-181.32 -106.04,-333.03l0.1 -0.5z" id="path181"/>
    <path fill="#F5B2B6" d="M6146.27 1395.59c17.19,-91.46 54.53,-141.14 98.92,-158.68 23.98,-9.48 49.88,-9.53 75.7,-1.68 25.28,7.68 50.44,22.99 73.56,44.42 69.59,64.49 121.71,185.56 102.9,321.99 -12.79,92.75 -50.34,144.82 -96.61,163.73 -23.5,9.6 -49.06,10.64 -74.68,4.11 -25.17,-6.43 -50.46,-20.21 -73.85,-40.36 -70.83,-61 -124.92,-181.32 -106.04,-333.03l0.1 -0.5zm40.02 -101.8c-15.79,25.34 -28.47,59.14 -36.61,102.43l-0.06 0.29c-8.75,70.37 -1.71,133.9 15.44,187.76 19.52,61.3 52.14,110.12 89.42,142.23 11.49,9.9 23.45,18.24 35.61,24.88 12.12,6.62 24.49,11.58 36.83,14.73 12.63,3.21 25.22,4.55 37.51,3.87 12.02,-0.65 23.77,-3.23 35,-7.82 23.45,-9.58 44.66,-28.02 61.37,-56.35 15.45,-26.19 27.07,-60.79 33.11,-104.63 8.77,-63.61 1.99,-123.85 -14.81,-176.46 -18.92,-59.2 -50.56,-108.73 -87.02,-142.53 -11.41,-10.58 -23.34,-19.65 -35.53,-27 -12.07,-7.3 -24.38,-12.91 -36.67,-16.65 -12.75,-3.87 -25.52,-5.77 -38.04,-5.49 -12.06,0.26 -23.94,2.57 -35.37,7.09 -22.48,8.88 -43.14,26.33 -60.18,53.65z" id="path183"/>
    <path fill="#F5B2B6" fill-rule="nonzero" d="M6251.75 1253.51c-20.22,7.98 -38.88,24.07 -54.36,49.53 -14.27,23.47 -25.87,54.92 -33.51,95.32 -8.42,67.83 -1.76,128.98 14.57,180.75 18.61,59 49.77,105.85 85.42,136.55 10.61,9.14 21.62,16.83 32.8,22.96 11.16,6.11 22.51,10.68 33.79,13.56 11.14,2.84 22.24,4.03 33.02,3.48 10.54,-0.54 20.8,-2.77 30.55,-6.75 21.16,-8.64 40.31,-25.66 55.48,-52.07 13.96,-24.3 24.54,-56.56 30.19,-97.57 8.44,-61.24 2,-119.17 -14.07,-169.71 -18.09,-56.93 -48.38,-104.49 -83.32,-136.86 -10.64,-9.87 -21.69,-18.3 -32.89,-25.1 -11.12,-6.75 -22.43,-11.93 -33.69,-15.36 -11.15,-3.38 -22.31,-5.06 -33.21,-4.84 -10.54,0.21 -20.87,2.2 -30.77,6.11zm-57.32 47.72c15.9,-26.15 35.15,-42.7 56.04,-50.96 10.28,-4.06 21.02,-6.13 31.98,-6.34 11.26,-0.23 22.77,1.5 34.28,5 11.53,3.5 23.11,8.8 34.48,15.71 11.43,6.94 22.68,15.51 33.47,25.52 35.34,32.75 65.98,80.83 84.26,138.35 16.21,51 22.72,109.45 14.21,171.23 -5.72,41.46 -16.45,74.15 -30.63,98.83 -15.57,27.11 -35.33,44.62 -57.18,53.55 -10.15,4.14 -20.79,6.45 -31.69,7.01 -11.13,0.58 -22.57,-0.65 -34.05,-3.58 -11.55,-2.95 -23.17,-7.62 -34.61,-13.89 -11.38,-6.24 -22.6,-14.08 -33.4,-23.38 -36.11,-31.1 -67.65,-78.49 -86.46,-138.12 -16.47,-52.23 -23.2,-113.9 -14.7,-182.25l0.02 -0.11c7.72,-40.86 19.48,-72.72 33.98,-96.57z" id="path185"/>
   </g>
  </g>
  <g id="_40959689168">
   <g id="g194">
    <path fill="#A4D0C3" d="M8839.73 6966.15c-880.85,100.03 -1954.34,-163.03 -2828.58,-329.46 -466.04,-88.72 -694.77,-205.41 -1122.09,-345.03 -565.19,-176.76 -977.76,-86.59 -1518.8,103.43 -128.28,45.05 -148.53,77.59 -254.16,158.28 -566.04,417.19 -766.11,422.59 -1441.07,503.15 -174.59,21.07 -327.02,68.29 -495.13,113.71 -54.27,14.62 -116.23,31.08 -171.31,41.65 -44.64,6.6 -63.75,-2.31 -81.18,48.85 -1.52,4.45 -7.18,19.46 -14.4,12.24 -2.8,-2.8 -1.53,-15.65 -2.25,-21.29 -4.94,-38.13 -26.3,-77.2 -14.74,-115.62 6.3,-18.81 15.66,-9.05 22.21,1.7 15.6,25.6 38.48,51.07 71.57,44.16 5.96,-1.25 23.49,-9.06 31.37,-11.73 147.3,-49.99 295.88,-94.95 444.96,-139.28 5.57,-1.66 11.26,-3.43 16.85,-4.98 80.93,-19.85 157.44,-33.75 239.67,-46.65 433.37,-64.08 750.54,-72.98 1118.9,-348.12l62.45 -48.44c79.67,-65.62 63.2,-60.04 -33.38,-46.62 -344.64,47.81 -607.47,82.17 -941.87,-50.39 -12.11,-4.8 -10.03,-1.15 -15.33,12.43 -21.24,54.42 -58.68,127.14 -93.88,173.46 -23.1,30.41 -48.52,55.93 -81.05,76.22 -62.16,38.04 -161.16,56.89 -232.23,74.89 -39.38,9.97 -78.26,20.58 -117.17,32.25 -64.54,19.45 -134.99,41.86 -200.32,57.4 -11.75,2.8 -17.28,3.27 -28.44,4.9 -23.18,3.37 -59.67,31.48 -72.82,49.68 -5.81,8.04 -13.64,21.37 -23.74,8.98 -6.83,-8.37 -2.3,-23.45 -0.66,-33.27 4.72,-26.38 7.01,-29.05 3.29,-56.33 -4.21,-30.85 -16.84,-95.53 33,-42.62 15.11,16.04 34.71,35.42 58.94,34.61 4.07,-0.14 5.9,-0.75 9.7,-1.94 24.9,-9.75 50.86,-22.45 75.53,-33.22 102.81,-44.27 208.12,-86.71 312.77,-126.53l58.37 -22.2c63.86,-24.55 124.22,-49.14 155.22,-113.85 16.86,-35.19 28.72,-83.11 40.84,-120.92 2.62,-8.15 8.8,-24.32 4.57,-32.27 -5.19,-9.76 -30.88,-29 -40.87,-37.93 -97.39,-87.03 -179.64,-189.22 -266.94,-285.98 -56.37,-62.4 -110.19,-115.89 -174.28,-170.52 -14.53,-12.39 -24.72,-27.32 -39.73,-40.75 -26.14,-23.39 -44.53,-32.88 -69.31,-1.36 -10.13,12.89 -17.4,20.58 -35.55,16.75 -18.54,-3.93 -4.86,-22.22 -0.1,-34.02 6.41,-15.87 12.04,-56.14 6.03,-71.7l-0.95 -2.12c-3.83,-6.72 -3.92,-9.63 6.69,-9.22 30.45,3.44 37.95,39.51 66.9,49.94 26.08,9.39 30.98,9.07 56.47,25.42 27.71,17.77 57.22,34.28 85.36,52.18 29.86,18.97 59.26,38.73 87.21,60.44 3.8,2.97 7.45,5.95 11.11,9.09 228.57,199.05 209.6,336.58 575.1,428.54 28.47,7.25 56.47,16.35 84.54,23.43 33.57,8.47 31.39,-2.54 22.96,-32.6 -7.18,-25.59 -15.29,-50.91 -22.45,-76.62 -118.86,-430.61 -376.91,-780.6 -771.75,-994.07 -21.27,-11.62 -45.32,-24.35 -66.1,-36.53 -9.37,-5.81 -31.17,-23.57 -42.22,-20.74 -9.53,2.45 -18.57,20.68 -25.4,29.38 -12.94,16.5 -35.89,34.86 -31.44,-1.92 2.9,-23.89 3.33,-32.88 1.08,-56.66 -1.26,-13.35 -0.62,-23.61 -11.18,-32.54 -11.11,-9.4 15.57,-9.34 23.86,-6.57 26.1,8.73 37.38,15.92 57.36,33.68 12.86,11.44 26.83,19.19 42.53,26.03 83.11,34.58 165.96,72.26 245.96,113.54 15.65,8.1 31.41,16.48 46.46,25.66 204.35,125.91 321.35,281.41 443.13,484.28 89.58,153 161.59,321.86 216.98,490.19 4.48,13.64 14.3,54.22 24.61,62.94 11.63,9.84 51.39,6.77 66.34,6.74 14.62,-0.03 29.09,0.18 43.71,0.57 663.51,19.64 1245.8,-503.18 2064.8,-440.12 161.87,12.45 301.11,42.76 456.74,87.46 415.47,124.71 645.08,235.64 1095.25,311.43 839.41,141.31 1920.91,384.35 2757.84,274.69 740.77,-111.88 1566.93,-378.2 1950.13,-1079.2 62.18,-113.73 23.32,-289.92 36.36,-437.2 12.86,-145.16 87.47,-522.95 232.77,-674.29 -10.6,-9.26 -19.6,-20.44 -26.43,-32.29 -27.73,-48.09 -32.82,-118.94 -30.03,-173.51 1.52,-29.69 8.6,-31.32 23.39,-5.39 10.45,18.32 13.22,34.16 21.33,51.38 3.83,8.12 9.41,2.44 16.29,-2.03 25.4,-16.53 21.51,-22.56 30.39,-48.78 4.46,-13.14 5.71,0.46 7.48,7.34l1.12 4.3c9.14,42.77 -12.24,46.43 -37.28,74.33 -8.27,9.21 -4.95,13.31 -1.59,24.56 7.59,25.48 15.68,51.89 44.94,55.71 1.81,0.24 3.56,0.47 5.25,0.72 27.32,-15.32 56.66,-22.68 88.08,-19.87 8.35,-21.44 17.64,-42.59 26.38,-62.66 23.99,-55.15 19.94,-76.23 -32.44,-111.66 -13.29,-9.16 -30.29,-22.38 -47.01,-22.42 -33.82,-0.06 -57.48,-12.11 -83.97,-32.54 -30.71,-23.69 -53.09,-54.29 -66.28,-90.74 -6.01,-18.79 -5.26,-15.76 -15.37,-31.53 -8.48,-13.22 9.81,0.37 12.45,2.8 29.62,30.38 57.3,84.51 91.9,104.75l2.57 1.5c19.68,10.91 14.17,-7.52 16.07,-23.54 1.71,-12.64 3.5,-20.34 11.63,-30.49 16.74,34.29 -10.38,45.04 43.58,64.04 47.6,15.72 113.7,41.75 129.29,94.36 10.1,36.61 -4.56,77.49 -15.56,112.46 -4.89,15.53 -9.19,29.2 -13.09,42.9 11.8,5.58 23.85,12.6 36.16,21.04 4.98,-7.87 9.94,-15.84 14.83,-24.03 29.36,-49.21 92.83,-159.5 73.31,-217.54 -20.72,-45.94 -61.67,-36.7 -75.02,-76.75 -5.68,-17.01 -6.22,-14.31 -24.44,-15.03 -42.6,-1.7 -131.71,-6.6 -154.26,-49.08 -12.48,-23.51 23.52,0.5 30.66,3.91 42.5,20.27 80.06,13.8 125.13,13.12 44.18,-0.66 30.03,-6.22 63.2,-27.02 22.84,-14.31 55.03,-26.25 80.18,-37.34 2.34,-1.04 26.36,-12.66 22.63,-1.4 -12.1,27.49 -138.35,60.85 -99.17,104.91 8.06,9.06 19.57,17.48 28.83,25.62 103.63,96.94 66.79,172.23 3.4,280.23 -12.41,21.15 -25.08,42.13 -37.69,63.15 5.95,5.77 11.95,11.84 18.02,18.31 215.8,230.1 121.4,718.12 -71.19,940.64 -142.29,164.42 -269.9,243.42 -422.4,442.68 -330.09,431.3 -478.66,572.5 -978.5,804.32 -306.66,138.98 -628.61,195.44 -960.12,238.2l-62.27 7.41z" id="path190"/>
    <path fill="#4A7568" fill-rule="nonzero" d="M8840.25 6970.68c-750.43,85.21 -1640.05,-92.75 -2427.55,-250.27 -138.19,-27.64 -273.26,-54.67 -402.39,-79.24 -326.47,-62.15 -536.56,-138 -779.82,-225.81 -104.12,-37.59 -214.36,-77.39 -342.79,-119.35 -281.97,-88.18 -525.84,-109.78 -766.65,-85.65 -240.97,24.16 -479.08,94.13 -749.3,189.03 -99.63,34.99 -133.65,62.42 -194.03,111.12 -16.91,13.63 -35.89,28.94 -58.85,46.48l-0.07 0.06c-539.05,397.29 -746.75,421.8 -1346.63,492.56l-96.61 11.44c-146.42,17.67 -277.32,53.8 -415,91.8 -26.91,7.43 -54.04,14.91 -79.48,21.79 -27.02,7.28 -56.01,15.03 -85.44,22.36 -29.22,7.28 -58.57,14.06 -86.19,19.36l-0.19 0.03c-7.88,1.17 -15.2,1.87 -21.81,2.5 -27.89,2.67 -42.35,4.05 -55.72,43.3 -0.83,2.45 -2.83,7.83 -5.7,11.73 -4.19,5.7 -9.73,8.81 -16.25,2.28 -3.18,-3.18 -3.24,-10.55 -3.29,-17.14 -0.02,-2.67 -0.04,-5.21 -0.25,-6.81 -1.57,-12.18 -4.98,-24.8 -8.39,-37.45 -7.12,-26.44 -14.31,-53.09 -6.2,-80.05l0.05 -0.14c4.25,-12.68 10.38,-15.43 16.88,-13.07 5.13,1.86 9.83,7.75 13.54,13.84 7.54,12.38 16.8,24.69 28.03,32.97 10.83,7.99 23.64,12.26 38.73,9.11 3.18,-0.67 10.8,-3.74 17.97,-6.62 4.9,-1.97 9.62,-3.88 12.86,-4.97 73.6,-24.98 147.63,-48.74 221.93,-71.8 74.31,-23.06 148.71,-45.38 223.18,-67.53l5.04 -1.51c3.81,-1.15 7.67,-2.32 11.91,-3.49l0.14 -0.04c40.59,-9.95 80.02,-18.41 119.56,-25.98 39.35,-7.53 79.13,-14.25 120.48,-20.73 56.56,-8.38 112.06,-15.92 165.9,-23.24 351.46,-47.75 632.13,-85.89 950.96,-324.05l62.34 -48.33c36.04,-29.68 51.48,-43.29 49.28,-45.96 -2.76,-3.36 -24.95,-0.23 -63.59,5.22l-15.59 2.19c-172.48,23.92 -324.5,44.49 -475.46,42.48 -151.11,-2.01 -300.95,-26.65 -468.71,-93.16 -4.4,-1.73 -5.27,-1.77 -5.74,-0.59l-1.2 3.43c-0.68,2.05 -1.5,4.51 -2.47,7.01 -11.24,28.79 -26.98,62.66 -44.51,95.07 -15.81,29.21 -33.14,57.31 -50,79.49 -11.71,15.42 -24.01,29.6 -37.47,42.46 -13.52,12.92 -28.26,24.58 -44.8,34.89 -52.05,31.84 -129.14,50.29 -194.68,65.96 -13.07,3.12 -25.72,6.15 -38.85,9.47 -20.03,5.08 -39.59,10.22 -58.67,15.46 -19.16,5.26 -38.57,10.83 -58.3,16.75l-35.39 10.72c-54.56,16.61 -111.77,34.04 -165.18,46.75 -9.49,2.25 -15.06,3.03 -22.74,4.1l-6.1 0.85c-10,1.46 -22.94,8.05 -35.24,16.44 -14.42,9.84 -27.76,22.02 -34.52,31.37l-1.38 1.95c-2.52,3.57 -5.37,7.61 -8.84,10.43 -6.13,5.01 -13.09,6.26 -20.76,-3.15 -7.12,-8.73 -4.56,-21.74 -2.53,-32.09l3.04 -16.25c3.09,-16.06 4.14,-21.51 1.13,-43.53l-1.01 -7.11c-2.98,-20.63 -7.07,-48.88 2.32,-57.72 6.95,-6.54 18.99,-3.33 39.53,18.47 7.4,7.86 15.89,16.53 25.31,23.01 9.08,6.24 19.17,10.54 30.17,10.18 3.26,-0.11 4.92,-0.63 8.04,-1.6l0.35 -0.12c16.07,-6.3 32.4,-13.75 48.53,-21.09 9.07,-4.14 18.07,-8.24 26.63,-11.98 50.57,-21.78 101.78,-43.13 153.25,-63.96 53.36,-21.57 106.74,-42.5 159.71,-62.66l58.39 -22.2c31.66,-12.15 62.47,-24.34 89.08,-41.43 26.29,-16.88 48.57,-38.64 63.65,-70.11 12.1,-25.27 21.69,-57.51 30.65,-87.67 3.35,-11.27 6.61,-22.25 9.96,-32.68l0.93 -2.85c2.65,-7.93 6.82,-20.5 3.96,-25.89 -3.44,-6.43 -18.03,-18.46 -29.32,-27.77 -4.11,-3.39 -7.8,-6.43 -10.58,-8.91 -72.63,-64.9 -136.76,-138.1 -200.81,-211.19 -21.85,-24.94 -43.7,-49.87 -66.48,-75.12 -28.06,-31.08 -55.54,-59.99 -84.05,-87.98 -28.42,-27.92 -57.83,-54.89 -89.8,-82.14 -7.71,-6.58 -14.19,-13.8 -20.78,-21.15 -5.93,-6.62 -11.97,-13.36 -19.03,-19.67 -12.42,-11.11 -22.88,-18.92 -32.67,-20.13 -9.31,-1.15 -18.77,3.9 -30.01,18.2 -5.37,6.84 -10.04,12.33 -16.11,15.79 -6.32,3.6 -13.67,4.77 -23.96,2.6 -12.23,-2.59 -14.39,-9.76 -12.57,-18.38 1.04,-4.95 3.61,-10.16 6.01,-15.03 1.2,-2.42 2.36,-4.77 3.16,-6.77 3.33,-8.24 6.46,-23.59 7.7,-38.35 1.02,-12.09 0.77,-23.56 -1.67,-29.95l-0.78 -1.75c-2.61,-4.62 -3.8,-8.24 -2.01,-11.52 1.72,-3.21 5.62,-4.6 12.92,-4.32l0.34 0.01c18.22,2.06 28.55,14.11 39.19,26.5 8.18,9.53 16.57,19.3 28.74,23.69 5,1.8 9.65,3.39 13.72,4.77 15.55,5.29 22.99,7.83 43.68,21.1 14.38,9.23 29,17.97 43.66,26.73 14.15,8.46 28.36,16.95 41.69,25.43 14.77,9.39 29.61,19.1 44.46,29.31 14.65,10.08 29.06,20.5 43.09,31.38l5.69 4.56 5.59 4.68c72.74,63.33 120.46,120.4 163.41,171.78 91.76,109.76 161.64,193.35 409.84,255.79 13.63,3.47 27.83,7.58 41.96,11.66 14.08,4.07 28.11,8.13 42.58,11.77 14.2,3.59 20.53,3.7 22,0.63 1.9,-4 -0.61,-13.54 -4.54,-27.57 -3.46,-12.35 -7.2,-24.8 -10.93,-37.26 -3.87,-12.9 -7.75,-25.83 -11.52,-39.37 -60.19,-218.05 -156.15,-415.36 -287.56,-584.62 -127.39,-164.09 -288.14,-301.87 -481.96,-406.65l-15.98 -8.69c-16.73,-9.06 -34.22,-18.53 -50.27,-27.93l-0.1 -0.05c-1.83,-1.14 -4.35,-2.89 -7.2,-4.86 -10.04,-6.95 -24.68,-17.09 -31.49,-15.35 -5.22,1.34 -11.39,10.71 -16.69,18.76 -2.2,3.35 -4.29,6.52 -6.24,9.01 -5.85,7.48 -13.77,15.36 -20.66,18.97 -3.33,1.73 -6.59,2.58 -9.56,2.15 -3.55,-0.52 -6.38,-2.6 -8.15,-6.68 -1.74,-4.02 -2.32,-10.37 -1.19,-19.69 1.44,-11.89 2.27,-20.03 2.45,-27.93 0.19,-8.01 -0.27,-16.06 -1.37,-27.77l-0.44 -5.06c-0.77,-9.92 -1.4,-17.87 -9.15,-24.43 -2.49,-2.1 -3.79,-4.18 -4.16,-6.2 -0.59,-3.16 0.74,-5.54 3.39,-7.25 1.55,-1 3.69,-1.7 6.11,-2.13 6.99,-1.26 17.9,-0.46 22.9,1.21 13.34,4.46 22.95,8.56 31.85,13.86 8.92,5.3 16.93,11.69 27.1,20.73 6.23,5.54 12.71,10.18 19.51,14.24 6.84,4.09 14.08,7.65 21.74,10.99 41.44,17.24 82.97,35.33 124.29,54.33 41.26,18.97 82.05,38.76 122.01,59.37 7.73,4 15.57,8.12 23.54,12.48 7.92,4.32 15.71,8.76 23.2,13.34 102.61,63.23 183.28,133.87 253.59,214.17 70.22,80.22 130.06,170.02 191.07,271.66 43.45,74.21 82.74,152.05 117.98,231.66 37.68,85.13 70.78,172.37 99.43,259.44 0.86,2.63 2.05,6.71 3.42,11.41 4.98,17.13 12.64,43.42 19.8,49.48 8.41,7.11 36.78,6.33 54.22,5.86 3.53,-0.09 6.63,-0.18 9.18,-0.19 7.33,-0.01 14.64,0.03 21.91,0.13 7.34,0.09 14.63,0.25 21.9,0.44 304.11,9 591.55,-96.44 892.68,-206.91 354.93,-130.2 728.84,-267.36 1172.36,-233.21 81.12,6.24 156.57,16.96 231.24,31.71 74.66,14.76 148.51,33.54 226.4,55.91l0.06 0.02c127.91,38.39 238.54,75.6 343.38,110.86 234.61,78.91 440.29,148.08 751.32,200.44 132.51,22.3 272.3,47.39 416.26,73.21 760.11,136.34 1636.82,293.61 2340.15,201.47 370.01,-55.88 761.31,-150.32 1107.85,-318.27 346.25,-167.81 647.88,-409.04 838.97,-758.59 40.45,-74.01 37.48,-175.72 34.48,-278.35 -1.55,-53.32 -3.12,-106.9 1.32,-157.08 7.68,-86.62 37.3,-255.96 90.77,-410.86 35.77,-103.61 82.25,-200.84 140.05,-262.79 -4.12,-3.87 -7.96,-8.01 -11.49,-12.31 -4.6,-5.64 -8.77,-11.68 -12.38,-17.96 -12.66,-21.94 -20.69,-48.38 -25.44,-75.84 -5.88,-33.97 -6.76,-69.6 -5.2,-100.16 0.88,-17.14 4.15,-26.36 10.25,-27.77 6.04,-1.39 13.13,5.43 21.65,20.36 6.31,11.06 9.86,21.1 13.38,31.04 2.42,6.87 4.84,13.7 8.11,20.64 0.62,1.31 1.28,1.43 2,1.1 1.28,-0.61 2.93,-1.76 4.69,-2.98l3 -2.02c18.57,-12.08 20.26,-18.09 24.15,-31.95 1.15,-4.06 2.47,-8.76 4.4,-14.47 2.55,-7.52 5.76,-9.53 9.3,-8.33 3.8,1.31 4.94,6.77 6.03,12.03l0.88 3.95 1.17 4.51c7.51,35.13 -4.03,45.7 -21.81,61.99 -5.07,4.67 -10.73,9.85 -16.54,16.33 -5.27,5.85 -4.2,9.16 -2.11,15.5l1.5 4.71c3.7,12.42 7.53,25.09 13.81,34.81 5.94,9.21 14.3,15.99 27.35,17.69l3.77 0.51c13.87,-7.64 28.3,-13.28 43.25,-16.66 13.78,-3.1 28.02,-4.27 42.71,-3.29 7.41,-18.78 15.46,-37.28 23.17,-54.99l2.04 -4.69c11.58,-26.6 16.44,-44.83 12.21,-60.21 -4.22,-15.35 -17.77,-28.77 -43.02,-45.85l-4.22 -2.93c-12.05,-8.46 -26.66,-18.69 -40.24,-18.72 -17.55,-0.03 -32.49,-3.18 -46.46,-8.97 -13.88,-5.75 -26.76,-14.07 -40.29,-24.51 -15.69,-12.11 -29.28,-26 -40.62,-41.54 -11.34,-15.52 -20.43,-32.66 -27.16,-51.26l-0.05 -0.16c-4.85,-15.14 -5.13,-15.57 -10.68,-24.02l-4.2 -6.44c-1.95,-3.04 -2.83,-5.29 -2.93,-6.89 -0.27,-4.26 1.87,-5.95 5.67,-5.82 1.32,0.05 2.87,0.56 4.47,1.35 4.27,2.09 10.64,6.94 12.16,8.35l0.18 0.18c11.45,11.74 22.48,26.77 33.71,42.07 18.01,24.55 36.57,49.84 57.23,61.92l2.48 1.46c5.16,2.85 7.17,3.3 7.62,2.48 1.03,-1.87 1.1,-6.3 1.16,-11.28 0.05,-3.65 0.11,-7.56 0.55,-11.29l0.02 -0.09c0.89,-6.59 1.82,-11.93 3.62,-17.07 1.85,-5.27 4.57,-10.17 8.97,-15.67l4.5 -5.61 3.15 6.47c6.16,12.62 6.76,22.16 7.24,30.11 0.76,12.42 1.25,20.17 33.67,31.6 24.02,7.92 52.75,18.48 77.61,33.8 25.28,15.58 46.46,36.04 54.63,63.6l0.01 0.07c9.74,35.33 -2.48,73.76 -13.25,107.61l-9.26 29.54c-1.73,5.61 -3.41,11.21 -5.08,17 4.86,2.41 9.77,5.05 14.72,7.93 4.85,2.82 9.74,5.87 14.64,9.13l4.93 -7.87 7.34 -12.09c14.6,-24.46 37.69,-64.13 54.68,-104.87 16.68,-39.98 27.48,-80.86 18.31,-108.61 -9.89,-21.8 -24.86,-30.52 -38.86,-38.67 -15.05,-8.76 -29.11,-16.94 -36.25,-38.37 -3.86,-11.58 -4.68,-11.61 -13.59,-11.75l-6.7 -0.16c-21.47,-0.86 -54.66,-2.52 -85.46,-9.35 -31.56,-7 -60.64,-19.49 -72.67,-42.14 -4.7,-8.86 -3.75,-13.73 0.5,-15.99 6.32,-3.38 21.36,5.26 30.68,10.6 2.32,1.35 4.22,2.44 5.48,3.04 33.66,16.06 64.51,14.82 98.74,13.45 7.84,-0.31 15.87,-0.64 24.37,-0.76 28.34,-0.43 31.11,-2.87 39.47,-10.25 4.5,-3.97 10.42,-9.2 21.38,-16.07 17.55,-11 40.06,-20.45 60.89,-29.2 6.63,-2.77 13.05,-5.47 19.86,-8.47l0.57 -0.25c3.65,-1.67 17.52,-8.03 23.91,-5.92 4.25,1.41 6.25,4.57 4.33,10.38l-0.16 0.41c-4.96,11.26 -24.71,22.27 -46.27,34.28 -16.85,9.38 -34.87,19.42 -46.84,30.07 -12.52,11.13 -18.08,23.05 -6.83,35.69 5.36,6.03 12.4,11.84 19.21,17.46 3.14,2.59 6.25,5.17 9.21,7.76l0.11 0.11c53,49.58 70.06,93.86 65.75,139.7 -4.26,45.37 -29.56,91.67 -61.53,146.15 -10.38,17.69 -20.7,34.86 -31.02,52.05l-4.84 8.06 6.46 6.44c3.11,3.16 6.16,6.32 9.12,9.48 101.4,108.12 134.99,272.33 122.34,439.54 -14.5,191.67 -89.83,387.55 -193.4,507.21 -60.68,70.11 -118.58,124.63 -176.86,179.5 -78.6,74.03 -157.94,148.72 -245.36,262.96 -165.25,215.93 -285.11,359.27 -426.29,477.71 -141.22,118.46 -303.62,211.91 -553.93,327.99 -153.65,69.64 -311.1,118.6 -471.63,155.49 -160.34,36.85 -323.88,61.68 -489.83,83.08l-62.32 7.43zm-2425.77 -259.22c786.85,157.39 1675.74,335.2 2424.72,250.16l62.26 -7.41c165.55,-21.34 328.75,-46.13 488.9,-82.93 159.99,-36.77 316.87,-85.55 469.89,-154.89 249.5,-115.72 411.31,-208.8 551.85,-326.7 140.57,-117.93 260.07,-260.86 424.9,-476.24 87.91,-114.87 167.5,-189.8 246.36,-264.07 58.16,-54.76 115.93,-109.16 176.22,-178.81 102.36,-118.27 176.83,-312.11 191.19,-501.94 12.47,-164.88 -20.43,-326.56 -119.88,-432.61 -3.1,-3.31 -6.1,-6.42 -8.98,-9.34 -2.97,-3.01 -5.94,-5.95 -8.9,-8.82l-2.59 -2.51 8.56 -14.24c10.46,-17.42 20.92,-34.85 30.98,-51.97 31.4,-53.51 56.23,-98.88 60.32,-142.37 4.04,-43 -12.26,-84.83 -62.79,-132.14 -2.79,-2.44 -5.88,-4.99 -9,-7.57 -7.13,-5.89 -14.5,-11.97 -20.25,-18.44 -15.89,-17.86 -8.9,-33.91 7.58,-48.56 12.65,-11.26 31.17,-21.58 48.48,-31.22 18.96,-10.55 36.42,-20.28 41.53,-28.47 -4.45,0.66 -12.7,4.45 -15.15,5.57l-0.62 0.29c-5.79,2.56 -12.84,5.52 -20.03,8.54 -20.62,8.68 -42.91,18.04 -59.61,28.51 -10.27,6.44 -15.9,11.4 -20.17,15.18 -10.26,9.06 -13.66,12.05 -45.39,12.53 -8.11,0.12 -16.21,0.45 -24.12,0.76 -35.44,1.42 -67.37,2.7 -103.03,-14.31 -1.16,-0.55 -3.37,-1.82 -6.07,-3.37 -7.65,-4.37 -20,-11.45 -21.88,-10.46 -0.66,0.34 1.68,0.61 3.29,3.65 10.53,19.83 37.3,31.05 66.57,37.54 30.03,6.66 62.71,8.3 83.84,9.14l6.48 0.16c14.82,0.24 16.19,0.27 22.09,17.99 6.05,18.13 18.67,25.48 32.19,33.35 15.26,8.88 31.59,18.39 42.67,42.96l0.16 0.42c10.18,30.27 -0.97,73.44 -18.42,115.28 -17.19,41.21 -40.53,81.31 -55.29,106.05l-7.41 12.19 -10.01 15.93 -3.9 -2.67c-6.08,-4.17 -12.08,-7.98 -17.98,-11.41 -5.91,-3.44 -11.77,-6.54 -17.55,-9.27l-3.5 -1.66 1.06 -3.71c1.87,-6.57 3.95,-13.49 6.21,-20.85l9.28 -29.62c10.39,-32.61 22.17,-69.64 13.18,-102.36 -7.42,-25.04 -27.1,-43.91 -50.66,-58.42 -23.99,-14.78 -52.12,-25.1 -75.69,-32.88l-0.09 -0.04c-38.2,-13.45 -38.82,-23.52 -39.82,-39.69 -0.33,-5.41 -0.72,-11.65 -3.26,-19.18 -1.21,2.13 -2.15,4.21 -2.9,6.34 -1.54,4.38 -2.37,9.2 -3.18,15.19 -0.41,3.5 -0.46,7.05 -0.51,10.37 -0.08,6.2 -0.16,11.71 -2.3,15.59 -3.19,5.74 -8.86,7.23 -20,1.05l-2.67 -1.56c-22.31,-13.05 -41.43,-39.1 -59.98,-64.38 -10.91,-14.87 -21.63,-29.47 -32.45,-40.67 4.66,7.17 5.38,9 10.05,23.55 6.45,17.83 15.14,34.22 25.94,49.02 10.82,14.82 23.8,28.09 38.83,39.68 12.94,9.98 25.16,17.9 38.19,23.3 12.92,5.35 26.74,8.27 43,8.29 16.45,0.03 32.33,11.16 45.44,20.34l4.13 2.85c27.12,18.34 41.79,33.2 46.69,51.02 4.89,17.79 -0.22,37.7 -12.63,66.24l-2.05 4.69c-8.1,18.62 -16.6,38.12 -24.26,57.79l-1.25 3.2 -3.39 -0.31c-14.91,-1.33 -29.36,-0.29 -43.33,2.85 -14.52,3.28 -28.57,8.87 -42.13,16.46l-1.35 0.76 -6.74 -0.93c-16.18,-2.12 -26.51,-10.47 -33.83,-21.79 -6.97,-10.79 -10.99,-24.09 -14.88,-37.14l-1.42 -4.45c-3.16,-9.65 -4.8,-14.65 4,-24.45 6.07,-6.78 11.91,-12.12 17.16,-16.94 15.45,-14.14 25.47,-23.32 19.05,-53.4l-1.5 -5.93c-1,3.24 -1.83,6.17 -2.57,8.82 -4.54,16.15 -6.52,23.16 -27.98,37.12l-2.76 1.87c-2.04,1.43 -3.97,2.77 -6,3.73 -5.66,2.66 -10.44,2.38 -14.13,-5.45 -3.48,-7.39 -5.97,-14.43 -8.47,-21.49 -3.39,-9.58 -6.81,-19.26 -12.7,-29.58 -6.27,-11 -10.14,-16.32 -11.69,-15.97 -1.52,0.35 -2.55,6.8 -3.19,19.34 -1.53,29.97 -0.66,64.89 5.09,98.16 4.59,26.53 12.29,51.96 24.33,72.85 3.3,5.73 7.19,11.35 11.57,16.7 4.25,5.2 8.92,10.07 13.91,14.43l3.59 3.14 -3.3 3.44c-58.28,60.71 -105.19,158.44 -141.23,262.84 -53.16,154.02 -82.64,322.48 -90.27,408.69 -4.42,49.91 -2.86,103.11 -1.31,156.05 3.02,103.85 6.03,206.78 -35.6,282.94 -192.11,351.44 -495.18,593.87 -842.99,762.44 -347.53,168.43 -739.71,263.1 -1110.47,319.09l-0.08 0c-704.73,92.34 -1582.23,-65.07 -2343.03,-201.54 -143.12,-25.67 -282.11,-50.6 -416.15,-73.17 -311.68,-52.47 -517.71,-121.76 -752.71,-200.79 -104.5,-35.15 -214.76,-72.24 -343.04,-110.74 -77.72,-22.32 -151.33,-41.05 -225.65,-55.74 -74.32,-14.68 -149.44,-25.35 -230.17,-31.56 -441.57,-34 -814.53,102.82 -1168.54,232.68 -301.95,110.76 -590.17,216.49 -896.06,207.44 -7.33,-0.19 -14.59,-0.35 -21.78,-0.44 -7.26,-0.09 -14.53,-0.14 -21.8,-0.13 -2.31,0 -5.42,0.1 -8.93,0.19 -18.77,0.51 -49.31,1.35 -60.36,-8 -9.23,-7.81 -17.36,-35.73 -22.66,-53.91 -1.27,-4.36 -2.36,-8.13 -3.33,-11.08 -28.58,-86.84 -61.58,-173.81 -99.12,-258.63 -35.15,-79.41 -74.26,-156.92 -117.44,-230.65 -60.76,-101.22 -120.32,-190.61 -190.12,-270.34 -69.72,-79.64 -149.73,-149.7 -251.47,-212.4 -7.56,-4.59 -15.19,-8.95 -22.82,-13.12 -7.57,-4.14 -15.45,-8.27 -23.36,-12.37 -40.04,-20.66 -80.68,-40.37 -121.62,-59.19 -40.87,-18.8 -82.34,-36.85 -124,-54.19l-0.06 -0.03c-8.01,-3.49 -15.61,-7.23 -22.86,-11.57 -7.32,-4.37 -14.27,-9.34 -20.9,-15.23 -9.8,-8.72 -17.43,-14.81 -25.69,-19.73 -8.24,-4.92 -17.33,-8.79 -30.08,-13.04 -3.94,-1.32 -12.7,-1.92 -18.41,-0.9l-0.54 0.11c10.17,8.88 10.92,18.41 11.85,30.24l0.4 4.91c1.14,12.07 1.6,20.41 1.41,28.81 -0.19,8.51 -1.03,16.83 -2.49,28.82 -0.92,7.65 -0.63,12.42 0.48,15.02 0.36,0.81 0.74,1.2 1.12,1.25 0.95,0.14 2.36,-0.32 4.03,-1.19 5.64,-2.95 12.48,-9.87 17.7,-16.52 1.75,-2.23 3.72,-5.21 5.81,-8.38 6.19,-9.42 13.4,-20.37 22.04,-22.59 10.82,-2.77 27.49,8.77 38.91,16.68 2.59,1.79 4.89,3.38 6.85,4.6 15.35,9 32.98,18.56 49.87,27.7l15.98 8.69c194.95,105.39 356.67,244.01 484.85,409.11 132.15,170.22 228.63,368.58 289.13,587.76 3.56,12.79 7.53,26.01 11.48,39.2 3.72,12.4 7.44,24.81 10.97,37.4 4.49,16.02 7.29,27.04 4,33.94 -3.74,7.81 -13.11,9.2 -32.45,4.32 -14.01,-3.53 -28.43,-7.7 -42.9,-11.88 -13.59,-3.93 -27.23,-7.88 -41.66,-11.55 -251.07,-63.18 -321.77,-147.74 -414.61,-258.79 -42.72,-51.1 -90.18,-107.87 -162.37,-170.73l-5.39 -4.53 -5.5 -4.41c-13.92,-10.8 -28.2,-21.13 -42.69,-31.1 -14.3,-9.83 -29.12,-19.51 -44.18,-29.09 -13.98,-8.89 -27.75,-17.13 -41.48,-25.33 -14.9,-8.9 -29.77,-17.79 -43.91,-26.86 -19.76,-12.69 -26.85,-15.1 -41.67,-20.15 -3.81,-1.29 -8.13,-2.76 -13.87,-4.83 -14.46,-5.21 -23.65,-15.91 -32.59,-26.34 -9.43,-10.99 -18.6,-21.67 -33.21,-23.35 -3.1,-0.13 -4.22,-0.57 -4.3,-0.41 -0.18,0.29 0.88,0.86 2.01,2.85 0.45,0.76 0.88,1.89 1.24,2.73 3.01,7.79 3.41,20.75 2.29,34.04 -1.3,15.57 -4.7,31.98 -8.34,40.99 -0.95,2.37 -2.18,4.85 -3.44,7.41 -2.15,4.37 -4.45,9.03 -5.27,12.88 -0.73,3.5 0.24,6.45 5.53,7.57 7.84,1.66 13.2,0.91 17.59,-1.59 4.62,-2.64 8.67,-7.46 13.43,-13.51 13.52,-17.21 25.67,-23.18 38.28,-21.62 12.12,1.49 23.93,10.15 37.64,22.41 7.42,6.64 13.64,13.57 19.74,20.38 6.34,7.08 12.59,14.04 19.92,20.29 32.12,27.38 61.68,54.49 90.27,82.57 28.51,28 56.13,57.06 84.42,88.37 22.01,24.38 44.29,49.8 66.57,75.23 63.88,72.91 127.85,145.91 200.03,210.41 2.45,2.19 6.16,5.25 10.29,8.65 11.93,9.84 27.35,22.55 31.59,30.53 4.68,8.83 -0.25,23.66 -3.36,33.02l-0.91 2.82c-3.24,10.08 -6.52,21.12 -9.88,32.42 -9.06,30.47 -18.74,63.03 -31.2,89.03 -15.92,33.24 -39.34,56.15 -66.93,73.87 -27.26,17.51 -58.59,29.9 -90.77,42.27l-58.37 22.21c-53.36,20.31 -106.69,41.22 -159.54,62.59 -51.32,20.77 -102.47,42.1 -153.05,63.87 -8.88,3.87 -17.65,7.87 -26.47,11.89 -16.48,7.5 -33.17,15.11 -49.2,21.39l-0.72 0.24c-3.91,1.2 -5.95,1.85 -10.5,2 -13.23,0.44 -25.08,-4.54 -35.62,-11.79 -10.2,-7.01 -19.08,-16.07 -26.78,-24.25 -15.92,-16.89 -23.62,-20.92 -26.64,-18.07 -5.93,5.58 -2.24,31.13 0.46,49.78l1.01 7.18c3.21,23.52 2.09,29.33 -1.2,46.47l-3.05 16.28c-1.67,8.5 -3.76,19.19 0.64,24.59 3.18,3.9 5.78,3.61 7.95,1.84 2.47,-2.01 4.95,-5.52 7.14,-8.61l1.41 -1.98c7.36,-10.19 21.57,-23.24 36.79,-33.63 13.33,-9.08 27.61,-16.26 39.1,-17.93l6.14 -0.86c7.3,-1.02 12.59,-1.76 21.89,-3.96 53.69,-12.78 110.48,-30.08 164.64,-46.56l35.42 -10.77c19.17,-5.75 38.67,-11.33 58.52,-16.78 19.93,-5.48 39.51,-10.63 58.85,-15.53 11.35,-2.87 24.88,-6.11 38.96,-9.48 64.84,-15.5 141.12,-33.74 191.97,-64.85 15.98,-9.97 30.24,-21.24 43.33,-33.75 13.15,-12.57 25.12,-26.37 36.51,-41.35 16.5,-21.72 33.56,-49.42 49.21,-78.32 17.36,-32.08 32.93,-65.59 44.04,-94.05 1.07,-2.76 1.77,-4.83 2.34,-6.56 0.5,-1.52 0.93,-2.82 1.37,-3.92 3.19,-8.06 5.95,-9.11 17.55,-4.52 166.62,66.05 315.41,90.52 465.47,92.52 150.21,1.99 301.93,-18.53 474.09,-42.41l15.6 -2.19c41.84,-5.9 65.86,-9.29 71.88,-1.98 7.02,8.53 -9.62,25.09 -50.58,58.82 -14.36,11.37 -52.47,37.52 -62.61,48.58 -320.7,239.54 -602.42,277.83 -955.21,325.76 -53.17,7.22 -107.97,14.67 -165.76,23.22 -40.87,6.39 -80.46,13.08 -120.12,20.68 -39.47,7.55 -78.74,15.97 -119.01,25.84 -3.59,0.99 -7.67,2.24 -11.72,3.45l-5.03 1.51c-74.61,22.18 -149.05,44.51 -223.11,67.5 -74.07,22.99 -148,46.72 -221.69,71.72 -3.01,1.02 -7.61,2.88 -12.39,4.8 -7.53,3.03 -15.53,6.25 -19.51,7.08 -18,3.76 -33.19,-1.25 -45.97,-10.67 -12.37,-9.12 -22.37,-22.36 -30.42,-35.58 -2.83,-4.64 -6.1,-9.02 -8.86,-10.02 -1.38,-0.5 -3.07,1.25 -5.09,7.25 -7.36,24.48 -0.51,49.88 6.28,75.08 3.46,12.84 6.92,25.65 8.6,38.66 0.28,2.14 0.3,4.93 0.32,7.89 0.04,4.8 0.08,10.19 0.65,10.75 0.69,0.69 1.61,-0.09 2.43,-1.21 2.13,-2.9 3.74,-7.27 4.42,-9.27 15.27,-44.82 31.74,-46.39 63.5,-49.43 6.3,-0.61 13.29,-1.28 21.31,-2.46 27.4,-5.26 56.53,-11.99 85.56,-19.22 28.87,-7.19 58.02,-14.99 85.26,-22.33 28.21,-7.62 53.96,-14.73 79.41,-21.75 138.07,-38.11 269.35,-74.34 416.36,-92.08l96.64 -11.45c598.09,-70.54 805.16,-94.98 1342.28,-490.85 22.9,-17.49 41.78,-32.71 58.6,-46.28 61.15,-49.32 95.6,-77.1 196.75,-112.62 270.82,-95.11 509.54,-165.25 751.39,-189.49 242.02,-24.26 487.05,-2.57 770.26,86.01l0.06 0.02c128.12,41.85 238.67,81.77 343.09,119.46 242.89,87.68 452.65,163.4 778.43,225.42 131.19,24.97 265.3,51.8 402.49,79.25zm4647.87 -2426.13c-0.78,-0.27 -0.31,0 0.41,0.48 -0.03,-0.24 -0.15,-0.4 -0.41,-0.48z" id="path192"/>
   </g>
   <g id="g202">
    <path fill="#FBE2E9" fill-rule="nonzero" d="M11015.33 5110.91c-23.63,-58.55 -33.07,-134.26 -33.01,-193.74l0 -0.63c3.19,-39.26 8.14,-83.73 19.77,-125.87 11.79,-42.66 30.44,-82.77 61.03,-112.5 48.69,-47.29 103.74,-51.14 152.91,-26.83 26.16,12.93 50.54,33.94 71.22,60.61 20.47,26.4 37.38,58.47 48.82,93.81 34.26,105.91 19.48,241.46 -95.23,342.85 -32.91,29.1 -62.17,45.98 -88.08,53.2 -33.84,9.44 -61.92,2.66 -84.96,-14.86 -22.34,-16.99 -39.56,-44.06 -52.47,-76.04z" id="path196"/>
    <path fill="#F5B2B6" fill-rule="nonzero" d="M11013.72 5111.56c-11.02,-27.3 -18.96,-58.31 -24.31,-89.65 -6.15,-36.15 -8.86,-72.78 -8.83,-104.74l0 -0.77c1.6,-19.64 3.65,-40.6 6.74,-61.96 3.09,-21.33 7.26,-43.06 13.1,-64.23 5.92,-21.43 13.58,-42.25 23.6,-61.44 10.04,-19.23 22.46,-36.85 37.89,-51.84 23.63,-22.95 48.77,-35.8 74.05,-40.23 27.41,-4.81 54.95,0.28 80.84,13.09 13.11,6.47 25.78,14.97 37.76,25.16 12.14,10.33 23.58,22.42 34.06,35.94 10.39,13.39 19.87,28.24 28.17,44.19 8.16,15.69 15.23,32.51 20.93,50.15 18.51,57.2 22.78,123.04 4.87,187.51 -15.42,55.51 -47.27,110.03 -100.6,157.17 -16.17,14.3 -31.48,25.67 -45.93,34.4 -15.16,9.15 -29.44,15.44 -42.84,19.18 -16.63,4.63 -31.92,5.41 -45.92,2.97 -14.95,-2.62 -28.44,-8.92 -40.54,-18.13 -10.92,-8.3 -20.63,-18.96 -29.2,-31.38 -9.19,-13.32 -17.11,-28.7 -23.84,-45.39zm-20.88 -90.24c5.3,31.13 13.19,61.89 24.11,88.95 6.63,16.45 14.43,31.6 23.47,44.71 8.38,12.14 17.84,22.54 28.43,30.59 11.66,8.87 24.65,14.94 39.05,17.46 13.51,2.36 28.29,1.6 44.4,-2.89 13.08,-3.65 27.06,-9.81 41.97,-18.81 14.29,-8.63 29.42,-19.88 45.42,-34.02 52.79,-46.66 84.31,-100.59 99.55,-155.49 17.72,-63.77 13.49,-128.91 -4.83,-185.53 -5.63,-17.41 -12.62,-34.04 -20.71,-49.6 -8.22,-15.8 -17.58,-30.47 -27.83,-43.68 -10.34,-13.34 -21.61,-25.25 -33.55,-35.42 -11.76,-10 -24.2,-18.33 -37.06,-24.69 -25.24,-12.48 -52.06,-17.45 -78.71,-12.78 -24.61,4.32 -49.13,16.87 -72.22,39.3 -15.15,14.72 -27.37,32.05 -37.24,50.95 -9.89,18.95 -17.46,39.55 -23.33,60.77 -5.78,20.96 -9.92,42.55 -13,63.8 -3.07,21.21 -5.11,42.1 -6.7,61.68l0 0.55c-0.03,31.77 2.66,68.21 8.78,104.15z" id="path198"/>
    <path fill="#F5B2B6" fill-rule="nonzero" d="M11000.11 4917.92c0.01,30.78 2.63,65.96 8.53,100.61 5.12,30.06 12.72,59.72 23.23,85.76 6.11,15.16 13.21,29.05 21.34,40.98 7.54,11.03 15.96,20.4 25.33,27.52 9.63,7.32 20.4,12.32 32.37,14.37 11.25,1.93 23.6,1.26 37.1,-2.51 11.93,-3.32 24.78,-9.03 38.59,-17.44 13.25,-8.06 27.4,-18.61 42.45,-31.92 50.18,-44.36 80.15,-95.62 94.64,-147.79 16.84,-60.62 12.83,-122.51 -4.57,-176.31 -5.34,-16.5 -11.96,-32.27 -19.63,-47 -7.78,-14.97 -16.64,-28.86 -26.34,-41.36 -9.58,-12.36 -20,-23.39 -31,-32.78 -10.83,-9.25 -22.24,-16.92 -34,-22.73 -22.12,-10.93 -45.64,-15.25 -69.06,-11.09 -21.61,3.84 -43.19,14.93 -63.55,34.71 -13.98,13.59 -25.29,29.71 -34.47,47.41 -9.21,17.75 -16.3,37.09 -21.82,57.07 -5.59,20.25 -9.6,41.26 -12.59,62.01 -3,20.74 -4.99,41.24 -6.55,60.49zm5.1 101.19c-5.94,-34.89 -8.57,-70.32 -8.58,-101.32l0 -0.14c1.58,-19.28 3.58,-39.85 6.58,-60.71 3.01,-20.84 7.05,-41.98 12.7,-62.44 5.58,-20.21 12.75,-39.78 22.07,-57.74 9.34,-18.01 20.87,-34.44 35.14,-48.31 20.9,-20.3 43.1,-31.69 65.38,-35.65 24.17,-4.29 48.41,0.15 71.18,11.4 12.03,5.94 23.68,13.78 34.73,23.21 11.18,9.54 21.76,20.74 31.49,33.3 9.84,12.69 18.82,26.75 26.68,41.87 7.74,14.87 14.43,30.82 19.84,47.55 17.6,54.39 21.65,116.98 4.62,178.29 -14.67,52.78 -44.97,104.63 -95.69,149.46 -15.21,13.45 -29.52,24.13 -42.94,32.29 -14.09,8.58 -27.25,14.42 -39.48,17.83 -14.01,3.9 -26.87,4.6 -38.6,2.59 -12.54,-2.15 -23.81,-7.38 -33.88,-15.04 -9.69,-7.37 -18.38,-17 -26.1,-28.33 -8.28,-12.13 -15.5,-26.26 -21.71,-41.65 -10.6,-26.27 -18.27,-56.18 -23.43,-86.46z" id="path200"/>
   </g>
  </g>
 </g>
 <g id="Layer_x0020_4" visibility="hidden">
  <metadata id="CorelCorpID_2Corel-Layer"/>
  
  
  
  
  
  
  
  
  
  
  <path fill="#525252" fill-rule="nonzero" d="M7873.49 4051.62c-9.74,0 -17.64,-7.9 -17.64,-17.64 0,-9.74 7.9,-17.64 17.64,-17.64l1377.99 0c9.74,0 17.64,7.9 17.64,17.64 0,9.74 -7.9,17.64 -17.64,17.64l-1377.99 0z" id="path227"/>
  <path fill="#525252" fill-rule="nonzero" d="M376.82 5147.7c-4.83,-8.41 -1.93,-19.15 6.48,-23.98 8.41,-4.83 19.15,-1.93 23.98,6.48l458.19 793.61c4.83,8.41 1.93,19.15 -6.48,23.98 -8.41,4.83 -19.15,1.93 -23.98,-6.48l-458.19 -793.61z" id="path229"/>
  <path fill="#525252" fill-rule="nonzero" d="M407.28 2350.84c-4.87,8.41 -15.64,11.28 -24.05,6.41 -8.41,-4.87 -11.28,-15.64 -6.41,-24.05l212.16 -367.47c4.87,-8.41 15.64,-11.28 24.05,-6.41 8.41,4.87 11.28,15.64 6.41,24.05l-212.16 367.47z" id="path231"/>
  <path fill="#CE82B5" fill-rule="nonzero" d="M8769.31 6523.75c34.04,-3.58 36.34,-55.5 -1.23,-59.67 -2.09,-0.11 -3.83,-0.09 -5.89,0.13 -197.6,23.37 -395.51,27.3 -594.22,20.74 -33.74,-1.78 -44.59,48.97 -7.96,59.14 2.11,0.47 3.83,0.68 6.02,0.8 201.81,6.66 402.6,2.57 603.28,-21.14zm-6143.34 -265.23l451.85 66.49c-38.2,-43.77 -65.68,-89.92 -82.39,-138.85 91.63,-30.2 181.98,-63.19 272.65,-96.46l-20.65 -56.3c-88.46,32.35 -177.01,65.11 -266.56,94.56 -7.75,-47.6 -6.15,-97.75 4.87,-150.79l-359.77 281.35zm642.12 -168.82c50.77,-18.58 101.63,-36.98 152.7,-54.74 8.25,-2.75 15.37,-9.73 18.26,-17.91 8.5,-24.09 -13.79,-46.79 -37.98,-38.73 -51.36,18 -102.53,36.37 -153.63,55.08l20.65 56.3zm304.34 -168.81c-18.83,6.28 -26.77,27.81 -16.23,44.67 7.07,11.31 21.72,16.71 34.39,12.49 189.51,-60.27 379.4,-110.09 577.75,-130.04 36.63,-3.89 35.93,-57.83 -2.03,-59.83l-3.63 0.13c-102.78,10.82 -200.52,27.77 -301.16,51.34 -97.56,22.99 -193.59,50.87 -289.09,81.24zm590.25 -132.58l5.66 59.7 -5.66 -59.7zm182.53 -8.98c-36.19,0 -42.07,53.69 -3.62,59.76l3.44 0.2c196.16,0 395.18,34.23 584.3,84.81 34.86,9.17 53.42,-40.61 20.12,-56.28 -1.7,-0.7 -3.07,-1.25 -4.84,-1.72 -197.09,-51.45 -395.14,-86.77 -599.4,-86.77zm773.54 136.22c-31.47,-9.94 -55.48,33.53 -24.04,54.49 2.25,1.26 4.16,2.12 6.58,2.89 39.84,12.12 79.51,24.69 119.11,37.57 150.79,48.9 301.31,98.22 454,140.99 15.79,4.16 31.47,-4.07 36.65,-19.62 5.27,-15.81 -4.17,-33.83 -20.39,-38.1 -151.99,-43.35 -301.44,-91.33 -451.68,-140.29 -39.98,-12.98 -80.01,-25.7 -120.23,-37.93zm744.87 223.59c-31.94,-8.4 -53.69,37.29 -20.54,55.94 2.26,1.06 3.99,1.71 6.4,2.34 106.68,26.05 214.51,48.26 322.64,67.39 89.19,15.88 178.31,32.07 267.42,48.35 39.13,6.18 49.74,-50.8 10.78,-59 -89.23,-16.26 -178.44,-32.52 -267.74,-48.39 -106.95,-19.01 -213.43,-40.86 -318.96,-66.63zm763.64 147.26c-39,-6.16 -49.77,50.79 -10.68,59.02 196.98,35.66 394.11,70.35 591.97,100.82 32.95,5.2 49.17,-40.85 17.19,-56.84 -2.91,-1.2 -4.96,-1.94 -8.11,-2.44 -197.41,-30.76 -393.79,-64.97 -590.37,-100.56zm767.95 126.63c-30.18,-4.77 -48.32,36.26 -19.79,55.28 4.08,2.29 6.9,3.39 11.55,4.12 198.61,27.63 398.29,50.28 598.42,63.35 25.25,1.33 40.6,-25.96 26.57,-47.01 -4.94,-7.4 -13.9,-12.37 -22.69,-12.83 -198.83,-13.17 -396.72,-35.46 -594.06,-62.91z" id="path233"/>
  <path fill="#CE82B5" fill-rule="nonzero" d="M10046.16 3103.42c-31.02,-16.42 -60.8,25.9 -33.13,49.61 1.69,1.35 3.27,2.44 5.21,3.47 170.91,90.67 285.42,265.03 342.58,445.91 4.37,13.11 16.45,21.49 30.31,20.76 19.33,-1.07 32.96,-20.62 26.79,-39.12 -62,-196.21 -186.66,-382.45 -371.76,-480.63zm67.55 1600l399.96 -220.5c-130.76,-26.49 -226.71,-100.23 -283.79,-221.2l-116.17 441.7zm210.03 -359.99c-14.7,33.07 32.59,60.41 53.46,27.02l1.38 -2.74c62.17,-140.16 90.47,-290.79 91,-443.76 -0.25,-53.78 -3.56,-106.29 -10.97,-159.58 -5.69,-36.05 -57.76,-33.36 -59.68,3.17 0,1.76 0.01,3.43 0.28,5.13 7,50.1 10.39,100.7 10.39,151.28 0.51,142.35 -28.06,289.19 -85.86,419.48z" id="path235"/>
  <path fill="#CE82B5" fill-rule="nonzero" d="M8838.59 2368.84c-13.78,47.46 -37.48,93.01 -71.15,136.86l446.6 -95.98 -377.5 -257.21c15.14,54.79 19.79,107.28 13.91,157.67l-11.86 58.66zm-6758.18 -45.86c-29.75,-25.78 -69.02,17.72 -39.86,44.8l20.25 18.02c148.52,130.99 309.86,228.22 490.22,308.88 31.42,13.97 57.86,-27.8 31.71,-50.21 -2.32,-1.86 -4.42,-3.29 -7.17,-4.51 -172.54,-77.17 -333.36,-172.89 -474.88,-298.96l-20.27 -18.02zm6593.75 21.19c39.37,4.14 47.08,-53.27 7.72,-59.48 -200.99,-26.27 -402.64,-35.72 -604.78,-17.17 -37.15,3.91 -35.47,57.88 1.41,59.82 1.37,0 2.66,0.04 4.01,-0.1 198.64,-17.88 394.15,-8.88 591.64,16.93zm-767.82 5.61c34.18,-5.4 33.39,-57.46 -4.21,-59.55 -2.03,0 -3.73,0.1 -5.69,0.41 -127.68,20.93 -253.9,52.16 -377.68,89.66 -68.69,20.73 -137.41,42.54 -205.64,64.75 -34.88,11.63 -22.81,64.25 15.02,57.95l3.34 -0.87c67.98,-22.13 136.32,-43.56 204.7,-64.45 121.42,-36.72 244.93,-67.37 370.16,-87.9zm-746.48 207.12c10.94,-3.65 18.73,-12.34 20.63,-23.75 3.66,-21.98 -17.36,-40.18 -38.55,-33.49 -143.03,45 -288.44,86.51 -435.5,116.1 -47.67,9.68 -97.08,20.46 -143.81,33.93 -33.23,8.74 -27.59,60.79 10.78,58.77 1.84,-0.19 3.45,-0.5 5.24,-0.97 45.21,-13.03 93.56,-23.77 139.71,-32.95 149.5,-30.43 296.05,-71.88 441.5,-117.64zm-750.27 205.4c37.31,-14.51 17.24,-68.95 -20.12,-56.5 -30.06,10.64 -60.09,21.42 -90.21,31.9 -160.12,55.73 -315.52,83.92 -484.56,92.71 -36.75,1.93 -38.57,55.9 -1.29,59.82l4.01 0.08c173.06,-8.24 337.94,-38.94 501.66,-96.01 30.22,-10.5 60.36,-21.33 90.51,-32zm-774.46 128.82c34.03,1.79 44.53,-49.02 8.18,-59.12 -2.1,-0.47 -3.84,-0.71 -6.02,-0.82 -43.68,-1.3 -87.59,-4.36 -131.15,-7.91 -154.26,-13.18 -307.58,-36.99 -460.29,-62.06 -33.93,-5.36 -49.2,41.84 -16.99,57 2.53,1.04 4.69,1.77 7.41,2.2 198.06,32.52 396.68,63 597.52,70.67l1.34 0.04zm-776.34 -99.3c34.4,5.43 49.4,-43.62 15.35,-57.64 -2.11,-0.7 -3.8,-1.24 -6.05,-1.6l-40.83 -6.33c-189.72,-28.49 -374.18,-30.53 -564.64,-8.95 -34.69,3.65 -36.2,55.79 0.98,59.7 2,0.11 3.72,0.11 5.7,-0.1 185.44,-20.83 364.15,-19.21 548.88,8.63l40.61 6.29zm-766.26 9.47c34.84,-5.5 32.97,-57.64 -3.67,-59.57 -2.11,0 -3.82,0.05 -5.87,0.37 -29.6,4.65 -59.17,9.76 -88.7,14.82 -166.8,29.09 -332.03,59.84 -501.48,69.19 -35.17,1.85 -39.05,53.57 -2.72,59.62 2.04,0.22 3.76,0.37 5.88,0.26 200.03,-10.63 396.41,-51.95 593.63,-84.23l2.93 -0.46zm-779.34 85.89c35,1.84 44.32,-49.65 8.38,-59.11 -1.93,-0.43 -3.63,-0.68 -5.64,-0.79 -199.62,-8.4 -387.7,-51.96 -575.1,-120.14l-0.46 -0.18c-31.36,-12.19 -56.85,31.28 -27.75,52.62 2.51,1.57 4.1,2.53 6.85,3.6 158.34,57.18 312.92,97.36 480.5,115.55 37.69,3.98 75.35,6.86 113.22,8.45z" id="path237"/>
 </g>
 <g id="Layer_x0020_5">
  <metadata id="CorelCorpID_3Corel-Layer"/>
  <switch><text x="3068.9" y="7623.01" fill="#2B2A29" font-weight="normal" font-size="635px" font-family="DejaVu Sans" id="text241-uk" systemLanguage="uk"><tspan id="trsvg1-uk"> </tspan></text><text x="3068.9" y="7623.01" fill="#2B2A29" font-weight="normal" font-size="635px" font-family="DejaVu Sans" id="text241"><tspan id="trsvg1">Efferent nerve</tspan></text></switch>
  <switch><text x="4734.49" y="805.95" fill="#2B2A29" font-weight="normal" font-size="635px" font-family="DejaVu Sans" id="text243-uk" systemLanguage="uk"><tspan id="trsvg2-uk"> </tspan></text><text x="4734.49" y="805.95" fill="#2B2A29" font-weight="normal" font-size="635px" font-family="DejaVu Sans" id="text243"><tspan id="trsvg2">Afferent nerve</tspan></text></switch>
  <switch><text x="149.14" y="3064.67" fill="#2B2A29" font-weight="normal" font-size="564.44px" font-family="DejaVu Sans" id="text245-uk" systemLanguage="uk"><tspan id="trsvg3-uk"></tspan></text><text x="149.14" y="3064.67" fill="#2B2A29" font-weight="normal" font-size="564.44px" font-family="DejaVu Sans" id="text245"><tspan id="trsvg3">Skin</tspan></text></switch>
  <switch><text x="131.07" y="4819.27" fill="#2B2A29" font-weight="normal" font-size="564.44px" font-family="DejaVu Sans" id="text247-uk" systemLanguage="uk"><tspan id="trsvg4-uk">'</tspan></text><text x="131.07" y="4819.27" fill="#2B2A29" font-weight="normal" font-size="564.44px" font-family="DejaVu Sans" id="text247"><tspan id="trsvg4">Muscle</tspan></text></switch>
  <switch><text x="4673.28" y="4207.3" fill="#2B2A29" font-weight="normal" font-size="564.44px" font-family="DejaVu Sans" id="text249-uk" systemLanguage="uk"><tspan id="trsvg5-uk"> </tspan></text><text x="4673.28" y="4207.3" fill="#2B2A29" font-weight="normal" font-size="564.44px" font-family="DejaVu Sans" id="text249"><tspan id="trsvg5">Spinal cord</tspan></text></switch>
  <path fill="#525252" fill-rule="nonzero" d="M7873.49 4051.62c-9.74,0 -17.64,-7.9 -17.64,-17.64 0,-9.74 7.9,-17.64 17.64,-17.64l1377.99 0c9.74,0 17.64,7.9 17.64,17.64 0,9.74 -7.9,17.64 -17.64,17.64l-1377.99 0z" id="path251"/>
  <path fill="#525252" fill-rule="nonzero" d="M476.82 4977.7c-4.83,-8.41 -1.93,-19.15 6.48,-23.98 8.41,-4.83 19.15,-1.93 23.98,6.48l458.19 793.61c4.83,8.41 1.93,19.15 -6.48,23.98 -8.41,4.83 -19.15,1.93 -23.98,-6.48l-458.19 -793.61z" id="path253"/>
  <path fill="#525252" fill-rule="nonzero" d="M507.32 2480.84c-4.87,8.41 -15.64,11.28 -24.05,6.41 -8.41,-4.87 -11.28,-15.64 -6.41,-24.05l212.16 -367.47c4.87,-8.41 15.64,-11.28 24.05,-6.41 8.41,4.87 11.28,15.64 6.41,24.05l-212.16 367.47z" id="path255"/>
  <path fill="#CE82B5" fill-rule="nonzero" d="M8769.31 6523.75c34.04,-3.58 36.34,-55.5 -1.23,-59.67 -2.09,-0.11 -3.83,-0.09 -5.89,0.13 -197.6,23.37 -395.51,27.3 -594.22,20.74 -33.74,-1.78 -44.59,48.97 -7.96,59.14 2.11,0.47 3.83,0.68 6.02,0.8 201.81,6.66 402.6,2.57 603.28,-21.14zm-6143.34 -265.23l451.85 66.49c-38.2,-43.77 -65.68,-89.92 -82.39,-138.85 91.63,-30.2 181.98,-63.19 272.65,-96.46l-20.65 -56.3c-88.46,32.35 -177.01,65.11 -266.56,94.56 -7.75,-47.6 -6.15,-97.75 4.87,-150.79l-359.77 281.35zm642.12 -168.82c50.77,-18.58 101.63,-36.98 152.7,-54.74 8.25,-2.75 15.37,-9.73 18.26,-17.91 8.5,-24.09 -13.79,-46.79 -37.98,-38.73 -51.36,18 -102.53,36.37 -153.63,55.08l20.65 56.3zm304.34 -168.81c-18.83,6.28 -26.77,27.81 -16.23,44.67 7.07,11.31 21.72,16.71 34.39,12.49 189.51,-60.27 379.4,-110.09 577.75,-130.04 36.63,-3.89 35.93,-57.83 -2.03,-59.83l-3.63 0.13c-102.78,10.82 -200.52,27.77 -301.16,51.34 -97.56,22.99 -193.59,50.87 -289.09,81.24zm590.25 -132.58l5.66 59.7 -5.66 -59.7zm182.53 -8.98c-36.19,0 -42.07,53.69 -3.62,59.76l3.44 0.2c196.16,0 395.18,34.23 584.3,84.81 34.86,9.17 53.42,-40.61 20.12,-56.28 -1.7,-0.7 -3.07,-1.25 -4.84,-1.72 -197.09,-51.45 -395.14,-86.77 -599.4,-86.77zm773.54 136.22c-31.47,-9.94 -55.48,33.53 -24.04,54.49 2.25,1.26 4.16,2.12 6.58,2.89 39.84,12.12 79.51,24.69 119.11,37.57 150.79,48.9 301.31,98.22 454,140.99 15.79,4.16 31.47,-4.07 36.65,-19.62 5.27,-15.81 -4.17,-33.83 -20.39,-38.1 -151.99,-43.35 -301.44,-91.33 -451.68,-140.29 -39.98,-12.98 -80.01,-25.7 -120.23,-37.93zm744.87 223.59c-31.94,-8.4 -53.69,37.29 -20.54,55.94 2.26,1.06 3.99,1.71 6.4,2.34 106.68,26.05 214.51,48.26 322.64,67.39 89.19,15.88 178.31,32.07 267.42,48.35 39.13,6.18 49.74,-50.8 10.78,-59 -89.23,-16.26 -178.44,-32.52 -267.74,-48.39 -106.95,-19.01 -213.43,-40.86 -318.96,-66.63zm763.64 147.26c-39,-6.16 -49.77,50.79 -10.68,59.02 196.98,35.66 394.11,70.35 591.97,100.82 32.95,5.2 49.17,-40.85 17.19,-56.84 -2.91,-1.2 -4.96,-1.94 -8.11,-2.44 -197.41,-30.76 -393.79,-64.97 -590.37,-100.56zm767.95 126.63c-30.18,-4.77 -48.32,36.26 -19.79,55.28 4.08,2.29 6.9,3.39 11.55,4.12 198.61,27.63 398.29,50.28 598.42,63.35 25.25,1.33 40.6,-25.96 26.57,-47.01 -4.94,-7.4 -13.9,-12.37 -22.69,-12.83 -198.83,-13.17 -396.72,-35.46 -594.06,-62.91z" id="path257"/>
  <path fill="#CE82B5" fill-rule="nonzero" d="M10046.16 3103.42c-31.02,-16.42 -60.8,25.9 -33.13,49.61 1.69,1.35 3.27,2.44 5.21,3.47 170.91,90.67 285.42,265.03 342.58,445.91 4.37,13.11 16.45,21.49 30.31,20.76 19.33,-1.07 32.96,-20.62 26.79,-39.12 -62,-196.21 -186.66,-382.45 -371.76,-480.63zm67.55 1600l399.96 -220.5c-130.76,-26.49 -226.71,-100.23 -283.79,-221.2l-116.17 441.7zm210.03 -359.99c-14.7,33.07 32.59,60.41 53.46,27.02l1.38 -2.74c62.17,-140.16 90.47,-290.79 91,-443.76 -0.25,-53.78 -3.56,-106.29 -10.97,-159.58 -5.69,-36.05 -57.76,-33.36 -59.68,3.17 0,1.76 0.01,3.43 0.28,5.13 7,50.1 10.39,100.7 10.39,151.28 0.51,142.35 -28.06,289.19 -85.86,419.48z" id="path259"/>
  <path fill="#CE82B5" fill-rule="nonzero" d="M8838.59 2368.84c-13.78,47.46 -37.48,93.01 -71.15,136.86l446.6 -95.98 -377.5 -257.21c15.14,54.79 19.79,107.28 13.91,157.67l-11.86 58.66zm-6758.18 -45.86c-29.75,-25.78 -69.02,17.72 -39.86,44.8l20.25 18.02c148.52,130.99 309.86,228.22 490.22,308.88 31.42,13.97 57.86,-27.8 31.71,-50.21 -2.32,-1.86 -4.42,-3.29 -7.17,-4.51 -172.54,-77.17 -333.36,-172.89 -474.88,-298.96l-20.27 -18.02zm6593.75 21.19c39.37,4.14 47.08,-53.27 7.72,-59.48 -200.99,-26.27 -402.64,-35.72 -604.78,-17.17 -37.15,3.91 -35.47,57.88 1.41,59.82 1.37,0 2.66,0.04 4.01,-0.1 198.64,-17.88 394.15,-8.88 591.64,16.93zm-767.82 5.61c34.18,-5.4 33.39,-57.46 -4.21,-59.55 -2.03,0 -3.73,0.1 -5.69,0.41 -127.68,20.93 -253.9,52.16 -377.68,89.66 -68.69,20.73 -137.41,42.54 -205.64,64.75 -34.88,11.63 -22.81,64.25 15.02,57.95l3.34 -0.87c67.98,-22.13 136.32,-43.56 204.7,-64.45 121.42,-36.72 244.93,-67.37 370.16,-87.9zm-746.48 207.12c10.94,-3.65 18.73,-12.34 20.63,-23.75 3.66,-21.98 -17.36,-40.18 -38.55,-33.49 -143.03,45 -288.44,86.51 -435.5,116.1 -47.67,9.68 -97.08,20.46 -143.81,33.93 -33.23,8.74 -27.59,60.79 10.78,58.77 1.84,-0.19 3.45,-0.5 5.24,-0.97 45.21,-13.03 93.56,-23.77 139.71,-32.95 149.5,-30.43 296.05,-71.88 441.5,-117.64zm-750.27 205.4c37.31,-14.51 17.24,-68.95 -20.12,-56.5 -30.06,10.64 -60.09,21.42 -90.21,31.9 -160.12,55.73 -315.52,83.92 -484.56,92.71 -36.75,1.93 -38.57,55.9 -1.29,59.82l4.01 0.08c173.06,-8.24 337.94,-38.94 501.66,-96.01 30.22,-10.5 60.36,-21.33 90.51,-32zm-774.46 128.82c34.03,1.79 44.53,-49.02 8.18,-59.12 -2.1,-0.47 -3.84,-0.71 -6.02,-0.82 -43.68,-1.3 -87.59,-4.36 -131.15,-7.91 -154.26,-13.18 -307.58,-36.99 -460.29,-62.06 -33.93,-5.36 -49.2,41.84 -16.99,57 2.53,1.04 4.69,1.77 7.41,2.2 198.06,32.52 396.68,63 597.52,70.67l1.34 0.04zm-776.34 -99.3c34.4,5.43 49.4,-43.62 15.35,-57.64 -2.11,-0.7 -3.8,-1.24 -6.05,-1.6l-40.83 -6.33c-189.72,-28.49 -374.18,-30.53 -564.64,-8.95 -34.69,3.65 -36.2,55.79 0.98,59.7 2,0.11 3.72,0.11 5.7,-0.1 185.44,-20.83 364.15,-19.21 548.88,8.63l40.61 6.29zm-766.26 9.47c34.84,-5.5 32.97,-57.64 -3.67,-59.57 -2.11,0 -3.82,0.05 -5.87,0.37 -29.6,4.65 -59.17,9.76 -88.7,14.82 -166.8,29.09 -332.03,59.84 -501.48,69.19 -35.17,1.85 -39.05,53.57 -2.72,59.62 2.04,0.22 3.76,0.37 5.88,0.26 200.03,-10.63 396.41,-51.95 593.63,-84.23l2.93 -0.46zm-779.34 85.89c35,1.84 44.32,-49.65 8.38,-59.11 -1.93,-0.43 -3.63,-0.68 -5.64,-0.79 -199.62,-8.4 -387.7,-51.96 -575.1,-120.14l-0.46 -0.18c-31.36,-12.19 -56.85,31.28 -27.75,52.62 2.51,1.57 4.1,2.53 6.85,3.6 158.34,57.18 312.92,97.36 480.5,115.55 37.69,3.98 75.35,6.86 113.22,8.45z" id="path261"/>
 </g>
</svg>
