<?xml version="1.0" encoding="UTF-8" standalone="no"?>
<!-- Created with Inkscape (http://www.inkscape.org/) -->
<svg xmlns:dc="http://purl.org/dc/elements/1.1/" xmlns:cc="http://web.resource.org/cc/" xmlns:rdf="http://www.w3.org/1999/02/22-rdf-syntax-ns#" xmlns:svg="http://www.w3.org/2000/svg" xmlns="http://www.w3.org/2000/svg" xmlns:sodipodi="http://sodipodi.sourceforge.net/DTD/sodipodi-0.dtd" xmlns:inkscape="http://www.inkscape.org/namespaces/inkscape" width="254.79021" height="255.41223" id="svg11293" sodipodi:version="0.32" inkscape:version="0.44.1" sodipodi:docbase="J:\" sodipodi:docname="Stomach_diagram.svg" version="1.0">
  <defs id="defs11295"/>
  <sodipodi:namedview id="base" pagecolor="#ffffff" bordercolor="#666666" borderopacity="1.0" gridtolerance="10000" guidetolerance="10" objecttolerance="10" inkscape:pageopacity="0.0" inkscape:pageshadow="2" inkscape:zoom="1.136764" inkscape:cx="97.451437" inkscape:cy="143.83897" inkscape:document-units="px" inkscape:current-layer="layer1" inkscape:window-width="1024" inkscape:window-height="721" inkscape:window-x="-4" inkscape:window-y="-4"/>
  <metadata id="metadata11298">
    <rdf:RDF>
      <cc:Work rdf:about="">
        <dc:format>image/svg+xml</dc:format>
        <dc:type rdf:resource="http://purl.org/dc/dcmitype/StillImage"/>
      </cc:Work>
    </rdf:RDF>
  </metadata>
  <g inkscape:label="Layer 1" inkscape:groupmode="layer" id="layer1" transform="translate(-122.0409,-238.2407)">
    <path style="fill:#fcc;fill-opacity:1;fill-rule:evenodd;stroke:black;stroke-width:1px;stroke-linecap:butt;stroke-linejoin:miter;stroke-opacity:1" d="M 376.33105,493.1529 L 376.33105,238.74067 L 122.54085,238.74067 L 122.54085,492.87932 L 376.33105,493.1529 z " id="path11491"/>
    <path style="opacity:1;fill:white;fill-rule:evenodd;stroke:black;stroke-width:1px;stroke-linecap:butt;stroke-linejoin:miter;stroke-opacity:1" d="M 362.33527,492.84189 C 361.69521,478.47223 362.62434,463.9071 360.2843,449.69721 C 356.31017,436.80148 354.01872,423.52046 352.69373,410.11127 C 350.65439,396.2405 350.16776,382.23123 348.96152,368.27942 C 344.92392,359.80501 339.64998,351.88223 333.3333,344.96987 C 329.21513,341.65977 322.59851,342.99908 318.98204,338.55608 C 312.03883,333.02532 304.7996,327.5981 298.69312,321.20992 C 295.29781,316.675 295.50359,310.57586 295.20386,305.26169 C 299.59301,292.7361 304.76882,279.50529 301.81428,266.04658 C 299.91438,258.36359 295.22489,251.26998 288.1848,247.40747 C 277.60868,242.39891 265.08197,244.58404 254.87681,249.60165 C 245.69873,253.04186 235.65981,259.16605 233.69392,269.50384 C 232.67087,274.26143 232.23942,279.68007 235.94879,283.37811 C 237.26445,286.58689 235.80087,290.71155 235.04496,294.03689 C 233.55376,297.10543 230.70681,299.47313 231.78571,303.27679 C 234.15818,305.804 240.29377,303.27693 238.39484,308.91497 C 239.57056,311.74802 239.7938,315.38478 242.06766,317.67814 C 246.61285,318.44621 241.89912,325.03697 246.7051,325.92927 C 250.1893,328.2207 254.43318,327.24217 258.14444,326.13657 C 262.33403,329.79309 256.9295,330.73516 253.74751,330.10277 C 243.0345,331.39925 234.104,338.59408 223.38824,339.89908 C 216.98293,341.69253 213.56457,347.70682 209.62573,352.57303 C 206.81432,359.27786 207.4707,366.77738 207.05704,373.91186 C 207.26565,380.10411 207.25073,386.26717 205.00229,392.13868 C 201.89821,402.35997 196.87435,412.20521 196.8131,423.12914 C 197.23067,427.79868 195.25387,431.7424 192.73191,435.52088 C 188.82821,441.41483 188.03025,448.69773 186.51433,455.45946 C 185.08777,467.87489 183.93276,480.31842 182.86557,492.76935 C 189.17001,492.76935 195.47446,492.76935 201.7789,492.76935 C 204.73119,480.14119 210.22737,468.2552 214.83235,456.15976 C 217.58287,449.50941 220.05983,442.71188 221.24205,435.58951 C 224.7654,433.41199 222.12136,441.68033 223.02215,443.9447 C 223.00274,453.32623 223.58611,462.80601 223.23085,472.1255 C 221.20927,478.99102 216.60693,485.32734 217.3934,492.76935 C 249.81365,492.76935 282.2339,492.76935 314.65414,492.76935 C 314.34171,484.88692 315.31403,476.80699 312.10896,469.36922 C 313.1003,456.98024 313.53282,444.4898 316.32209,432.31525 C 317.93622,424.07969 319.10048,415.7382 321.41675,407.65933 C 325.45737,405.28598 323.47915,413.42801 324.72665,415.93447 C 326.20753,428.43479 328.00423,440.88712 331.47643,453.01202 C 334.52599,466.27961 338.29428,479.44446 339.89023,492.98929 C 347.37191,492.94016 354.85359,492.89102 362.33527,492.84189 z " id="path11351"/>
    <path style="fill:none;fill-rule:evenodd;stroke:black;stroke-width:1px;stroke-linecap:butt;stroke-linejoin:miter;stroke-opacity:1" d="M 272.15411,481.22342 C 269.80827,481.26008 267.46242,481.29674 265.11658,481.3334 C 261.72357,482.68473 258.47604,484.76745 254.72457,484.89643 C 251.20485,484.48961 248.26394,482.33817 245.30897,480.56799 C 243.34838,479.19128 242.19002,476.55845 243.00932,474.2235 C 243.38189,472.73752 243.7998,471.18273 244.74178,469.9517 C 245.55596,469.19443 246.73415,469.05908 247.79768,469.07272" id="path11359"/>
    <path style="fill:none;fill-rule:evenodd;stroke:black;stroke-width:1px;stroke-linecap:butt;stroke-linejoin:miter;stroke-opacity:1" d="M 250.76665,476.16522 C 252.52602,476.12856 254.2854,476.0919 256.04477,476.05524 C 256.79778,476.95081 258.09617,477.10618 259.18279,476.88336 C 261.23117,477.26882 263.23457,476.25288 264.75728,474.9646 C 266.67311,473.93176 268.9401,474.2922 270.97171,473.6713 C 272.21218,473.01494 272.647,471.30591 271.97627,470.09736 C 271.64062,469.05005 271.14554,468.05655 270.88956,466.98343" id="path11367"/>
    <path style="fill:none;fill-rule:evenodd;stroke:black;stroke-width:1px;stroke-linecap:butt;stroke-linejoin:miter;stroke-opacity:1" d="M 271.10947,467.25833 C 270.21333,466.26474 269.3459,465.24529 268.43196,464.26778 C 267.27199,463.61497 266.11174,462.96265 264.95163,462.31009 C 260.25995,462.31009 255.56828,462.31009 250.8766,462.31009 C 250.8766,463.00651 250.8766,463.70293 250.8766,464.39935" id="path11369"/>
    <path style="fill:none;fill-rule:evenodd;stroke:black;stroke-width:1px;stroke-linecap:butt;stroke-linejoin:miter;stroke-opacity:1" d="M 266.43613,471.21695 C 265.09706,469.88947 262.95731,470.06105 261.34614,470.74363 C 257.89836,471.25526 254.34692,471.25841 250.92226,470.59959 C 248.49911,469.78912 246.46804,468.12115 244.64905,466.38133 C 243.60145,464.92379 244.11595,463.03645 243.95551,461.37558 C 243.83361,459.71799 245.1109,458.62776 246.24417,457.66167 C 247.71874,456.23928 249.56716,455.0218 251.6878,455.01546 C 253.9925,454.74442 256.51161,454.89566 258.45416,456.30159 C 259.9212,457.21012 261.67896,456.81018 263.20931,456.32609 C 265.80349,455.69338 268.63823,456.11536 270.85646,457.63377 C 273.13055,458.98606 274.91336,461.52695 274.53184,464.26848 C 274.43896,465.07242 274.17583,465.86099 273.73419,466.54147" id="path11371"/>
    <path style="fill:none;fill-rule:evenodd;stroke:black;stroke-width:1px;stroke-linecap:butt;stroke-linejoin:miter;stroke-opacity:1" d="M 274.60892,464.65593 L 276.63054,465.86113" id="path11373"/>
    <path style="fill:none;fill-rule:evenodd;stroke:black;stroke-width:1px;stroke-linecap:butt;stroke-linejoin:miter;stroke-opacity:1" d="M 274.16183,461.46802 C 274.14887,459.49824 274.13592,457.52847 274.12296,455.55869 C 274.42197,454.53606 275.65322,453.88629 276.65916,454.26679 C 277.62434,454.25496 278.79468,453.96221 279.54854,454.75184 C 281.68934,456.76578 284.10439,458.60244 285.62574,461.16462 C 286.31693,462.90711 286.41328,464.81961 287.10408,466.56223 C 287.29835,467.91207 286.11952,468.87267 285.59171,469.98212" id="path11375"/>
    <path style="fill:none;fill-rule:evenodd;stroke:black;stroke-width:1px;stroke-linecap:butt;stroke-linejoin:miter;stroke-opacity:1" d="M 287.10883,467.42328 C 287.75027,467.71651 288.39172,468.00975 289.03317,468.30298" id="path11377"/>
    <path style="fill:none;fill-rule:evenodd;stroke:black;stroke-width:1px;stroke-linecap:butt;stroke-linejoin:miter;stroke-opacity:1" d="M 285.67935,461.54037 C 288.63994,454.43464 281.47659,449.29969 275.0404,452.29104 C 267.82796,453.60718 258.8727,457.1369 252.95109,450.78414 C 245.99017,444.30918 245.19761,432.25755 252.09955,425.40939 C 255.57888,420.34926 264.74302,418.95013 267.63473,425.27465 C 272.36053,431.21515 279.74743,425.85152 277.38239,419.22493 C 278.81936,411.55872 269.78349,409.83546 268.03062,403.36217 C 264.53297,396.80792 262.66352,389.56992 263.39187,382.13687 C 263.23469,366.25252 267.9402,350.93925 270.79741,335.45174 C 272.58233,329.04044 273.12745,322.65458 272.72975,316.04526 C 272.53934,307.95015 262.45548,310.29822 257.2282,311.20554 C 253.62127,309.90048 249.01247,315.57762 245.9698,316.08621 C 245.06004,316.23829 245.19146,314.82684 244.40051,314.01088 C 246.99314,307.75676 255.84264,302.76705 263.13653,302.57458 C 270.74615,302.69951 277.5917,309.15555 277.48832,316.89372 C 279.55754,335.48373 272.91421,353.53539 272.43348,372.03231 C 271.96469,378.98584 271.74705,385.9555 271.74176,392.92453" id="path11379" sodipodi:nodetypes="cccccccccccsccccc"/>
    <path style="fill:none;fill-rule:evenodd;stroke:black;stroke-width:1px;stroke-linecap:butt;stroke-linejoin:miter;stroke-opacity:1" d="M 271.67371,392.46103 C 272.81536,396.98015 274.36285,401.3906 276.18344,405.67926 C 280.62466,406.78921 278.88218,398.69007 283.57849,399.08199 C 288.49632,397.06024 293.89321,400.04353 296.72884,404.08874 C 299.17078,407.76921 298.24302,412.32235 298.44387,416.45113 C 298.45428,423.60378 296.21375,431.69815 289.55512,435.42044 C 284.57431,438.49857 278.81204,439.92825 273.20776,441.39012 C 269.16697,441.77486 267.43866,437.44029 266.24207,434.35655 C 265.35836,431.69863 263.3933,427.50345 259.95686,429.41095 C 256.42114,431.52785 255.29707,436.41426 256.30253,440.21178 C 257.77544,444.92819 263.12851,446.0834 267.4741,445.93925 C 274.19949,446.18662 280.78265,444.33833 287.47935,444.26013 C 290.7785,444.32237 291.38447,448.13016 292.44345,450.54683 C 293.84679,454.77017 293.33896,459.3692 295.10392,463.49717 C 296.52464,466.80285 295.80054,470.72231 293.10281,473.1336 C 290.64791,475.69818 286.76728,477.26144 283.28389,476.02954 C 280.85507,472.90748 276.24176,471.27461 272.61436,473.28592 C 272.2493,473.26486 271.89768,473.19739 271.54932,473.0863" id="path11381"/>
    <path style="fill:none;fill-rule:evenodd;stroke:black;stroke-width:1px;stroke-linecap:butt;stroke-linejoin:miter;stroke-opacity:1" d="M 278.25696,472.70142 L 279.24661,467.80815 L 279.79641,462.74993 L 278.4219,461.76028" id="path11383" sodipodi:nodetypes="cccc"/>
    <path style="fill:none;fill-rule:evenodd;stroke:black;stroke-width:1px;stroke-linecap:butt;stroke-linejoin:miter;stroke-opacity:1" d="M 279.74143,462.53001 L 281.33587,461.54036" id="path11385"/>
    <path style="fill:none;fill-rule:evenodd;stroke:black;stroke-width:1px;stroke-linecap:butt;stroke-linejoin:miter;stroke-opacity:1" d="M 286.28412,476.76999 C 283.66338,476.62337 281.04265,476.47676 278.42191,476.33014 C 276.99474,475.78425 275.58109,475.20305 274.1455,474.67921 C 271.46194,474.58446 268.77838,474.48953 266.09482,474.39468" id="path11387"/>
    <path style="fill:none;fill-rule:evenodd;stroke:black;stroke-width:1px;stroke-linecap:butt;stroke-linejoin:miter;stroke-opacity:1;opacity:0.5" d="M 308.21823,473.71432 C 309.71013,463.52502 308.34205,453.17513 309.45335,442.98051 C 310.98965,432.82841 312.74793,422.64788 313.29687,412.4099 C 312.26483,408.48227 311.10128,403.32546 306.74886,401.89011 C 299.23726,398.76373 291.4587,396.33687 283.51826,394.52138 C 276.42561,392.83897 269.37372,390.59231 262.00169,390.69402 C 255.52256,390.66179 248.82375,388.99219 242.56717,391.45487 C 237.52192,392.11854 234.14206,396.52383 230.68935,399.80187 C 228.54056,404.16263 227.61188,409.14499 227.33174,413.97633 C 226.67949,429.18535 227.95083,444.42483 226.70847,459.62018 C 226.53094,462.81631 226.32449,466.01075 226.10965,469.20456" id="path11391"/>
    <path style="fill:none;fill-rule:evenodd;stroke:black;stroke-width:1px;stroke-linecap:butt;stroke-linejoin:miter;stroke-opacity:1;opacity:0.5" d="M 240.26094,441.75728 L 237.22852,443.9344 L 232.95203,446.03377 L 227.43147,443.54563" id="path11395"/>
    <path style="fill:none;fill-rule:evenodd;stroke:black;stroke-width:1px;stroke-linecap:butt;stroke-linejoin:miter;stroke-opacity:1;opacity:0.5" d="M 297.4104,443.70114 C 298.73222,444.73786 300.05403,445.77459 301.37585,446.81131 C 302.49033,447.17416 303.60482,447.53702 304.7193,447.89987 C 306.04113,447.82211 307.36295,447.74435 308.68478,447.6666" id="path11399"/>
    <path style="fill:none;fill-rule:evenodd;stroke:black;stroke-width:1px;stroke-linecap:butt;stroke-linejoin:miter;stroke-opacity:1" d="M 323.14706,407.62311 C 322.88789,403.32071 322.62871,399.01831 322.36954,394.71591 C 321.0218,391.81308 319.67406,388.91025 318.32632,386.00742" id="path11401"/>
    <path style="fill:none;fill-rule:evenodd;stroke:black;stroke-width:1px;stroke-linecap:butt;stroke-linejoin:miter;stroke-opacity:1" d="M 223.01062,434.54874 C 222.45517,429.04734 221.67476,423.56289 221.26949,418.05 C 221.26949,408.12117 221.26949,398.19235 221.26949,388.26352 C 221.5491,386.67795 222.64724,385.11596 222.2287,383.49326 C 221.66713,381.11743 221.10557,378.74159 220.54401,376.36575" id="path11403"/>
    <path style="fill:none;fill-rule:evenodd;stroke:black;stroke-width:1px;stroke-linecap:butt;stroke-linejoin:miter;stroke-opacity:1" d="M 219.96363,373.02858 L 220.68911,377.09124" id="path11405"/>
    <switch style="font-size:10px"><text xml:space="preserve" style="font-size:10px" x="125.57574" y="381.3786" id="text11544-ckb" systemLanguage="ckb"><tspan sodipodi:role="line" id="tspan11546-ckb" x="125.57574" y="381.3786">سوورێنچک</tspan></text><text xml:space="preserve" style="font-size:10px" x="125.57574" y="381.3786" id="text11544"><tspan sodipodi:role="line" id="tspan11546" x="125.57574" y="381.3786">Esophagus</tspan></text></switch>
    <switch style="font-size:10px;font-style:normal;font-weight:normal;fill:black;fill-opacity:1;stroke:none;stroke-width:1px;stroke-linecap:butt;stroke-linejoin:miter;stroke-opacity:1;font-family:Bitstream Vera Sans"><text xml:space="preserve" style="font-size:10px;font-style:normal;font-weight:normal;fill:black;fill-opacity:1;stroke:none;stroke-width:1px;stroke-linecap:butt;stroke-linejoin:miter;stroke-opacity:1;font-family:Bitstream Vera Sans" x="124.03629" y="418.76541" id="text11548-ckb" systemLanguage="ckb"><tspan sodipodi:role="line" id="tspan11550-ckb" x="124.03629" y="418.76541">گەدە</tspan></text><text xml:space="preserve" style="font-size:10px;font-style:normal;font-weight:normal;fill:black;fill-opacity:1;stroke:none;stroke-width:1px;stroke-linecap:butt;stroke-linejoin:miter;stroke-opacity:1;font-family:Bitstream Vera Sans" x="124.03629" y="418.76541" id="text11548"><tspan sodipodi:role="line" id="tspan11550" x="124.03629" y="418.76541">Stomach</tspan></text></switch>
    <switch style="font-size:10px;font-style:normal;font-weight:normal;fill:black;fill-opacity:1;stroke:none;stroke-width:1px;stroke-linecap:butt;stroke-linejoin:miter;stroke-opacity:1;font-family:Bitstream Vera Sans"><text xml:space="preserve" style="font-size:10px;font-style:normal;font-weight:normal;fill:black;fill-opacity:1;stroke:none;stroke-width:1px;stroke-linecap:butt;stroke-linejoin:miter;stroke-opacity:1;font-family:Bitstream Vera Sans" x="124.25621" y="440.31784" id="text11552-ckb" systemLanguage="ckb"><tspan sodipodi:role="line" id="tspan11554-ckb" x="124.25621" y="440.31784">ڕیخۆڵە</tspan><tspan sodipodi:role="line" x="124.25621" y="452.81784" id="tspan11556-ckb">باریکە</tspan></text><text xml:space="preserve" style="font-size:10px;font-style:normal;font-weight:normal;fill:black;fill-opacity:1;stroke:none;stroke-width:1px;stroke-linecap:butt;stroke-linejoin:miter;stroke-opacity:1;font-family:Bitstream Vera Sans" x="124.25621" y="440.31784" id="text11552"><tspan sodipodi:role="line" id="tspan11554" x="124.25621" y="440.31784">Small</tspan><tspan sodipodi:role="line" x="124.25621" y="452.81784" id="tspan11556">Intestine</tspan></text></switch>
    <path style="fill:none;fill-rule:evenodd;stroke:black;stroke-width:1.5;stroke-linecap:butt;stroke-linejoin:miter;stroke-miterlimit:4;stroke-dasharray:none;stroke-opacity:1" d="M 267.86562,380.71884 L 181.65599,380.71884" id="path11558"/>
    <path style="fill:none;fill-rule:evenodd;stroke:black;stroke-width:1.5;stroke-linecap:butt;stroke-linejoin:miter;stroke-miterlimit:4;stroke-dasharray:none;stroke-opacity:1" d="M 282.3805,419.4252 L 169.78018,419.4252" id="path11560"/>
    <path style="fill:none;fill-rule:evenodd;stroke:black;stroke-width:1.5;stroke-linecap:butt;stroke-linejoin:miter;stroke-miterlimit:4;stroke-dasharray:none;stroke-opacity:1" d="M 169.34033,450.21435 L 257.9691,450.21435" id="path11562"/>
    <path style="fill:none;fill-rule:evenodd;stroke:black;stroke-width:0.90426284px;stroke-linecap:butt;stroke-linejoin:miter;stroke-opacity:1" d="M 244.86052,318.76281 C 244.86485,318.77202 244.64308,318.96874 244.67213,319.01951 C 244.85356,318.9577 244.98395,318.78811 245.14128,318.6773 C 245.65403,318.24899 246.15072,317.79457 246.59233,317.27819 C 246.74155,317.13719 246.87315,316.9749 246.89814,316.75157 C 246.96358,316.46171 247.02888,316.16788 247.15485,315.9022 C 247.1636,315.8656 247.17167,315.82853 247.18579,315.79383" id="path11566"/>
    <path style="fill:none;fill-rule:evenodd;stroke:black;stroke-width:1px;stroke-linecap:butt;stroke-linejoin:miter;stroke-opacity:1" d="M 244.49886,313.09266 C 244.54914,312.80907 244.15163,312.88302 243.97524,312.85811 C 243.71012,312.85279 243.439,312.82449 243.19777,312.70745 C 242.50513,312.52017 241.78252,312.63301 241.07586,312.59432 C 240.75296,312.58265 240.41778,312.63806 240.15129,312.83197 C 240.07715,312.87898 240.00569,312.93008 239.93546,312.98271" id="path11570"/>
  </g>
</svg>
