<svg width="180" height="180" viewBox="0 0 180 180" xmlns="http://www.w3.org/2000/svg">
  <defs>
    <linearGradient id="iconGradient" x1="0%" y1="0%" x2="100%" y2="100%">
      <stop offset="0%" style="stop-color:#1E40AF;stop-opacity:1" />
      <stop offset="50%" style="stop-color:#3B82F6;stop-opacity:1" />
      <stop offset="100%" style="stop-color:#8B5CF6;stop-opacity:1" />
    </linearGradient>
    <filter id="shadowIcon" x="-50%" y="-50%" width="200%" height="200%">
      <feDropShadow dx="0" dy="4" stdDeviation="6" flood-color="#1E40AF" flood-opacity="0.4"/>
    </filter>
    <filter id="innerShadow" x="-50%" y="-50%" width="200%" height="200%">
      <feDropShadow dx="0" dy="2" stdDeviation="4" flood-color="#000000" flood-opacity="0.1"/>
    </filter>
  </defs>

  <!-- Rounded square background with iOS-style corner radius (22.22%) -->
  <rect width="180" height="180" rx="40" ry="40" fill="url(#iconGradient)" filter="url(#shadowIcon)"/>

  <!-- Inner highlight for depth -->
  <rect x="5" y="5" width="170" height="170" rx="35" ry="35" fill="none" stroke="rgba(255,255,255,0.2)" stroke-width="1"/>

  <!-- DNA Helix (centered and optimized for mobile) -->
  <g transform="translate(45, 52.5)">
    <!-- Outer helix strand -->
    <path d="M0,37.5 Q22.5,0 45,37.5 Q67.5,75 90,37.5"
          stroke="white"
          stroke-width="6"
          fill="none"
          opacity="0.95"
          stroke-linecap="round"/>

    <!-- Inner helix strand -->
    <path d="M0,37.5 Q22.5,75 45,37.5 Q67.5,0 90,37.5"
          stroke="white"
          stroke-width="6"
          fill="none"
          opacity="0.8"
          stroke-linecap="round"/>

    <!-- Enhanced base pairs -->
    <circle cx="22.5" cy="37.5" r="5" fill="white" opacity="0.95" filter="url(#innerShadow)"/>
    <circle cx="67.5" cy="37.5" r="5" fill="white" opacity="0.95" filter="url(#innerShadow)"/>

    <!-- Connecting bonds -->
    <line x1="22.5" y1="27" x2="22.5" y2="48" stroke="white" stroke-width="3" opacity="0.7" stroke-linecap="round"/>
    <line x1="67.5" y1="27" x2="67.5" y2="48" stroke="white" stroke-width="3" opacity="0.7" stroke-linecap="round"/>
  </g>

  <!-- Small "C" monogram at bottom for branding -->
  <text x="90" y="145"
        text-anchor="middle"
        font-family="Inter, -apple-system, BlinkMacSystemFont, 'Segoe UI', Roboto, sans-serif"
        font-size="24"
        font-weight="700"
        fill="white"
        opacity="0.9">
    C
  </text>
</svg>