<svg width="1200" height="630" viewBox="0 0 1200 630" xmlns="http://www.w3.org/2000/svg">
  <defs>
    <linearGradient id="bgGrad" x1="0%" y1="0%" x2="100%" y2="100%">
      <stop offset="0%" style="stop-color:#1e3a5f;stop-opacity:1" />
      <stop offset="100%" style="stop-color:#0d9488;stop-opacity:1" />
    </linearGradient>
    <linearGradient id="brainGrad" x1="0%" y1="0%" x2="100%" y2="100%">
      <stop offset="0%" style="stop-color:#14b8a6;stop-opacity:1" />
      <stop offset="100%" style="stop-color:#06b6d4;stop-opacity:1" />
    </linearGradient>
  </defs>

  <!-- Background -->
  <rect width="1200" height="630" fill="url(#bgGrad)"/>

  <!-- Decorative circles -->
  <circle cx="100" cy="100" r="150" fill="#ffffff" opacity="0.05"/>
  <circle cx="1100" cy="530" r="200" fill="#ffffff" opacity="0.05"/>
  <circle cx="600" cy="315" r="400" fill="#ffffff" opacity="0.03"/>

  <!-- Brain Icon (simplified) -->
  <g transform="translate(480, 150)">
    <ellipse cx="120" cy="100" rx="100" ry="90" fill="url(#brainGrad)" opacity="0.9"/>
    <path d="M60 80 Q80 60 120 60 Q160 60 180 80" stroke="#fff" stroke-width="4" fill="none" opacity="0.6"/>
    <path d="M50 100 Q80 80 120 80 Q160 80 190 100" stroke="#fff" stroke-width="4" fill="none" opacity="0.6"/>
    <path d="M55 120 Q80 100 120 100 Q160 100 185 120" stroke="#fff" stroke-width="4" fill="none" opacity="0.6"/>
    <path d="M65 140 Q80 120 120 120 Q160 120 175 140" stroke="#fff" stroke-width="4" fill="none" opacity="0.6"/>
    <circle cx="120" cy="160" r="8" fill="#fff" opacity="0.8"/>
  </g>

  <!-- Main Text -->
  <text x="600" y="380" font-family="Arial, sans-serif" font-size="64" font-weight="bold" fill="#ffffff" text-anchor="middle">
    Cerebrum Biology Academy
  </text>

  <!-- Tagline -->
  <text x="600" y="440" font-family="Arial, sans-serif" font-size="28" fill="#94a3b8" text-anchor="middle">
    Expert NEET Biology Coaching | 98% Success Rate
  </text>

  <!-- Bottom stats bar -->
  <rect x="200" y="500" width="800" height="80" rx="10" fill="#ffffff" opacity="0.1"/>

  <text x="350" y="550" font-family="Arial, sans-serif" font-size="24" fill="#ffffff" text-anchor="middle">
    2500+ Students
  </text>
  <text x="600" y="550" font-family="Arial, sans-serif" font-size="24" fill="#ffffff" text-anchor="middle">
    695/720 Top Score
  </text>
  <text x="850" y="550" font-family="Arial, sans-serif" font-size="24" fill="#ffffff" text-anchor="middle">
    AIIMS Selections
  </text>

  <!-- Dividers -->
  <line x1="475" y1="520" x2="475" y2="570" stroke="#ffffff" stroke-width="2" opacity="0.3"/>
  <line x1="725" y1="520" x2="725" y2="570" stroke="#ffffff" stroke-width="2" opacity="0.3"/>
</svg>
