<svg width="1200" height="630" xmlns="http://www.w3.org/2000/svg">
  <defs>
    <linearGradient id="bg" x1="0%" y1="0%" x2="100%" y2="100%">
      <stop offset="0%" style="stop-color:#059669;stop-opacity:1" />
      <stop offset="100%" style="stop-color:#10b981;stop-opacity:1" />
    </linearGradient>
  </defs>
  <rect width="100%" height="100%" fill="url(#bg)"/>
  <circle cx="100" cy="100" r="150" fill="rgba(255,255,255,0.06)"/>
  <circle cx="1100" cy="530" r="180" fill="rgba(255,255,255,0.05)"/>
  <g transform="translate(40, 80)">
    <rect x="50" y="0" width="300" height="70" fill="rgba(255,255,255,0.2)" rx="10"/>
    <text x="200" y="35" text-anchor="middle" fill="white" font-size="22" text-decoration="line-through">Rs 1.5 Crores</text>
    <text x="200" y="55" text-anchor="middle" fill="rgba(255,255,255,0.7)" font-size="12">Premium College Cost</text>
    <polygon points="200,90 180,110 195,110 195,140 205,140 205,110 220,110" fill="white"/>
    <rect x="50" y="160" width="300" height="90" fill="rgba(255,255,255,0.95)" rx="12"/>
    <text x="200" y="200" text-anchor="middle" fill="#059669" font-size="36" font-weight="bold">Under Rs 50L</text>
    <text x="200" y="230" text-anchor="middle" fill="#047857" font-size="14">Complete 5-Year MBBS</text>
    <g transform="translate(80, 280)">
      <circle cx="70" cy="50" r="55" fill="#fbbf24"/>
      <text x="70" y="42" text-anchor="middle" fill="#92400e" font-size="14" font-weight="bold">SAVE</text>
      <text x="70" y="65" text-anchor="middle" fill="#92400e" font-size="20" font-weight="bold">Rs 1 Cr+</text>
    </g>
    <rect x="50" y="400" width="300" height="45" fill="rgba(255,255,255,0.2)" rx="8"/>
    <text x="200" y="428" text-anchor="middle" fill="white" font-size="13" font-weight="bold">20+ Affordable Colleges Listed</text>
  </g>
  <g transform="translate(450, 45)">
    <rect x="0" y="0" width="700" height="540" fill="rgba(255,255,255,0.98)" rx="20"/>
    <rect x="30" y="25" width="220" height="36" fill="#059669" rx="18"/>
    <text x="140" y="49" text-anchor="middle" fill="white" font-size="14" font-weight="bold">BUDGET GUIDE 2025</text>
    <text x="40" y="105" fill="#064e3b" font-size="28" font-weight="bold">Affordable MBBS in</text>
    <text x="40" y="145" fill="#059669" font-size="36" font-weight="bold">Maharashtra</text>
    <text x="40" y="185" fill="#047857" font-size="18">Under Rs 50 Lakhs Total Cost</text>
    <g transform="translate(40, 215)">
      <rect x="0" y="0" width="200" height="70" fill="#dcfce7" rx="10"/>
      <text x="100" y="28" text-anchor="middle" fill="#166534" font-size="18" font-weight="bold">Rs 35-40L</text>
      <text x="100" y="50" text-anchor="middle" fill="#14532d" font-size="12">Budget Tier</text>
      <rect x="215" y="0" width="200" height="70" fill="#fef3c7" rx="10"/>
      <text x="315" y="28" text-anchor="middle" fill="#92400e" font-size="18" font-weight="bold">Rs 40-45L</text>
      <text x="315" y="50" text-anchor="middle" fill="#78350f" font-size="12">Mid-Budget</text>
      <rect x="430" y="0" width="200" height="70" fill="#dbeafe" rx="10"/>
      <text x="530" y="28" text-anchor="middle" fill="#1e40af" font-size="18" font-weight="bold">Rs 45-50L</text>
      <text x="530" y="50" text-anchor="middle" fill="#1e3a8a" font-size="12">Value Tier</text>
    </g>
    <g transform="translate(40, 310)">
      <circle cx="12" cy="12" r="10" fill="#059669"/>
      <text x="35" y="18" fill="#374151" font-size="14">NMC approved colleges with good infrastructure</text>
      <circle cx="12" cy="48" r="10" fill="#f59e0b"/>
      <text x="35" y="54" fill="#374151" font-size="14">City-wise lowest fee options comparison</text>
      <circle cx="12" cy="84" r="10" fill="#3b82f6"/>
      <text x="35" y="90" fill="#374151" font-size="14">Hidden costs analysis &amp; total investment</text>
      <circle cx="12" cy="120" r="10" fill="#ec4899"/>
      <text x="35" y="126" fill="#374151" font-size="14">Education loan &amp; scholarship options</text>
      <circle cx="12" cy="156" r="10" fill="#7c3aed"/>
      <text x="35" y="162" fill="#374151" font-size="14">Quality vs cost decision framework</text>
    </g>
    <rect x="40" y="480" width="620" height="45" fill="#059669" rx="10"/>
    <text x="350" y="510" text-anchor="middle" fill="white" font-size="15" font-weight="bold">Terna | SKNMC | Vasantrao Pawar | SMBT | More</text>
  </g>
  <rect x="0" y="580" width="1200" height="50" fill="rgba(0,0,0,0.25)"/>
  <text x="600" y="612" text-anchor="middle" fill="rgba(255,255,255,0.95)" font-size="16" font-weight="500">Cerebrum Biology Academy | cerebrumbiologyacademy.com</text>
</svg>
