<svg width="1200" height="630" xmlns="http://www.w3.org/2000/svg">
  <!-- Background Gradient -->
  <defs>
    <linearGradient id="grad-foundation" x1="0%" y1="0%" x2="100%" y2="100%">
      <stop offset="0%" style="stop-color:#0d9488;stop-opacity:1" />
      <stop offset="100%" style="stop-color:#14b8a6;stop-opacity:1" />
    </linearGradient>
  </defs>

  <!-- Background -->
  <rect width="1200" height="630" fill="url(#grad-foundation)"/>

  <!-- Building Foundation Illustration -->
  <g transform="translate(100, 200)">
    <!-- Foundation blocks stacking -->
    <rect x="0" y="200" width="250" height="60" rx="5" fill="#22c55e" opacity="0.9"/>
    <text x="125" y="238" font-family="Arial, sans-serif" font-size="20" fill="#ffffff" text-anchor="middle" font-weight="600">Class 11 Biology</text>

    <rect x="0" y="120" width="250" height="60" rx="5" fill="#16a34a" opacity="0.9"/>
    <text x="125" y="158" font-family="Arial, sans-serif" font-size="18" fill="#ffffff" text-anchor="middle" font-weight="600">Strong Foundation</text>

    <rect x="0" y="40" width="250" height="60" rx="5" fill="#15803d" opacity="0.9"/>
    <text x="125" y="78" font-family="Arial, sans-serif" font-size="18" fill="#ffffff" text-anchor="middle" font-weight="600">NEET Success</text>

    <!-- Arrow pointing up -->
    <path d="M 270 230 L 300 230 L 285 210 Z" fill="#facc15" opacity="0.9"/>
    <path d="M 285 230 L 285 50" stroke="#facc15" stroke-width="6" opacity="0.9"/>
    <path d="M 270 65 L 285 50 L 300 65" fill="#facc15" opacity="0.9"/>
  </g>

  <!-- DNA Helix Icon -->
  <g transform="translate(450, 280)">
    <path d="M 0 0 Q -15 20 0 40 Q 15 60 0 80" stroke="#ffffff" stroke-width="6" fill="none" opacity="0.8"/>
    <path d="M 40 0 Q 55 20 40 40 Q 25 60 40 80" stroke="#ffffff" stroke-width="6" fill="none" opacity="0.8"/>
    <line x1="0" y1="10" x2="40" y2="10" stroke="#ffffff" stroke-width="3" opacity="0.6"/>
    <line x1="0" y1="40" x2="40" y2="40" stroke="#ffffff" stroke-width="3" opacity="0.6"/>
    <line x1="0" y1="70" x2="40" y2="70" stroke="#ffffff" stroke-width="3" opacity="0.6"/>
  </g>

  <!-- Main Title -->
  <text x="550" y="180" font-family="Arial, sans-serif" font-size="68" font-weight="bold" fill="#ffffff">Class 11 Biology</text>
  <text x="550" y="260" font-family="Arial, sans-serif" font-size="68" font-weight="bold" fill="#ffffff">Foundation</text>
  <text x="550" y="330" font-family="Arial, sans-serif" font-size="44" fill="#fef3c7">Build Strong for NEET 2026</text>

  <!-- Key Stats Box -->
  <rect x="550" y="370" width="600" height="200" rx="20" fill="#ffffff" opacity="0.15"/>
  <text x="580" y="420" font-family="Arial, sans-serif" font-size="28" font-weight="600" fill="#fef3c7">📚 Master 22 Chapters Early</text>
  <text x="580" y="460" font-family="Arial, sans-serif" font-size="24" fill="#ffffff">• 50% of NEET Biology comes from Class 11</text>
  <text x="580" y="495" font-family="Arial, sans-serif" font-size="24" fill="#ffffff">• Build concepts before Class 12 complexity</text>
  <text x="580" y="530" font-family="Arial, sans-serif" font-size="24" fill="#ffffff">• Botany + Zoology fundamentals = strong base</text>

  <!-- Badge -->
  <circle cx="950" cy="120" r="70" fill="#22c55e" opacity="0.9"/>
  <text x="950" y="110" font-family="Arial, sans-serif" font-size="48" font-weight="bold" fill="#ffffff" text-anchor="middle">50%</text>
  <text x="950" y="140" font-family="Arial, sans-serif" font-size="18" font-weight="600" fill="#ffffff" text-anchor="middle">of NEET</text>
</svg>