<svg width="1200" height="630" xmlns="http://www.w3.org/2000/svg">
  <defs>
    <linearGradient id="bg" x1="0%" y1="0%" x2="100%" y2="100%">
      <stop offset="0%" style="stop-color:#dc2626;stop-opacity:1" />
      <stop offset="100%" style="stop-color:#f97316;stop-opacity:1" />
    </linearGradient>
  </defs>
  <rect width="100%" height="100%" fill="url(#bg)"/>
  <circle cx="100" cy="100" r="150" fill="rgba(255,255,255,0.06)"/>
  <circle cx="1100" cy="530" r="180" fill="rgba(255,255,255,0.05)"/>
  <g transform="translate(40, 80)">
    <rect x="30" y="0" width="340" height="120" fill="rgba(255,255,255,0.95)" rx="12"/>
    <text x="200" y="35" text-anchor="middle" fill="#dc2626" font-size="22" font-weight="bold">DY PATIL</text>
    <text x="200" y="60" text-anchor="middle" fill="#374151" font-size="14">Medical College</text>
    <text x="200" y="85" text-anchor="middle" fill="#dc2626" font-size="16" font-weight="bold">3 Campuses Compared</text>
    <text x="200" y="105" text-anchor="middle" fill="#6b7280" font-size="12">Pune | Navi Mumbai | Kolhapur</text>
    <g transform="translate(30, 140)">
      <rect x="0" y="0" width="105" height="90" fill="rgba(255,255,255,0.2)" rx="8"/>
      <text x="52" y="25" text-anchor="middle" fill="white" font-size="12" font-weight="bold">PUNE</text>
      <text x="52" y="50" text-anchor="middle" fill="#fbbf24" font-size="14" font-weight="bold">Rs 32L/yr</text>
      <text x="52" y="70" text-anchor="middle" fill="white" font-size="10">250 Seats</text>
      <rect x="115" y="0" width="105" height="90" fill="rgba(255,255,255,0.2)" rx="8"/>
      <text x="167" y="25" text-anchor="middle" fill="white" font-size="12" font-weight="bold">NAVI MUM</text>
      <text x="167" y="50" text-anchor="middle" fill="#fbbf24" font-size="14" font-weight="bold">Rs 28L/yr</text>
      <text x="167" y="70" text-anchor="middle" fill="white" font-size="10">250 Seats</text>
      <rect x="230" y="0" width="105" height="90" fill="rgba(255,255,255,0.2)" rx="8"/>
      <text x="282" y="25" text-anchor="middle" fill="white" font-size="12" font-weight="bold">KOLHAPUR</text>
      <text x="282" y="50" text-anchor="middle" fill="#fbbf24" font-size="14" font-weight="bold">Rs 22L/yr</text>
      <text x="282" y="70" text-anchor="middle" fill="white" font-size="10">150 Seats</text>
    </g>
    <g transform="translate(30, 260)">
      <rect x="0" y="0" width="340" height="180" fill="rgba(255,255,255,0.15)" rx="10"/>
      <text x="170" y="30" text-anchor="middle" fill="white" font-size="14" font-weight="bold">KEY COMPARISON</text>
      <text x="20" y="60" fill="white" font-size="12">Hospital Beds: 1500-2000</text>
      <text x="20" y="85" fill="white" font-size="12">NAAC Grade: A to A++</text>
      <text x="20" y="110" fill="white" font-size="12">NIRF Ranked: Top 50</text>
      <text x="20" y="135" fill="white" font-size="12">Deemed University Status</text>
      <text x="20" y="160" fill="white" font-size="12">MCC Counselling</text>
    </g>
  </g>
  <g transform="translate(450, 45)">
    <rect x="0" y="0" width="700" height="540" fill="rgba(255,255,255,0.98)" rx="20"/>
    <rect x="30" y="25" width="220" height="36" fill="#dc2626" rx="18"/>
    <text x="140" y="49" text-anchor="middle" fill="white" font-size="14" font-weight="bold">COLLEGE COMPARISON</text>
    <text x="40" y="105" fill="#7f1d1d" font-size="26" font-weight="bold">DY Patil Medical College</text>
    <text x="40" y="145" fill="#dc2626" font-size="20">Pune vs Navi Mumbai vs Kolhapur</text>
    <text x="40" y="180" fill="#6b7280" font-size="16">Which Campus is Right for You?</text>
    <g transform="translate(40, 205)">
      <rect x="0" y="0" width="200" height="70" fill="#fef2f2" rx="10"/>
      <text x="100" y="28" text-anchor="middle" fill="#dc2626" font-size="14" font-weight="bold">Pune Campus</text>
      <text x="100" y="50" text-anchor="middle" fill="#7f1d1d" font-size="11">NAAC A++ | 2000 Beds</text>
      <rect x="215" y="0" width="200" height="70" fill="#fef3c7" rx="10"/>
      <text x="315" y="28" text-anchor="middle" fill="#b45309" font-size="14" font-weight="bold">Navi Mumbai</text>
      <text x="315" y="50" text-anchor="middle" fill="#92400e" font-size="11">NAAC A+ | 1800 Beds</text>
      <rect x="430" y="0" width="200" height="70" fill="#dcfce7" rx="10"/>
      <text x="530" y="28" text-anchor="middle" fill="#166534" font-size="14" font-weight="bold">Kolhapur</text>
      <text x="530" y="50" text-anchor="middle" fill="#14532d" font-size="11">NAAC A | 800 Beds</text>
    </g>
    <g transform="translate(40, 300)">
      <circle cx="12" cy="12" r="10" fill="#dc2626"/>
      <text x="35" y="18" fill="#374151" font-size="14">Fee structure comparison (Mgmt/NRI/State)</text>
      <circle cx="12" cy="48" r="10" fill="#f59e0b"/>
      <text x="35" y="54" fill="#374151" font-size="14">NEET cutoff trends for each campus</text>
      <circle cx="12" cy="84" r="10" fill="#22c55e"/>
      <text x="35" y="90" fill="#374151" font-size="14">Hospital infrastructure &amp; patient footfall</text>
      <circle cx="12" cy="120" r="10" fill="#3b82f6"/>
      <text x="35" y="126" fill="#374151" font-size="14">Faculty quality &amp; research opportunities</text>
      <circle cx="12" cy="156" r="10" fill="#7c3aed"/>
      <text x="35" y="162" fill="#374151" font-size="14">Hostel, location &amp; living costs</text>
    </g>
    <rect x="40" y="480" width="620" height="45" fill="#dc2626" rx="10"/>
    <text x="350" y="510" text-anchor="middle" fill="white" font-size="15" font-weight="bold">Honest Review | Campus Comparison | Best Choice Guide</text>
  </g>
  <rect x="0" y="580" width="1200" height="50" fill="rgba(0,0,0,0.25)"/>
  <text x="600" y="612" text-anchor="middle" fill="rgba(255,255,255,0.95)" font-size="16" font-weight="500">Cerebrum Biology Academy | cerebrumbiologyacademy.com</text>
</svg>
