<svg width="1200" height="630" xmlns="http://www.w3.org/2000/svg">
  <!-- Background Gradient -->
  <defs>
    <linearGradient id="grad4" x1="0%" y1="0%" x2="100%" y2="100%">
      <stop offset="0%" style="stop-color:#7c3aed;stop-opacity:1" />
      <stop offset="100%" style="stop-color:#5b21b6;stop-opacity:1" />
    </linearGradient>
  </defs>

  <!-- Background -->
  <rect width="1200" height="630" fill="url(#grad4)"/>

  <!-- DNA Helix -->
  <g opacity="0.3">
    <ellipse cx="150" cy="200" rx="30" ry="15" fill="#a78bfa"/>
    <ellipse cx="150" cy="280" rx="30" ry="15" fill="#c4b5fd"/>
    <ellipse cx="150" cy="360" rx="30" ry="15" fill="#a78bfa"/>
    <ellipse cx="150" cy="440" rx="30" ry="15" fill="#c4b5fd"/>
    <path d="M 130 200 Q 110 240 130 280 Q 150 320 130 360 Q 110 400 130 440" stroke="#ffffff" stroke-width="4" fill="none"/>
    <path d="M 170 200 Q 190 240 170 280 Q 150 320 170 360 Q 190 400 170 440" stroke="#ffffff" stroke-width="4" fill="none"/>
  </g>

  <!-- Punnett Square -->
  <g transform="translate(80, 480)">
    <rect x="0" y="0" width="60" height="60" fill="#c4b5fd" opacity="0.6" stroke="#ffffff" stroke-width="2"/>
    <rect x="60" y="0" width="60" height="60" fill="#c4b5fd" opacity="0.6" stroke="#ffffff" stroke-width="2"/>
    <rect x="0" y="60" width="60" height="60" fill="#a78bfa" opacity="0.6" stroke="#ffffff" stroke-width="2"/>
    <rect x="60" y="60" width="60" height="60" fill="#c4b5fd" opacity="0.6" stroke="#ffffff" stroke-width="2"/>
    <text x="30" y="38" font-family="Arial, sans-serif" font-size="24" font-weight="bold" fill="#ffffff" text-anchor="middle">T</text>
    <text x="90" y="38" font-family="Arial, sans-serif" font-size="24" font-weight="bold" fill="#ffffff" text-anchor="middle">t</text>
    <text x="30" y="98" font-family="Arial, sans-serif" font-size="24" font-weight="bold" fill="#ffffff" text-anchor="middle">T</text>
    <text x="90" y="98" font-family="Arial, sans-serif" font-size="24" font-weight="bold" fill="#ffffff" text-anchor="middle">t</text>
  </g>

  <!-- Main Title -->
  <text x="350" y="180" font-family="Arial, sans-serif" font-size="58" font-weight="bold" fill="#ffffff">Genetics &amp;</text>
  <text x="350" y="250" font-family="Arial, sans-serif" font-size="58" font-weight="bold" fill="#ffffff">Molecular Biology</text>
  <text x="350" y="320" font-family="Arial, sans-serif" font-size="42" fill="#facc15">Complete NEET Guide</text>

  <!-- Score Badge -->
  <rect x="820" y="160" width="300" height="140" rx="20" fill="#ffffff" opacity="0.15"/>
  <text x="970" y="220" font-family="Arial, sans-serif" font-size="64" font-weight="bold" fill="#facc15" text-anchor="middle">40+</text>
  <text x="970" y="270" font-family="Arial, sans-serif" font-size="28" font-weight="600" fill="#ffffff" text-anchor="middle">MARKS</text>

  <!-- Key Topics -->
  <rect x="350" y="360" width="800" height="200" rx="15" fill="#ffffff" opacity="0.1"/>
  <text x="380" y="410" font-family="Arial, sans-serif" font-size="26" font-weight="600" fill="#ffffff">✓ DNA Replication • Transcription • Translation</text>
  <text x="380" y="455" font-family="Arial, sans-serif" font-size="26" font-weight="600" fill="#ffffff">✓ Mendelian Genetics • Punnett Squares</text>
  <text x="380" y="500" font-family="Arial, sans-serif" font-size="26" font-weight="600" fill="#ffffff">✓ Lac Operon • Gene Regulation • Inheritance</text>
  <text x="380" y="540" font-family="Arial, sans-serif" font-size="22" fill="#a78bfa">8-12 Questions = Second Highest Scoring Unit</text>
</svg>