<svg width="1200" height="630" xmlns="http://www.w3.org/2000/svg">
  <defs>
    <linearGradient id="bg" x1="0%" y1="0%" x2="100%" y2="100%">
      <stop offset="0%" style="stop-color:#1d4ed8;stop-opacity:1" />
      <stop offset="100%" style="stop-color:#3b82f6;stop-opacity:1" />
    </linearGradient>
  </defs>
  <rect width="100%" height="100%" fill="url(#bg)"/>
  <circle cx="100" cy="100" r="150" fill="rgba(255,255,255,0.06)"/>
  <circle cx="1100" cy="530" r="180" fill="rgba(255,255,255,0.05)"/>
  <g transform="translate(40, 70)">
    <rect x="50" y="20" width="300" height="80" fill="rgba(255,255,255,0.95)" rx="12"/>
    <text x="200" y="50" text-anchor="middle" fill="#1d4ed8" font-size="20" font-weight="bold">DMER MAHARASHTRA</text>
    <text x="200" y="75" text-anchor="middle" fill="#3b82f6" font-size="14">State CET Cell Counselling</text>
    <g transform="translate(50, 120)">
      <rect x="0" y="0" width="300" height="50" fill="rgba(255,255,255,0.2)" rx="8"/>
      <text x="150" y="20" text-anchor="middle" fill="white" font-size="12">Step 1</text>
      <text x="150" y="38" text-anchor="middle" fill="white" font-size="13" font-weight="bold">NEET Qualification</text>
      <rect x="0" y="60" width="300" height="50" fill="rgba(255,255,255,0.2)" rx="8"/>
      <text x="150" y="80" text-anchor="middle" fill="white" font-size="12">Step 2</text>
      <text x="150" y="98" text-anchor="middle" fill="white" font-size="13" font-weight="bold">Online Registration</text>
      <rect x="0" y="120" width="300" height="50" fill="rgba(255,255,255,0.2)" rx="8"/>
      <text x="150" y="140" text-anchor="middle" fill="white" font-size="12">Step 3</text>
      <text x="150" y="158" text-anchor="middle" fill="white" font-size="13" font-weight="bold">Document Verification</text>
      <rect x="0" y="180" width="300" height="50" fill="rgba(255,255,255,0.2)" rx="8"/>
      <text x="150" y="200" text-anchor="middle" fill="white" font-size="12">Step 4</text>
      <text x="150" y="218" text-anchor="middle" fill="white" font-size="13" font-weight="bold">Choice Filling &amp; Seat Allotment</text>
    </g>
    <rect x="50" y="380" width="300" height="60" fill="#fbbf24" rx="10"/>
    <text x="200" y="405" text-anchor="middle" fill="#92400e" font-size="14" font-weight="bold">9,000+ MBBS Seats</text>
    <text x="200" y="425" text-anchor="middle" fill="#78350f" font-size="12">85% State | 15% AIQ</text>
  </g>
  <g transform="translate(450, 45)">
    <rect x="0" y="0" width="700" height="540" fill="rgba(255,255,255,0.98)" rx="20"/>
    <rect x="30" y="25" width="260" height="36" fill="#1d4ed8" rx="18"/>
    <text x="160" y="49" text-anchor="middle" fill="white" font-size="14" font-weight="bold">COUNSELLING GUIDE 2025</text>
    <text x="40" y="105" fill="#1e3a8a" font-size="26" font-weight="bold">Maharashtra MBBS</text>
    <text x="40" y="145" fill="#1d4ed8" font-size="26" font-weight="bold">Counselling 2025</text>
    <text x="40" y="180" fill="#3b82f6" font-size="17">Complete DMER Process Guide</text>
    <g transform="translate(40, 205)">
      <rect x="0" y="0" width="200" height="70" fill="#dbeafe" rx="10"/>
      <text x="100" y="28" text-anchor="middle" fill="#1d4ed8" font-size="14" font-weight="bold">State Quota</text>
      <text x="100" y="50" text-anchor="middle" fill="#1e3a8a" font-size="12">85% Seats | Domicile Req</text>
      <rect x="215" y="0" width="200" height="70" fill="#dcfce7" rx="10"/>
      <text x="315" y="28" text-anchor="middle" fill="#166534" font-size="14" font-weight="bold">All India Quota</text>
      <text x="315" y="50" text-anchor="middle" fill="#14532d" font-size="12">15% Seats | MCC</text>
      <rect x="430" y="0" width="200" height="70" fill="#fef3c7" rx="10"/>
      <text x="530" y="28" text-anchor="middle" fill="#92400e" font-size="14" font-weight="bold">Deemed Univ</text>
      <text x="530" y="50" text-anchor="middle" fill="#78350f" font-size="12">MCC Counselling</text>
    </g>
    <g transform="translate(40, 300)">
      <circle cx="12" cy="12" r="10" fill="#1d4ed8"/>
      <text x="35" y="18" fill="#374151" font-size="14">Complete registration process step-by-step</text>
      <circle cx="12" cy="48" r="10" fill="#f59e0b"/>
      <text x="35" y="54" fill="#374151" font-size="14">Important dates &amp; deadlines for 2025</text>
      <circle cx="12" cy="84" r="10" fill="#22c55e"/>
      <text x="35" y="90" fill="#374151" font-size="14">Documents required for verification</text>
      <circle cx="12" cy="120" r="10" fill="#ec4899"/>
      <text x="35" y="126" fill="#374151" font-size="14">Choice filling strategy for best results</text>
      <circle cx="12" cy="156" r="10" fill="#7c3aed"/>
      <text x="35" y="162" fill="#374151" font-size="14">Round-wise seat allotment process</text>
    </g>
    <rect x="40" y="480" width="620" height="45" fill="#1d4ed8" rx="10"/>
    <text x="350" y="510" text-anchor="middle" fill="white" font-size="15" font-weight="bold">Registration | Documents | Choice Filling | Seat Allotment</text>
  </g>
  <rect x="0" y="580" width="1200" height="50" fill="rgba(0,0,0,0.25)"/>
  <text x="600" y="612" text-anchor="middle" fill="rgba(255,255,255,0.95)" font-size="16" font-weight="500">Cerebrum Biology Academy | cerebrumbiologyacademy.com</text>
</svg>
