<svg width="1200" height="630" xmlns="http://www.w3.org/2000/svg">
  <!-- Background Gradient -->
  <defs>
    <linearGradient id="grad-mh" x1="0%" y1="0%" x2="100%" y2="100%">
      <stop offset="0%" style="stop-color:#f97316;stop-opacity:1" />
      <stop offset="100%" style="stop-color:#ea580c;stop-opacity:1" />
    </linearGradient>
  </defs>

  <!-- Background -->
  <rect width="1200" height="630" fill="url(#grad-mh)"/>

  <!-- Gateway of India Silhouette -->
  <g transform="translate(150, 220)">
    <rect x="0" y="120" width="280" height="20" fill="#ffffff" opacity="0.3"/>
    <rect x="20" y="0" width="60" height="120" fill="#ffffff" opacity="0.3"/>
    <rect x="200" y="0" width="60" height="120" fill="#ffffff" opacity="0.3"/>
    <rect x="100" y="20" width="80" height="100" fill="#ffffff" opacity="0.3"/>
    <ellipse cx="140" cy="20" rx="50" ry="25" fill="#ffffff" opacity="0.3"/>
  </g>

  <!-- College Buildings -->
  <g transform="translate(130, 440)">
    <rect x="0" y="40" width="50" height="80" fill="#ffffff" opacity="0.2"/>
    <rect x="0" y="20" width="50" height="20" fill="#f97316" opacity="0.8"/>
    <rect x="70" y="30" width="50" height="90" fill="#ffffff" opacity="0.2"/>
    <rect x="70" y="10" width="50" height="20" fill="#f97316" opacity="0.8"/>
    <rect x="140" y="50" width="50" height="70" fill="#ffffff" opacity="0.2"/>
    <rect x="140" y="30" width="50" height="20" fill="#f97316" opacity="0.8"/>
  </g>

  <!-- Main Title -->
  <text x="550" y="140" font-family="Arial, sans-serif" font-size="64" font-weight="bold" fill="#ffffff">Maharashtra</text>
  <text x="550" y="210" font-family="Arial, sans-serif" font-size="64" font-weight="bold" fill="#ffffff">Medical Colleges</text>
  <text x="550" y="275" font-family="Arial, sans-serif" font-size="40" fill="#fef3c7">Complete Admission Guide 2026</text>

  <!-- Key Points -->
  <rect x="550" y="315" width="600" height="260" rx="20" fill="#ffffff" opacity="0.15"/>
  <text x="580" y="365" font-family="Arial, sans-serif" font-size="28" font-weight="600" fill="#fef3c7">🏥 Maharashtra MBBS Colleges</text>
  <text x="580" y="405" font-family="Arial, sans-serif" font-size="24" fill="#ffffff">• Top colleges: GSMC, KEM, LTMMC, TNMC</text>
  <text x="580" y="440" font-family="Arial, sans-serif" font-size="24" fill="#ffffff">• State quota vs AIQ seat allocation</text>
  <text x="580" y="475" font-family="Arial, sans-serif" font-size="24" fill="#ffffff">• Cutoffs: 600+ for top Mumbai colleges</text>
  <text x="580" y="510" font-family="Arial, sans-serif" font-size="24" fill="#ffffff">• Domicile rules & reservation policies</text>
  <text x="580" y="545" font-family="Arial, sans-serif" font-size="22" fill="#22c55e">85% state quota seats available!</text>

  <!-- Badge -->
  <circle cx="1050" cy="120" r="70" fill="#22c55e" opacity="0.9"/>
  <text x="1050" y="110" font-family="Arial, sans-serif" font-size="36" font-weight="bold" fill="#ffffff" text-anchor="middle">600+</text>
  <text x="1050" y="138" font-family="Arial, sans-serif" font-size="18" font-weight="600" fill="#ffffff" text-anchor="middle">Cutoff</text>
</svg>
