<svg width="1200" height="630" xmlns="http://www.w3.org/2000/svg">
  <defs>
    <linearGradient id="bg" x1="0%" y1="0%" x2="100%" y2="100%">
      <stop offset="0%" style="stop-color:#0891b2;stop-opacity:1" />
      <stop offset="100%" style="stop-color:#06b6d4;stop-opacity:1" />
    </linearGradient>
  </defs>
  <rect width="100%" height="100%" fill="url(#bg)"/>
  <circle cx="100" cy="100" r="150" fill="rgba(255,255,255,0.06)"/>
  <circle cx="1100" cy="530" r="180" fill="rgba(255,255,255,0.05)"/>
  <g transform="translate(40, 70)">
    <rect x="50" y="20" width="300" height="400" fill="rgba(255,255,255,0.15)" rx="15"/>
    <text x="200" y="60" text-anchor="middle" fill="white" font-size="24" font-weight="bold">PUNE</text>
    <text x="200" y="85" text-anchor="middle" fill="rgba(255,255,255,0.8)" font-size="14">Education Capital of India</text>
    <g transform="translate(70, 110)">
      <rect x="0" y="0" width="260" height="50" fill="rgba(255,255,255,0.9)" rx="8"/>
      <text x="130" y="22" text-anchor="middle" fill="#0891b2" font-size="12" font-weight="bold">DY Patil Medical College</text>
      <text x="130" y="40" text-anchor="middle" fill="#374151" font-size="11">Rs 26-32L/yr | NAAC A</text>
      <rect x="0" y="60" width="260" height="50" fill="rgba(255,255,255,0.9)" rx="8"/>
      <text x="130" y="82" text-anchor="middle" fill="#0891b2" font-size="12" font-weight="bold">Bharati Vidyapeeth</text>
      <text x="130" y="100" text-anchor="middle" fill="#374151" font-size="11">Rs 15-20L/yr | 1120 Beds</text>
      <rect x="0" y="120" width="260" height="50" fill="rgba(255,255,255,0.9)" rx="8"/>
      <text x="130" y="142" text-anchor="middle" fill="#0891b2" font-size="12" font-weight="bold">Symbiosis (SMCW)</text>
      <text x="130" y="160" text-anchor="middle" fill="#374151" font-size="11">Rs 10.5L/yr | Women Only</text>
      <rect x="0" y="180" width="260" height="50" fill="rgba(255,255,255,0.9)" rx="8"/>
      <text x="130" y="202" text-anchor="middle" fill="#0891b2" font-size="12" font-weight="bold">Kashibai Navale (SKNMC)</text>
      <text x="130" y="220" text-anchor="middle" fill="#374151" font-size="11">Rs 12-37L/yr | Affordable</text>
    </g>
    <rect x="70" y="360" width="260" height="50" fill="#fbbf24" rx="10"/>
    <text x="200" y="390" text-anchor="middle" fill="#92400e" font-size="16" font-weight="bold">15+ Medical Colleges</text>
  </g>
  <g transform="translate(450, 45)">
    <rect x="0" y="0" width="700" height="540" fill="rgba(255,255,255,0.98)" rx="20"/>
    <rect x="30" y="25" width="180" height="36" fill="#0891b2" rx="18"/>
    <text x="120" y="49" text-anchor="middle" fill="white" font-size="14" font-weight="bold">PUNE GUIDE 2025</text>
    <text x="40" y="100" fill="#164e63" font-size="28" font-weight="bold">Top 10 Medical</text>
    <text x="40" y="140" fill="#164e63" font-size="28" font-weight="bold">Colleges in Pune</text>
    <text x="40" y="180" fill="#0891b2" font-size="17">Complete Fee &amp; Admission Guide</text>
    <g transform="translate(40, 210)">
      <rect x="0" y="0" width="300" height="75" fill="#ecfeff" rx="10"/>
      <text x="150" y="30" text-anchor="middle" fill="#164e63" font-size="16" font-weight="bold">Government Colleges</text>
      <text x="150" y="55" text-anchor="middle" fill="#0891b2" font-size="13">BJMC | AFMC | Sassoon</text>
      <rect x="320" y="0" width="300" height="75" fill="#fef3c7" rx="10"/>
      <text x="470" y="30" text-anchor="middle" fill="#92400e" font-size="16" font-weight="bold">Private/Deemed</text>
      <text x="470" y="55" text-anchor="middle" fill="#b45309" font-size="13">DY Patil | BVP | Symbiosis</text>
    </g>
    <g transform="translate(40, 310)">
      <circle cx="12" cy="12" r="10" fill="#0891b2"/>
      <text x="35" y="18" fill="#374151" font-size="14">Government vs Private college comparison</text>
      <circle cx="12" cy="48" r="10" fill="#f59e0b"/>
      <text x="35" y="54" fill="#374151" font-size="14">Complete fee breakdown for each college</text>
      <circle cx="12" cy="84" r="10" fill="#22c55e"/>
      <text x="35" y="90" fill="#374151" font-size="14">NEET cutoff trends 2022-2024</text>
      <circle cx="12" cy="120" r="10" fill="#ec4899"/>
      <text x="35" y="126" fill="#374151" font-size="14">Hospital infrastructure &amp; clinical exposure</text>
      <circle cx="12" cy="156" r="10" fill="#7c3aed"/>
      <text x="35" y="162" fill="#374151" font-size="14">Best college for your budget &amp; score</text>
    </g>
    <rect x="40" y="480" width="620" height="45" fill="#0891b2" rx="10"/>
    <text x="350" y="510" text-anchor="middle" fill="white" font-size="15" font-weight="bold">Fees | Cutoffs | Infrastructure | Faculty | Rankings</text>
  </g>
  <rect x="0" y="580" width="1200" height="50" fill="rgba(0,0,0,0.25)"/>
  <text x="600" y="612" text-anchor="middle" fill="rgba(255,255,255,0.95)" font-size="16" font-weight="500">Cerebrum Biology Academy | cerebrumbiologyacademy.com</text>
</svg>
