<svg width="1200" height="630" xmlns="http://www.w3.org/2000/svg">
  <defs>
    <linearGradient id="bg" x1="0%" y1="0%" x2="100%" y2="100%">
      <stop offset="0%" style="stop-color:#4f46e5;stop-opacity:1" />
      <stop offset="100%" style="stop-color:#6366f1;stop-opacity:1" />
    </linearGradient>
  </defs>
  <rect width="100%" height="100%" fill="url(#bg)"/>
  <circle cx="100" cy="100" r="150" fill="rgba(255,255,255,0.06)"/>
  <circle cx="1100" cy="530" r="180" fill="rgba(255,255,255,0.05)"/>
  <g transform="translate(40, 70)">
    <rect x="50" y="20" width="300" height="80" fill="rgba(255,255,255,0.95)" rx="12"/>
    <text x="200" y="55" text-anchor="middle" fill="#4f46e5" font-size="24" font-weight="bold">NAVI MUMBAI</text>
    <text x="200" y="80" text-anchor="middle" fill="#6b7280" font-size="14">Medical Education Hub</text>
    <g transform="translate(50, 120)">
      <rect x="0" y="0" width="300" height="80" fill="rgba(255,255,255,0.2)" rx="10"/>
      <text x="150" y="25" text-anchor="middle" fill="white" font-size="13" font-weight="bold">DY Patil Medical College</text>
      <text x="150" y="50" text-anchor="middle" fill="#fbbf24" font-size="16" font-weight="bold">Rs 28L/Year</text>
      <text x="150" y="68" text-anchor="middle" fill="white" font-size="11">NAAC A+ | 1800 Beds | MCC</text>
      <rect x="0" y="90" width="300" height="80" fill="rgba(255,255,255,0.2)" rx="10"/>
      <text x="150" y="115" text-anchor="middle" fill="white" font-size="13" font-weight="bold">MGM Medical College</text>
      <text x="150" y="140" text-anchor="middle" fill="#fbbf24" font-size="16" font-weight="bold">Rs 15L/Year</text>
      <text x="150" y="158" text-anchor="middle" fill="white" font-size="11">Autonomous | 1000 Beds</text>
      <rect x="0" y="180" width="300" height="80" fill="rgba(255,255,255,0.2)" rx="10"/>
      <text x="150" y="205" text-anchor="middle" fill="white" font-size="13" font-weight="bold">Terna Medical College</text>
      <text x="150" y="230" text-anchor="middle" fill="#fbbf24" font-size="16" font-weight="bold">Rs 7.5L/Year</text>
      <text x="150" y="248" text-anchor="middle" fill="white" font-size="11">Affordable | NMC Approved</text>
    </g>
    <rect x="50" y="390" width="300" height="50" fill="#fbbf24" rx="10"/>
    <text x="200" y="420" text-anchor="middle" fill="#92400e" font-size="16" font-weight="bold">900+ Total MBBS Seats</text>
  </g>
  <g transform="translate(450, 45)">
    <rect x="0" y="0" width="700" height="540" fill="rgba(255,255,255,0.98)" rx="20"/>
    <rect x="30" y="25" width="240" height="36" fill="#4f46e5" rx="18"/>
    <text x="150" y="49" text-anchor="middle" fill="white" font-size="14" font-weight="bold">CITY COMPARISON 2025</text>
    <text x="40" y="105" fill="#312e81" font-size="26" font-weight="bold">Medical Colleges in</text>
    <text x="40" y="145" fill="#4f46e5" font-size="28" font-weight="bold">Navi Mumbai</text>
    <text x="40" y="180" fill="#6b7280" font-size="16">DY Patil vs MGM vs Terna - Complete Guide</text>
    <g transform="translate(40, 205)">
      <rect x="0" y="0" width="200" height="70" fill="#eef2ff" rx="10"/>
      <text x="100" y="28" text-anchor="middle" fill="#4f46e5" font-size="14" font-weight="bold">DY Patil</text>
      <text x="100" y="50" text-anchor="middle" fill="#312e81" font-size="12">Premium | Rs 28L/yr</text>
      <rect x="215" y="0" width="200" height="70" fill="#dcfce7" rx="10"/>
      <text x="315" y="28" text-anchor="middle" fill="#166534" font-size="14" font-weight="bold">MGM</text>
      <text x="315" y="50" text-anchor="middle" fill="#14532d" font-size="12">Mid-range | Rs 15L/yr</text>
      <rect x="430" y="0" width="200" height="70" fill="#fef3c7" rx="10"/>
      <text x="530" y="28" text-anchor="middle" fill="#92400e" font-size="14" font-weight="bold">Terna</text>
      <text x="530" y="50" text-anchor="middle" fill="#78350f" font-size="12">Budget | Rs 7.5L/yr</text>
    </g>
    <g transform="translate(40, 300)">
      <circle cx="12" cy="12" r="10" fill="#4f46e5"/>
      <text x="35" y="18" fill="#374151" font-size="14">Complete fee structure comparison</text>
      <circle cx="12" cy="48" r="10" fill="#f59e0b"/>
      <text x="35" y="54" fill="#374151" font-size="14">NEET cutoff analysis 2022-2024</text>
      <circle cx="12" cy="84" r="10" fill="#22c55e"/>
      <text x="35" y="90" fill="#374151" font-size="14">Hospital infrastructure &amp; patient footfall</text>
      <circle cx="12" cy="120" r="10" fill="#3b82f6"/>
      <text x="35" y="126" fill="#374151" font-size="14">Faculty, research &amp; placement records</text>
      <circle cx="12" cy="156" r="10" fill="#ec4899"/>
      <text x="35" y="162" fill="#374151" font-size="14">Best college for your budget &amp; score</text>
    </g>
    <rect x="40" y="480" width="620" height="45" fill="#4f46e5" rx="10"/>
    <text x="350" y="510" text-anchor="middle" fill="white" font-size="15" font-weight="bold">Fees | Cutoffs | Infrastructure | Rankings | Verdict</text>
  </g>
  <rect x="0" y="580" width="1200" height="50" fill="rgba(0,0,0,0.25)"/>
  <text x="600" y="612" text-anchor="middle" fill="rgba(255,255,255,0.95)" font-size="16" font-weight="500">Cerebrum Biology Academy | cerebrumbiologyacademy.com</text>
</svg>
