<svg xmlns="http://www.w3.org/2000/svg" viewBox="0 0 800 400">
  <defs>
    <linearGradient id="bg" x1="0%" y1="0%" x2="100%" y2="100%">
      <stop offset="0%" style="stop-color:#EEF2FF"/>
      <stop offset="100%" style="stop-color:#F8FAFC"/>
    </linearGradient>
  </defs>
  <rect fill="url(#bg)" width="800" height="400"/>
  <g transform="translate(400,180)">
    <!-- Clipboard -->
    <rect x="-70" y="-90" width="140" height="180" rx="5" fill="white" stroke="#3B82F6" stroke-width="2"/>
    <rect x="-30" y="-100" width="60" height="20" rx="10" fill="#3B82F6"/>
    <!-- Checklist items -->
    <g transform="translate(-50,-60)">
      <rect x="0" y="0" width="15" height="15" rx="2" fill="#22C55E"/>
      <path d="M3,8 L6,11 L12,4" stroke="white" stroke-width="2" fill="none"/>
      <line x1="25" y1="8" x2="80" y2="8" stroke="#6366F1" stroke-width="2"/>
    </g>
    <g transform="translate(-50,-30)">
      <rect x="0" y="0" width="15" height="15" rx="2" fill="#22C55E"/>
      <path d="M3,8 L6,11 L12,4" stroke="white" stroke-width="2" fill="none"/>
      <line x1="25" y1="8" x2="75" y2="8" stroke="#6366F1" stroke-width="2"/>
    </g>
    <g transform="translate(-50,0)">
      <rect x="0" y="0" width="15" height="15" rx="2" fill="#F59E0B"/>
      <line x1="25" y1="8" x2="70" y2="8" stroke="#6366F1" stroke-width="2"/>
    </g>
    <g transform="translate(-50,30)">
      <rect x="0" y="0" width="15" height="15" rx="2" fill="white" stroke="#6366F1" stroke-width="2"/>
      <line x1="25" y1="8" x2="65" y2="8" stroke="#6366F1" stroke-width="2"/>
    </g>
    <!-- Book icon -->
    <rect x="100" y="-40" width="50" height="70" rx="3" fill="#22C55E" opacity="0.8"/>
    <rect x="103" y="-37" width="44" height="64" rx="2" fill="white"/>
    <line x1="115" y1="-25" x2="135" y2="-25" stroke="#22C55E" stroke-width="2"/>
    <line x1="115" y1="-10" x2="135" y2="-10" stroke="#22C55E" stroke-width="2"/>
  </g>
  <text x="400" y="370" text-anchor="middle" font-family="system-ui" font-size="24" font-weight="600" fill="#3B82F6">Complete NEET Syllabus</text>
</svg>