<svg width="1200" height="630" xmlns="http://www.w3.org/2000/svg">
  <defs>
    <linearGradient id="grad-guide" x1="0%" y1="0%" x2="100%" y2="100%">
      <stop offset="0%" style="stop-color:#059669;stop-opacity:1" />
      <stop offset="100%" style="stop-color:#047857;stop-opacity:1" />
    </linearGradient>
  </defs>
  <rect width="1200" height="630" fill="url(#grad-guide)"/>
  <g transform="translate(100, 180)">
    <rect x="0" y="0" width="250" height="320" rx="10" fill="#ffffff" opacity="0.95"/>
    <rect x="0" y="0" width="250" height="60" rx="10" fill="#22c55e" opacity="0.9"/>
    <line x1="30" y1="100" x2="220" y2="100" stroke="#059669" stroke-width="3" opacity="0.3"/>
    <line x1="30" y1="140" x2="220" y2="140" stroke="#059669" stroke-width="3" opacity="0.3"/>
    <line x1="30" y1="180" x2="220" y2="180" stroke="#059669" stroke-width="3" opacity="0.3"/>
    <line x1="30" y1="220" x2="220" y2="220" stroke="#059669" stroke-width="3" opacity="0.3"/>
    <text x="125" y="45" font-family="Arial, sans-serif" font-size="32" fill="#ffffff" text-anchor="middle" font-weight="bold">NEET</text>
  </g>
  <g transform="translate(100, 530)">
    <circle cx="50" cy="0" r="35" fill="#22c55e" opacity="0.8"/>
    <circle cx="50" cy="0" r="15" fill="#ffffff" opacity="0.9"/>
    <g transform="translate(150, -30)">
      <path d="M 0 0 Q -10 15 0 30" stroke="#22c55e" stroke-width="4" fill="none" opacity="0.9"/>
      <path d="M 20 0 Q 30 15 20 30" stroke="#22c55e" stroke-width="4" fill="none" opacity="0.9"/>
    </g>
  </g>
  <text x="450" y="180" font-family="Arial, sans-serif" font-size="76" font-weight="bold" fill="#ffffff">Complete</text>
  <text x="450" y="260" font-family="Arial, sans-serif" font-size="76" font-weight="bold" fill="#ffffff">NEET Biology</text>
  <text x="450" y="330" font-family="Arial, sans-serif" font-size="48" fill="#fef3c7">Ultimate Guide 2026</text>
  <rect x="450" y="370" width="700" height="210" rx="20" fill="#ffffff" opacity="0.15"/>
  <text x="480" y="420" font-family="Arial, sans-serif" font-size="28" font-weight="600" fill="#fef3c7">📖 Everything You Need</text>
  <text x="480" y="460" font-family="Arial, sans-serif" font-size="24" fill="#ffffff">• All 38 chapters covered in depth</text>
  <text x="480" y="495" font-family="Arial, sans-serif" font-size="24" fill="#ffffff">• NCERT + Previous year questions</text>
  <text x="480" y="530" font-family="Arial, sans-serif" font-size="24" fill="#ffffff">• High-yield topics & diagrams</text>
  <circle cx="1050" cy="140" r="75" fill="#22c55e" opacity="0.95"/>
  <text x="1050" y="150" font-family="Arial, sans-serif" font-size="52" font-weight="bold" fill="#ffffff" text-anchor="middle">360</text>
</svg>
