<svg width="1200" height="630" xmlns="http://www.w3.org/2000/svg">
  <!-- Background Gradient -->
  <defs>
    <linearGradient id="grad-revision" x1="0%" y1="0%" x2="100%" y2="100%">
      <stop offset="0%" style="stop-color:#0d9488;stop-opacity:1" />
      <stop offset="100%" style="stop-color:#14b8a6;stop-opacity:1" />
    </linearGradient>
  </defs>

  <!-- Background -->
  <rect width="1200" height="630" fill="url(#grad-revision)"/>

  <!-- Revision Cycle Arrows -->
  <g transform="translate(150, 220)">
    <!-- Circle 1 -->
    <circle cx="60" cy="60" r="50" fill="#22c55e" opacity="0.9"/>
    <text x="60" y="75" font-family="Arial, sans-serif" font-size="28" fill="#ffffff" text-anchor="middle" font-weight="bold">R1</text>
    
    <!-- Arrow -->
    <path d="M 110 60 L 170 60" stroke="#facc15" stroke-width="6" fill="none"/>
    <path d="M 165 50 L 180 60 L 165 70 Z" fill="#facc15"/>
    
    <!-- Circle 2 -->
    <circle cx="230" cy="60" r="50" fill="#84cc16" opacity="0.9"/>
    <text x="230" y="75" font-family="Arial, sans-serif" font-size="28" fill="#ffffff" text-anchor="middle" font-weight="bold">R2</text>
    
    <!-- Arrow -->
    <path d="M 230 110 L 230 170" stroke="#facc15" stroke-width="6" fill="none"/>
    <path d="M 220 165 L 230 180 L 240 165 Z" fill="#facc15"/>
    
    <!-- Circle 3 -->
    <circle cx="230" cy="230" r="50" fill="#15803d" opacity="0.9"/>
    <text x="230" y="245" font-family="Arial, sans-serif" font-size="28" fill="#ffffff" text-anchor="middle" font-weight="bold">R3</text>
    
    <!-- Arrow back -->
    <path d="M 180 230 L 110 230" stroke="#facc15" stroke-width="6" fill="none"/>
    <path d="M 115 220 L 100 230 L 115 240 Z" fill="#facc15"/>
    
    <!-- Circle 4 -->
    <circle cx="60" cy="230" r="50" fill="#166534" opacity="0.9"/>
    <text x="60" y="245" font-family="Arial, sans-serif" font-size="28" fill="#ffffff" text-anchor="middle" font-weight="bold">R4</text>
  </g>

  <!-- Book Icon -->
  <g transform="translate(120, 480)">
    <rect x="0" y="0" width="200" height="20" rx="3" fill="#facc15" opacity="0.9"/>
    <rect x="10" y="20" width="180" height="100" rx="5" fill="#ffffff" opacity="0.9"/>
    <line x1="100" y1="20" x2="100" y2="120" stroke="#0d9488" stroke-width="3"/>
    <text x="100" y="165" font-family="Arial, sans-serif" font-size="18" fill="#ffffff" text-anchor="middle" font-weight="600">Systematic Cycles</text>
  </g>

  <!-- Main Title -->
  <text x="550" y="160" font-family="Arial, sans-serif" font-size="68" font-weight="bold" fill="#ffffff">NEET Revision</text>
  <text x="550" y="240" font-family="Arial, sans-serif" font-size="68" font-weight="bold" fill="#ffffff">Strategies</text>
  <text x="550" y="305" font-family="Arial, sans-serif" font-size="44" fill="#fef3c7">Multiple Cycles Method</text>

  <!-- Strategy Points -->
  <rect x="550" y="345" width="600" height="230" rx="20" fill="#ffffff" opacity="0.15"/>
  <text x="580" y="395" font-family="Arial, sans-serif" font-size="28" font-weight="600" fill="#fef3c7">🔄 Spaced Repetition System</text>
  <text x="580" y="435" font-family="Arial, sans-serif" font-size="24" fill="#ffffff">• Revision 1: Detailed notes (Day 1-3)</text>
  <text x="580" y="470" font-family="Arial, sans-serif" font-size="24" fill="#ffffff">• Revision 2: Active recall (Day 7)</text>
  <text x="580" y="505" font-family="Arial, sans-serif" font-size="24" fill="#ffffff">• Revision 3: Speed review (Day 21)</text>
  <text x="580" y="540" font-family="Arial, sans-serif" font-size="22" fill="#22c55e">4+ cycles = 95% retention!</text>

  <!-- Badge -->
  <circle cx="1050" cy="140" r="70" fill="#22c55e" opacity="0.9"/>
  <text x="1050" y="125" font-family="Arial, sans-serif" font-size="48" font-weight="bold" fill="#ffffff" text-anchor="middle">4+</text>
  <text x="1050" y="153" font-family="Arial, sans-serif" font-size="18" font-weight="600" fill="#ffffff" text-anchor="middle">Cycles</text>
</svg>
