<svg width="1200" height="630" xmlns="http://www.w3.org/2000/svg">
  <defs>
    <linearGradient id="bg" x1="0%" y1="0%" x2="100%" y2="100%">
      <stop offset="0%" style="stop-color:#7c3aed;stop-opacity:1" />
      <stop offset="100%" style="stop-color:#8b5cf6;stop-opacity:1" />
    </linearGradient>
  </defs>
  <rect width="100%" height="100%" fill="url(#bg)"/>
  <circle cx="100" cy="100" r="150" fill="rgba(255,255,255,0.06)"/>
  <circle cx="1100" cy="530" r="180" fill="rgba(255,255,255,0.05)"/>
  <g transform="translate(40, 70)">
    <rect x="50" y="20" width="300" height="160" fill="rgba(255,255,255,0.15)" rx="15"/>
    <text x="200" y="55" text-anchor="middle" fill="white" font-size="16">YOUR NEET SCORE</text>
    <rect x="80" y="70" width="240" height="80" fill="rgba(255,255,255,0.95)" rx="10"/>
    <text x="200" y="115" text-anchor="middle" fill="#7c3aed" font-size="42" font-weight="bold">400-500</text>
    <text x="200" y="140" text-anchor="middle" fill="#6b7280" font-size="14">Marks Range</text>
    <g transform="translate(50, 200)">
      <rect x="0" y="0" width="145" height="70" fill="rgba(255,255,255,0.2)" rx="8"/>
      <text x="72" y="25" text-anchor="middle" fill="white" font-size="12">Expected Rank</text>
      <text x="72" y="50" text-anchor="middle" fill="#fbbf24" font-size="14" font-weight="bold">95K - 2.15L</text>
      <rect x="155" y="0" width="145" height="70" fill="rgba(255,255,255,0.2)" rx="8"/>
      <text x="227" y="25" text-anchor="middle" fill="white" font-size="12">Colleges Available</text>
      <text x="227" y="50" text-anchor="middle" fill="#fbbf24" font-size="14" font-weight="bold">25+ Options</text>
    </g>
    <g transform="translate(50, 290)">
      <rect x="0" y="0" width="300" height="150" fill="rgba(255,255,255,0.95)" rx="10"/>
      <text x="150" y="30" text-anchor="middle" fill="#7c3aed" font-size="14" font-weight="bold">SCORE BREAKDOWN</text>
      <text x="20" y="60" fill="#374151" font-size="12">400-425: Private colleges (Mgmt quota)</text>
      <text x="20" y="85" fill="#374151" font-size="12">425-450: Good private options</text>
      <text x="20" y="110" fill="#374151" font-size="12">450-475: Better college choices</text>
      <text x="20" y="135" fill="#374151" font-size="12">475-500: Top private colleges</text>
    </g>
  </g>
  <g transform="translate(450, 45)">
    <rect x="0" y="0" width="700" height="540" fill="rgba(255,255,255,0.98)" rx="20"/>
    <rect x="30" y="25" width="200" height="36" fill="#7c3aed" rx="18"/>
    <text x="130" y="49" text-anchor="middle" fill="white" font-size="14" font-weight="bold">SCORE GUIDE 2025</text>
    <text x="40" y="105" fill="#4c1d95" font-size="26" font-weight="bold">NEET 400-500 Marks:</text>
    <text x="40" y="145" fill="#7c3aed" font-size="24" font-weight="bold">Medical Colleges You Can Get</text>
    <text x="40" y="180" fill="#6b7280" font-size="16">in Maharashtra</text>
    <g transform="translate(40, 205)">
      <rect x="0" y="0" width="150" height="65" fill="#f3e8ff" rx="8"/>
      <text x="75" y="25" text-anchor="middle" fill="#7c3aed" font-size="12" font-weight="bold">400-425</text>
      <text x="75" y="50" text-anchor="middle" fill="#6b21a8" font-size="10">Mgmt Quota</text>
      <rect x="165" y="0" width="150" height="65" fill="#dbeafe" rx="8"/>
      <text x="240" y="25" text-anchor="middle" fill="#1e40af" font-size="12" font-weight="bold">425-450</text>
      <text x="240" y="50" text-anchor="middle" fill="#1e3a8a" font-size="10">Private Colleges</text>
      <rect x="330" y="0" width="150" height="65" fill="#dcfce7" rx="8"/>
      <text x="405" y="25" text-anchor="middle" fill="#166534" font-size="12" font-weight="bold">450-475</text>
      <text x="405" y="50" text-anchor="middle" fill="#14532d" font-size="10">Better Options</text>
      <rect x="495" y="0" width="150" height="65" fill="#fef3c7" rx="8"/>
      <text x="570" y="25" text-anchor="middle" fill="#92400e" font-size="12" font-weight="bold">475-500</text>
      <text x="570" y="50" text-anchor="middle" fill="#78350f" font-size="10">Top Private</text>
    </g>
    <g transform="translate(40, 295)">
      <circle cx="12" cy="12" r="10" fill="#7c3aed"/>
      <text x="35" y="18" fill="#374151" font-size="14">Score-to-rank conversion for Maharashtra</text>
      <circle cx="12" cy="48" r="10" fill="#f59e0b"/>
      <text x="35" y="54" fill="#374151" font-size="14">College options for each score bracket</text>
      <circle cx="12" cy="84" r="10" fill="#22c55e"/>
      <text x="35" y="90" fill="#374151" font-size="14">State vs Management quota comparison</text>
      <circle cx="12" cy="120" r="10" fill="#3b82f6"/>
      <text x="35" y="126" fill="#374151" font-size="14">Fee structures for available colleges</text>
      <circle cx="12" cy="156" r="10" fill="#ec4899"/>
      <text x="35" y="162" fill="#374151" font-size="14">Score improvement strategies for next year</text>
    </g>
    <rect x="40" y="480" width="620" height="45" fill="#7c3aed" rx="10"/>
    <text x="350" y="510" text-anchor="middle" fill="white" font-size="15" font-weight="bold">Realistic Expectations | Smart College Choices | Score Tips</text>
  </g>
  <rect x="0" y="580" width="1200" height="50" fill="rgba(0,0,0,0.25)"/>
  <text x="600" y="612" text-anchor="middle" fill="rgba(255,255,255,0.95)" font-size="16" font-weight="500">Cerebrum Biology Academy | cerebrumbiologyacademy.com</text>
</svg>
