<svg width="1200" height="630" xmlns="http://www.w3.org/2000/svg">
  <!-- Background Gradient -->
  <defs>
    <linearGradient id="grad-roadmap" x1="0%" y1="0%" x2="100%" y2="100%">
      <stop offset="0%" style="stop-color:#7c3aed;stop-opacity:1" />
      <stop offset="100%" style="stop-color:#5b21b6;stop-opacity:1" />
    </linearGradient>
  </defs>

  <!-- Background -->
  <rect width="1200" height="630" fill="url(#grad-roadmap)"/>

  <!-- Roadmap Path -->
  <g transform="translate(80, 200)">
    <!-- Month markers -->
    <circle cx="0" cy="180" r="20" fill="#22c55e" opacity="0.9"/>
    <text x="0" y="220" font-family="Arial, sans-serif" font-size="16" fill="#ffffff" text-anchor="middle" font-weight="600">Feb</text>

    <circle cx="80" cy="140" r="20" fill="#84cc16" opacity="0.9"/>
    <text x="80" y="180" font-family="Arial, sans-serif" font-size="16" fill="#ffffff" text-anchor="middle" font-weight="600">Apr</text>

    <circle cx="160" cy="100" r="20" fill="#facc15" opacity="0.9"/>
    <text x="160" y="140" font-family="Arial, sans-serif" font-size="16" fill="#ffffff" text-anchor="middle" font-weight="600">Jun</text>

    <circle cx="240" cy="60" r="20" fill="#f97316" opacity="0.9"/>
    <text x="240" y="100" font-family="Arial, sans-serif" font-size="16" fill="#ffffff" text-anchor="middle" font-weight="600">Aug</text>

    <circle cx="320" cy="20" r="25" fill="#ef4444" opacity="0.9"/>
    <text x="320" y="65" font-family="Arial, sans-serif" font-size="18" fill="#ffffff" text-anchor="middle" font-weight="bold">May</text>

    <!-- Connecting path -->
    <path d="M 0 180 Q 40 160 80 140 Q 120 120 160 100 Q 200 80 240 60 Q 280 40 320 20" stroke="#ffffff" stroke-width="6" fill="none" opacity="0.8" stroke-dasharray="10,5"/>
  </g>

  <!-- Calendar Icon -->
  <g transform="translate(120, 380)">
    <rect x="0" y="20" width="180" height="150" rx="10" fill="#ffffff" opacity="0.9"/>
    <rect x="0" y="0" width="180" height="40" rx="10" fill="#7c3aed" opacity="0.9"/>
    <circle cx="40" cy="20" r="8" fill="#ffffff" opacity="0.9"/>
    <circle cx="140" cy="20" r="8" fill="#ffffff" opacity="0.9"/>

    <!-- Grid -->
    <line x1="20" y1="70" x2="160" y2="70" stroke="#7c3aed" stroke-width="2"/>
    <line x1="20" y1="100" x2="160" y2="100" stroke="#7c3aed" stroke-width="2"/>
    <line x1="20" y1="130" x2="160" y2="130" stroke="#7c3aed" stroke-width="2"/>

    <text x="90" y="95" font-family="Arial, sans-serif" font-size="36" fill="#7c3aed" text-anchor="middle" font-weight="bold">12</text>
    <text x="90" y="225" font-family="Arial, sans-serif" font-size="18" fill="#ffffff" text-anchor="middle" font-weight="600">Months</text>
  </g>

  <!-- Main Title -->
  <text x="500" y="160" font-family="Arial, sans-serif" font-size="68" font-weight="bold" fill="#ffffff">NEET 2026</text>
  <text x="500" y="240" font-family="Arial, sans-serif" font-size="68" font-weight="bold" fill="#ffffff">Roadmap</text>
  <text x="500" y="305" font-family="Arial, sans-serif" font-size="44" fill="#fef3c7">Month-by-Month Plan</text>

  <!-- Key Points -->
  <rect x="500" y="345" width="650" height="220" rx="20" fill="#ffffff" opacity="0.15"/>
  <text x="530" y="395" font-family="Arial, sans-serif" font-size="28" font-weight="600" fill="#fef3c7">🎯 Strategic 12-Month Journey</text>
  <text x="530" y="435" font-family="Arial, sans-serif" font-size="24" fill="#ffffff">• Feb-Apr: Foundation (NCERT completion)</text>
  <text x="530" y="470" font-family="Arial, sans-serif" font-size="24" fill="#ffffff">• May-Jul: Building (Revision cycles start)</text>
  <text x="530" y="505" font-family="Arial, sans-serif" font-size="24" fill="#ffffff">• Aug-Dec: Practice (Mock tests & perfection)</text>
  <text x="530" y="540" font-family="Arial, sans-serif" font-size="24" fill="#ffffff">• Jan-May: Peak (Final sprint to 650+)</text>
</svg>