<svg xmlns="http://www.w3.org/2000/svg" viewBox="0 0 800 400">
  <defs>
    <linearGradient id="bg" x1="0%" y1="0%" x2="100%" y2="100%">
      <stop offset="0%" style="stop-color:#EEF2FF"/>
      <stop offset="100%" style="stop-color:#F8FAFC"/>
    </linearGradient>
  </defs>
  <rect fill="url(#bg)" width="800" height="400"/>
  <g transform="translate(400,180)">
    <!-- Map of India simplified -->
    <path d="M-60,-80 Q-80,-60 -80,-20 Q-100,20 -80,60 Q-40,100 0,90 Q60,100 80,60 Q100,20 80,-20 Q80,-60 60,-80 Q20,-100 -20,-100 Q-40,-90 -60,-80"
          fill="#3B82F6" opacity="0.2" stroke="#3B82F6" stroke-width="2"/>
    <!-- Location pins -->
    <g transform="translate(-40,-40)">
      <path d="M0,-20 Q10,-20 10,-10 Q10,0 0,10 Q-10,0 -10,-10 Q-10,-20 0,-20" fill="#EF4444"/>
      <circle cx="0" cy="-12" r="4" fill="white"/>
    </g>
    <g transform="translate(20,0)">
      <path d="M0,-20 Q10,-20 10,-10 Q10,0 0,10 Q-10,0 -10,-10 Q-10,-20 0,-20" fill="#22C55E"/>
      <circle cx="0" cy="-12" r="4" fill="white"/>
    </g>
    <g transform="translate(-20,40)">
      <path d="M0,-20 Q10,-20 10,-10 Q10,0 0,10 Q-10,0 -10,-10 Q-10,-20 0,-20" fill="#F59E0B"/>
      <circle cx="0" cy="-12" r="4" fill="white"/>
    </g>
    <g transform="translate(50,-30)">
      <path d="M0,-20 Q10,-20 10,-10 Q10,0 0,10 Q-10,0 -10,-10 Q-10,-20 0,-20" fill="#8B5CF6"/>
      <circle cx="0" cy="-12" r="4" fill="white"/>
    </g>
    <!-- Building icon -->
    <rect x="100" y="-50" width="60" height="80" rx="3" fill="white" stroke="#6366F1" stroke-width="2"/>
    <rect x="115" y="-30" width="10" height="15" fill="#3B82F6"/>
    <rect x="135" y="-30" width="10" height="15" fill="#3B82F6"/>
    <rect x="115" y="0" width="10" height="15" fill="#3B82F6"/>
    <rect x="135" y="0" width="10" height="15" fill="#3B82F6"/>
    <rect x="120" y="30" width="20" height="30" fill="#6366F1"/>
  </g>
  <text x="400" y="370" text-anchor="middle" font-family="system-ui" font-size="24" font-weight="600" fill="#3B82F6">NEET 2026 Exam Centres</text>
</svg>