<svg width="1200" height="630" xmlns="http://www.w3.org/2000/svg">
  <defs>
    <linearGradient id="bg" x1="0%" y1="0%" x2="100%" y2="100%">
      <stop offset="0%" style="stop-color:#0d9488;stop-opacity:1" />
      <stop offset="100%" style="stop-color:#14b8a6;stop-opacity:1" />
    </linearGradient>
  </defs>
  <rect width="100%" height="100%" fill="url(#bg)"/>
  <circle cx="100" cy="100" r="150" fill="rgba(255,255,255,0.06)"/>
  <circle cx="1100" cy="530" r="180" fill="rgba(255,255,255,0.05)"/>
  <g transform="translate(40, 70)">
    <rect x="50" y="20" width="300" height="100" fill="rgba(255,255,255,0.95)" rx="12"/>
    <text x="200" y="55" text-anchor="middle" fill="#0d9488" font-size="22" font-weight="bold">NRI QUOTA</text>
    <text x="200" y="80" text-anchor="middle" fill="#374151" font-size="14">Medical Admission Pathway</text>
    <text x="200" y="100" text-anchor="middle" fill="#6b7280" font-size="12">For NRI/OCI/PIO Candidates</text>
    <g transform="translate(50, 140)">
      <rect x="0" y="0" width="145" height="80" fill="rgba(255,255,255,0.2)" rx="8"/>
      <text x="72" y="25" text-anchor="middle" fill="white" font-size="12">Fee Range</text>
      <text x="72" y="50" text-anchor="middle" fill="#fbbf24" font-size="16" font-weight="bold">$20K-70K</text>
      <text x="72" y="68" text-anchor="middle" fill="white" font-size="10">Per Year</text>
      <rect x="155" y="0" width="145" height="80" fill="rgba(255,255,255,0.2)" rx="8"/>
      <text x="227" y="25" text-anchor="middle" fill="white" font-size="12">Seats</text>
      <text x="227" y="50" text-anchor="middle" fill="#fbbf24" font-size="16" font-weight="bold">15-20%</text>
      <text x="227" y="68" text-anchor="middle" fill="white" font-size="10">Per College</text>
    </g>
    <g transform="translate(50, 240)">
      <rect x="0" y="0" width="300" height="200" fill="rgba(255,255,255,0.15)" rx="10"/>
      <text x="150" y="30" text-anchor="middle" fill="white" font-size="14" font-weight="bold">ELIGIBILITY</text>
      <text x="20" y="60" fill="white" font-size="12">• NRI Parents/Sponsor</text>
      <text x="20" y="85" fill="white" font-size="12">• OCI Card Holders</text>
      <text x="20" y="110" fill="white" font-size="12">• PIO Status</text>
      <text x="20" y="135" fill="white" font-size="12">• Foreign Nationals</text>
      <text x="20" y="165" fill="#fbbf24" font-size="12" font-weight="bold">Lower NEET Cutoff</text>
      <text x="20" y="185" fill="#fbbf24" font-size="12" font-weight="bold">Direct Admission Option</text>
    </g>
  </g>
  <g transform="translate(450, 45)">
    <rect x="0" y="0" width="700" height="540" fill="rgba(255,255,255,0.98)" rx="20"/>
    <rect x="30" y="25" width="200" height="36" fill="#0d9488" rx="18"/>
    <text x="130" y="49" text-anchor="middle" fill="white" font-size="14" font-weight="bold">NRI GUIDE 2025</text>
    <text x="40" y="105" fill="#134e4a" font-size="26" font-weight="bold">NRI Quota MBBS</text>
    <text x="40" y="145" fill="#0d9488" font-size="26" font-weight="bold">Admission Maharashtra</text>
    <text x="40" y="180" fill="#6b7280" font-size="16">Complete Guide for NRI/OCI/PIO</text>
    <g transform="translate(40, 205)">
      <rect x="0" y="0" width="200" height="70" fill="#ccfbf1" rx="10"/>
      <text x="100" y="28" text-anchor="middle" fill="#0d9488" font-size="14" font-weight="bold">Top Colleges</text>
      <text x="100" y="50" text-anchor="middle" fill="#134e4a" font-size="12">DY Patil | Symbiosis | BVP</text>
      <rect x="215" y="0" width="200" height="70" fill="#fef3c7" rx="10"/>
      <text x="315" y="28" text-anchor="middle" fill="#92400e" font-size="14" font-weight="bold">Fee Structure</text>
      <text x="315" y="50" text-anchor="middle" fill="#78350f" font-size="12">$20K-70K/Year USD</text>
      <rect x="430" y="0" width="200" height="70" fill="#dbeafe" rx="10"/>
      <text x="530" y="28" text-anchor="middle" fill="#1e40af" font-size="14" font-weight="bold">Documentation</text>
      <text x="530" y="50" text-anchor="middle" fill="#1e3a8a" font-size="12">NRI Certificate Required</text>
    </g>
    <g transform="translate(40, 300)">
      <circle cx="12" cy="12" r="10" fill="#0d9488"/>
      <text x="35" y="18" fill="#374151" font-size="14">NRI quota eligibility criteria explained</text>
      <circle cx="12" cy="48" r="10" fill="#f59e0b"/>
      <text x="35" y="54" fill="#374151" font-size="14">Fee comparison: NRI vs Management quota</text>
      <circle cx="12" cy="84" r="10" fill="#22c55e"/>
      <text x="35" y="90" fill="#374151" font-size="14">Top colleges accepting NRI students</text>
      <circle cx="12" cy="120" r="10" fill="#3b82f6"/>
      <text x="35" y="126" fill="#374151" font-size="14">Documents &amp; sponsorship requirements</text>
      <circle cx="12" cy="156" r="10" fill="#ec4899"/>
      <text x="35" y="162" fill="#374151" font-size="14">Step-by-step admission process</text>
    </g>
    <rect x="40" y="480" width="620" height="45" fill="#0d9488" rx="10"/>
    <text x="350" y="510" text-anchor="middle" fill="white" font-size="15" font-weight="bold">Eligibility | Fees | Documents | Admission Process</text>
  </g>
  <rect x="0" y="580" width="1200" height="50" fill="rgba(0,0,0,0.25)"/>
  <text x="600" y="612" text-anchor="middle" fill="rgba(255,255,255,0.95)" font-size="16" font-weight="500">Cerebrum Biology Academy | cerebrumbiologyacademy.com</text>
</svg>
