<svg width="1200" height="630" xmlns="http://www.w3.org/2000/svg">
  <defs>
    <linearGradient id="grad-hybrid" x1="0%" y1="0%" x2="100%" y2="100%">
      <stop offset="0%" style="stop-color:#2563eb;stop-opacity:1" />
      <stop offset="100%" style="stop-color:#1e40af;stop-opacity:1" />
    </linearGradient>
  </defs>
  <rect width="1200" height="630" fill="url(#grad-hybrid)"/>
  <g transform="translate(120, 250)">
    <rect x="0" y="0" width="150" height="120" rx="10" fill="#60a5fa" opacity="0.9"/>
    <text x="75" y="70" font-family="Arial, sans-serif" font-size="24" fill="#ffffff" text-anchor="middle" font-weight="600">Online</text>
    <text x="180" y="60" font-family="Arial, sans-serif" font-size="36" fill="#facc15" font-weight="bold">+</text>
    <rect x="210" y="0" width="150" height="120" rx="10" fill="#3b82f6" opacity="0.9"/>
    <text x="285" y="70" font-family="Arial, sans-serif" font-size="24" fill="#ffffff" text-anchor="middle" font-weight="600">Offline</text>
    <path d="M 180 140 L 180 180 L 75 180" stroke="#22c55e" stroke-width="6"/>
    <path d="M 180 180 L 285 180" stroke="#22c55e" stroke-width="6"/>
    <circle cx="180" cy="220" r="50" fill="#22c55e" opacity="0.9"/>
    <text x="180" y="235" font-family="Arial, sans-serif" font-size="32" fill="#ffffff" text-anchor="middle" font-weight="bold">Best</text>
  </g>
  <text x="500" y="150" font-family="Arial, sans-serif" font-size="68" font-weight="bold" fill="#ffffff">Hybrid Model</text>
  <text x="500" y="230" font-family="Arial, sans-serif" font-size="68" font-weight="bold" fill="#ffffff">Success</text>
  <text x="500" y="295" font-family="Arial, sans-serif" font-size="44" fill="#fef3c7">Best of Both Worlds</text>
  <rect x="500" y="340" width="650" height="210" rx="20" fill="#ffffff" opacity="0.15"/>
  <text x="530" y="390" font-family="Arial, sans-serif" font-size="28" font-weight="600" fill="#fef3c7">💡 Smart Strategy</text>
  <text x="530" y="430" font-family="Arial, sans-serif" font-size="24" fill="#ffffff">• Online: Flexibility & recorded lectures</text>
  <text x="530" y="465" font-family="Arial, sans-serif" font-size="24" fill="#ffffff">• Offline: Personal attention & doubt clearing</text>
  <text x="530" y="500" font-family="Arial, sans-serif" font-size="24" fill="#ffffff">• Result: 630+ score with balanced approach</text>
  <circle cx="1050" cy="140" r="70" fill="#22c55e" opacity="0.9"/>
  <text x="1050" y="150" font-family="Arial, sans-serif" font-size="42" font-weight="bold" fill="#ffffff" text-anchor="middle">630+</text>
</svg>
